<svg width="496" height="461" viewBox="0 0 496 461" fill="none" xmlns="http://www.w3.org/2000/svg">
<g filter="url(#filter0_d_17_127)">
<path fill-rule="evenodd" clip-rule="evenodd" d="M335.2 377.497H137.319C139.49 353.304 143.152 337.97 109.963 331.193C70.1235 323.058 48.2367 301.291 53.7399 264.462C59.5313 225.706 12.1703 191.037 37.5168 159.292C47.7654 146.456 59.5868 141.087 71.8825 141.089C112.573 141.099 158.366 199.943 168.752 241.735C182.277 296.156 207.4 274.975 245.138 274.618C296.658 274.132 269.936 328.851 294.747 345.353C303.152 350.942 306.506 350.785 315.952 352.021C318.747 354.187 333.184 352.619 334.342 355.59C336.718 361.69 336.608 369.375 335.2 377.497L335.2 377.497Z" fill="#8FD6AB"/>
</g>
<path d="M277.875 377.497C262.322 372.696 247.169 366.723 232.52 359.61C203.66 345.596 176.708 327.144 152.413 304.767C107.451 263.356 72.2713 209.129 50.2827 147.473C50.1276 147.573 49.9727 147.674 49.8181 147.777C71.8391 209.464 107.05 263.722 152.047 305.165C176.381 327.577 203.377 346.059 232.284 360.096C246.437 366.968 261.06 372.778 276.058 377.497H277.875L277.875 377.497Z" fill="#FCFDFE"/>
<path d="M207.154 377.497C224.661 372.81 241.675 370.051 255.378 369.761L255.366 369.22C241.121 369.522 223.313 372.483 205.092 377.497H207.154Z" fill="#FCFDFE"/>
<path d="M290.631 377.497C278.839 368.236 269.818 354.029 263.73 335.075C258.331 318.264 255.31 298.146 254.733 275.199C254.552 275.17 254.375 275.138 254.191 275.111C254.763 298.152 257.793 318.356 263.216 335.24C269.246 354.013 278.146 368.163 289.761 377.497H290.631L290.631 377.497Z" fill="#FCFDFE"/>
<path d="M145.544 298.702L145.79 298.221C128.613 289.431 99.2539 281.519 55.3684 291.925C55.4237 292.098 55.483 292.268 55.5401 292.44C99.2387 282.089 128.455 289.956 145.544 298.702Z" fill="#FCFDFE"/>
<path d="M91.8451 233.605L92.345 233.402C86.2847 218.449 78.8512 188.197 91.551 145.263C91.3948 145.2 91.2387 145.133 91.0825 145.07C87.4372 157.556 85.1509 170.123 84.3867 182.048C83.1691 201.044 85.6784 218.391 91.8452 233.605H91.8451Z" fill="#FCFDFE"/>
<g filter="url(#filter1_d_17_127)">
<path fill-rule="evenodd" clip-rule="evenodd" d="M137.715 30.0028C141.329 30.0482 145.001 30.6235 148.676 31.6973C149.052 31.8073 149.428 31.9221 149.804 32.0425C173.55 39.0398 197.341 67.5822 197.336 93.5394C197.335 96.0406 197.114 98.5179 196.65 100.949C194.64 117.653 193.815 134.844 194.61 150.822C195.937 192.976 205.986 229.737 231.721 225.032C242.836 222.733 251.186 224.84 257.074 229.821C265.982 238.288 269.302 252.242 267.906 267.622C267.558 271.362 266.942 275.177 266.076 278.982C265.127 283.124 263.869 287.298 262.319 291.427C262.315 291.438 262.312 291.448 262.308 291.458C262.307 291.464 262.304 291.47 262.302 291.476C262.301 291.48 262.299 291.485 262.298 291.49C262.296 291.496 262.294 291.5 262.292 291.506C262.29 291.512 262.289 291.515 262.287 291.521C262.285 291.527 262.283 291.533 262.281 291.539C262.279 291.545 262.277 291.551 262.275 291.557C262.274 291.561 262.273 291.565 262.271 291.568C262.264 291.59 262.257 291.611 262.25 291.633C262.248 291.637 262.247 291.642 262.246 291.645C262.243 291.651 262.241 291.658 262.239 291.664C262.238 291.668 262.236 291.674 262.234 291.678C262.231 291.687 262.229 291.695 262.226 291.704L262.225 291.707C262.221 291.717 262.218 291.727 262.214 291.737C262.214 291.739 262.213 291.74 262.213 291.742C262.209 291.753 262.205 291.764 262.201 291.775C262.201 291.777 262.201 291.778 262.2 291.779C262.197 291.787 262.194 291.797 262.191 291.805C262.189 291.81 262.187 291.818 262.185 291.823C262.183 291.829 262.182 291.833 262.18 291.839C262.178 291.844 262.176 291.848 262.175 291.853C262.173 291.858 262.171 291.865 262.169 291.869C262.167 291.875 262.165 291.883 262.163 291.889C262.162 291.892 262.161 291.894 262.16 291.897C262.157 291.905 262.155 291.912 262.152 291.919C262.149 291.929 262.146 291.939 262.142 291.949C262.141 291.951 262.14 291.955 262.139 291.957C262.136 291.966 262.133 291.975 262.13 291.984C262.13 291.985 262.129 291.988 262.128 291.99C262.125 291.998 262.122 292.006 262.12 292.015C262.118 292.019 262.117 292.023 262.116 292.027C262.112 292.035 262.11 292.042 262.107 292.05C262.106 292.053 262.105 292.057 262.104 292.059C262.102 292.067 262.1 292.073 262.097 292.08C262.095 292.085 262.094 292.089 262.092 292.094C262.09 292.1 262.087 292.109 262.085 292.115C262.083 292.122 262.08 292.129 262.078 292.137C262.075 292.144 262.073 292.15 262.07 292.157C262.069 292.162 262.068 292.165 262.066 292.17C262.063 292.178 262.062 292.183 262.059 292.191C262.058 292.194 262.056 292.199 262.055 292.202C262.052 292.21 262.051 292.215 262.048 292.222C262.046 292.227 262.044 292.233 262.043 292.238C262.035 292.259 262.029 292.276 262.022 292.297C262.02 292.304 262.018 292.309 262.015 292.316C262.013 292.322 262.012 292.326 262.01 292.332C262.007 292.339 262.004 292.347 262.002 292.355C262.001 292.356 262.001 292.359 262 292.36C261.998 292.367 261.995 292.375 261.992 292.382C261.99 292.388 261.989 292.392 261.987 292.398C261.985 292.403 261.983 292.409 261.981 292.414C261.979 292.419 261.977 292.427 261.975 292.432C261.973 292.437 261.972 292.44 261.97 292.445C261.966 292.457 261.963 292.465 261.959 292.477C261.958 292.479 261.958 292.482 261.957 292.484C261.953 292.495 261.95 292.504 261.946 292.514C261.946 292.515 261.946 292.514 261.946 292.515C261.938 292.537 261.931 292.558 261.923 292.58C261.922 292.584 261.921 292.585 261.92 292.589C261.908 292.623 261.896 292.657 261.884 292.691C261.884 292.692 261.883 292.692 261.883 292.694C261.879 292.704 261.877 292.712 261.873 292.722C261.872 292.725 261.871 292.729 261.87 292.731C261.867 292.74 261.864 292.748 261.86 292.757C261.859 292.761 261.859 292.762 261.857 292.766C261.854 292.775 261.851 292.785 261.847 292.794C261.847 292.796 261.847 292.796 261.846 292.799C261.841 292.811 261.838 292.821 261.834 292.833C261.833 292.834 261.833 292.836 261.832 292.837C261.829 292.846 261.825 292.858 261.822 292.867C261.821 292.87 261.819 292.873 261.819 292.875C261.815 292.884 261.813 292.89 261.81 292.899C261.809 292.902 261.807 292.907 261.806 292.91C261.803 292.918 261.801 292.926 261.798 292.933C261.797 292.937 261.795 292.941 261.794 292.945C261.786 292.966 261.778 292.988 261.771 293.009C261.769 293.014 261.767 293.018 261.766 293.023C261.763 293.031 261.761 293.036 261.758 293.044C261.757 293.047 261.755 293.053 261.754 293.056C261.751 293.064 261.749 293.071 261.746 293.078C261.745 293.081 261.744 293.085 261.743 293.087C261.739 293.097 261.735 293.108 261.731 293.119L261.731 293.12C261.727 293.132 261.723 293.143 261.718 293.155V293.156C261.715 293.166 261.71 293.178 261.706 293.188C261.706 293.191 261.704 293.196 261.703 293.198C261.7 293.206 261.696 293.217 261.693 293.224C261.693 293.227 261.692 293.229 261.691 293.232C261.687 293.241 261.684 293.25 261.681 293.259C261.68 293.261 261.679 293.265 261.678 293.266C261.676 293.272 261.673 293.281 261.671 293.286C261.665 293.303 261.659 293.319 261.653 293.335C261.649 293.347 261.645 293.357 261.641 293.369C261.64 293.371 261.64 293.373 261.639 293.376C261.635 293.387 261.631 293.396 261.628 293.407L261.627 293.408C261.623 293.418 261.62 293.426 261.616 293.437C261.615 293.441 261.614 293.443 261.613 293.447C261.609 293.457 261.605 293.467 261.602 293.478L261.601 293.479C261.597 293.49 261.593 293.501 261.589 293.512C261.588 293.514 261.587 293.517 261.586 293.52C261.582 293.53 261.579 293.538 261.576 293.549C261.575 293.552 261.574 293.553 261.573 293.555C261.57 293.564 261.566 293.576 261.563 293.585C261.562 293.586 261.561 293.589 261.561 293.59C261.535 293.661 261.508 293.733 261.482 293.804L261.482 293.805C254.211 313.554 236.162 343.44 252.453 377.497H200.015C200.021 377.385 200.026 377.272 200.031 377.16C200.031 377.157 200.031 377.156 200.031 377.152C200.032 377.144 200.032 377.133 200.032 377.124C200.033 377.119 200.033 377.115 200.033 377.11C200.033 377.104 200.033 377.097 200.034 377.091C200.957 353.393 173.781 337.345 150.889 316.562C150.888 316.561 150.886 316.56 150.885 316.558C150.873 316.548 150.861 316.537 150.85 316.527C150.848 316.526 150.847 316.524 150.846 316.523C150.767 316.451 150.691 316.382 150.612 316.31C150.61 316.309 150.611 316.31 150.61 316.308C150.598 316.298 150.588 316.288 150.576 316.278C150.573 316.275 150.569 316.272 150.567 316.269C150.557 316.26 150.546 316.25 150.536 316.241C150.533 316.239 150.533 316.238 150.53 316.236C150.517 316.224 150.509 316.216 150.495 316.204L150.492 316.201C150.426 316.141 150.364 316.084 150.298 316.024C150.295 316.021 150.296 316.022 150.293 316.02C150.284 316.011 150.269 315.997 150.259 315.988C150.258 315.987 150.256 315.986 150.255 315.985C150.244 315.974 150.231 315.963 150.22 315.953C150.219 315.951 150.218 315.95 150.216 315.949C150.19 315.925 150.166 315.903 150.14 315.879C150.135 315.875 150.133 315.873 150.129 315.869C150.121 315.862 150.112 315.853 150.104 315.846C150.098 315.841 150.092 315.835 150.086 315.83C150.079 315.824 150.073 315.818 150.067 315.812C150.061 315.807 150.057 315.803 150.051 315.798C150.043 315.79 150.035 315.783 150.027 315.775C150.024 315.773 150.018 315.767 150.015 315.765C150.007 315.757 149.997 315.748 149.989 315.741C149.985 315.737 149.981 315.733 149.976 315.729C149.97 315.723 149.961 315.715 149.955 315.709C149.948 315.703 149.944 315.7 149.937 315.693C149.932 315.689 149.928 315.685 149.923 315.68C149.896 315.655 149.87 315.631 149.843 315.606C149.838 315.602 149.834 315.598 149.829 315.594C149.823 315.589 149.819 315.585 149.813 315.579C149.805 315.572 149.799 315.566 149.79 315.558C149.786 315.554 149.782 315.55 149.777 315.546C149.768 315.537 149.761 315.531 149.752 315.522C149.747 315.518 149.744 315.516 149.74 315.512C149.732 315.504 149.723 315.496 149.715 315.489C149.709 315.484 149.707 315.481 149.701 315.476C149.695 315.47 149.688 315.464 149.682 315.458C149.675 315.451 149.67 315.447 149.662 315.44C149.658 315.436 149.654 315.433 149.65 315.428C149.637 315.416 149.623 315.404 149.61 315.392C149.605 315.387 149.597 315.38 149.592 315.375C149.586 315.37 149.583 315.367 149.577 315.362C149.569 315.354 149.561 315.347 149.553 315.339C149.549 315.335 149.544 315.331 149.54 315.327C149.533 315.321 149.525 315.313 149.518 315.307C149.511 315.301 149.507 315.296 149.5 315.29C149.493 315.284 149.488 315.28 149.482 315.274C149.475 315.267 149.469 315.262 149.462 315.256C149.458 315.251 149.449 315.244 149.444 315.239C149.439 315.234 149.432 315.228 149.427 315.223C149.419 315.215 149.411 315.208 149.403 315.2C149.4 315.198 149.394 315.192 149.391 315.189C149.378 315.177 149.367 315.167 149.354 315.155C139.565 306.576 136.539 298.226 136.542 289.86C136.546 276.283 144.527 262.663 144.522 247.946C144.521 242.298 143.343 236.488 140.087 230.458C124.813 202.102 86.5313 168.654 86.5334 117.01C86.5337 110.348 87.1709 103.383 88.5768 96.0876C91.5227 76.1009 96.8831 61.0745 103.788 50.4405C103.789 50.4388 103.79 50.4373 103.791 50.4355C103.794 50.431 103.798 50.4251 103.801 50.4206C103.813 50.4009 103.825 50.3823 103.838 50.3626C103.839 50.3611 103.84 50.3596 103.841 50.3581C112.965 36.3526 124.77 29.9992 137.255 30.0001C137.408 30.0002 137.562 30.0011 137.715 30.0031L137.715 30.0028Z" fill="#9EE9BC"/>
</g>
<path d="M223.037 377.497C215.615 352.165 206.72 324.324 196.501 296.706C191.913 282.167 186.93 267.508 182.111 253.332C169.204 215.365 155.858 176.104 149.52 137.007C143.457 99.6113 144.431 65.393 152.53 32.9428C152.36 32.8809 152.19 32.8199 152.019 32.7599C143.89 65.2972 142.908 99.6037 148.987 137.094C155.333 176.235 168.686 215.517 181.6 253.506C186.418 267.679 191.4 282.335 195.991 296.881C206.029 324.009 214.937 351.92 222.437 377.497H223.037L223.037 377.497Z" fill="#FCFDFE"/>
<path d="M158.245 179.827L158.647 179.465C136.171 154.478 109.055 118.971 94.4878 99.8952C92.3114 97.0454 90.5375 94.7261 89.0872 92.8376C89.0471 93.0801 89.0067 93.3217 88.9672 93.5653C90.4796 95.5367 92.1948 97.7827 94.0585 100.223C108.631 119.305 135.755 154.823 158.245 179.827V179.827Z" fill="#FCFDFE"/>
<path d="M151.212 145.632C155.881 116.876 167.738 97.984 176.861 87.1997C183.032 79.9067 188.865 75.1671 192.666 72.5721C192.594 72.4063 192.522 72.2407 192.449 72.0752C188.259 74.9159 181.677 80.3001 174.867 88.7695C162.596 104.029 154.233 123.662 150.68 145.546L151.212 145.632Z" fill="#FCFDFE"/>
<path d="M215.719 355.363L216.256 355.299C213.083 328.631 219.292 299.95 234.71 270.052C241.415 257.048 249.661 244.266 259.281 231.95C259.158 231.815 259.03 231.686 258.904 231.555C249.243 243.916 240.962 256.749 234.23 269.804C218.761 299.8 212.534 328.586 215.719 355.363Z" fill="#FCFDFE"/>
<path d="M206.616 327.259L207.076 326.975C187.486 295.307 150.302 287.572 136.762 285.843C136.744 286.02 136.729 286.197 136.713 286.374C141.859 287.023 150.562 288.557 160.613 292.113C174.783 297.127 194.267 307.295 206.616 327.259Z" fill="#FCFDFE"/>
<g filter="url(#filter2_d_17_127)">
<path d="M115.001 85.7409C114.959 81.9592 118.27 79.0145 122.021 79.5038C146.899 82.7453 232.44 92.7253 303.09 86.9322C306.312 86.6686 309.122 89.0956 309.311 92.3217L324.78 357.308C324.992 360.942 322.232 364.064 318.599 364.298C288.882 366.212 166.495 373.648 122.805 369.302C120.146 369.038 118.117 366.811 118.088 364.14L115.001 85.7409Z" fill="#F7F7F7"/>
</g>
<path d="M117.963 92.3686C117.923 88.7292 121.11 85.8954 124.719 86.366C148.66 89.4854 230.98 99.0893 298.97 93.5154C302.07 93.2607 304.775 95.5971 304.956 98.7019L319.843 353.71C320.047 357.207 317.391 360.212 313.895 360.437C285.296 362.278 167.518 369.434 125.473 365.252C122.914 364.997 120.961 362.855 120.932 360.284L117.961 92.3686H117.963Z" fill="white"/>
<path d="M140.213 111.919L143.038 166.592C143.132 168.411 144.609 169.849 146.43 169.891C156.561 170.124 188.13 170.73 205.948 169.709C207.963 169.593 209.55 167.954 209.606 165.937C209.893 155.679 210.481 125.825 208.079 113.359C207.691 111.345 205.95 109.877 203.9 109.816L144.015 108.035C141.856 107.97 140.102 109.763 140.213 111.921V111.919Z" fill="white"/>
<path fill-rule="evenodd" clip-rule="evenodd" d="M174.706 119.535C168.212 119.569 162.975 124.86 163.009 131.353C163.043 137.845 168.335 143.081 174.829 143.047C181.322 143.013 186.559 137.722 186.525 131.23C186.491 124.757 181.234 119.534 174.769 119.535C174.748 119.535 174.727 119.535 174.706 119.535H174.706Z" fill="url(#paint0_linear_17_127)"/>
<path d="M290.033 115.9C291.206 115.894 292.138 115.064 292.103 114.054C292.069 113.046 291.08 112.208 289.907 112.193L224.244 111.365C223.071 111.351 222.435 112.242 222.83 113.346L223.149 114.236C223.544 115.341 224.827 116.24 226 116.233L290.033 115.9H290.033Z" fill="white"/>
<path d="M224.297 121.56C223.125 121.546 222.488 122.437 222.883 123.541L223.202 124.431C223.598 125.536 224.881 126.435 226.054 126.428L290.086 126.095C291.259 126.089 292.191 125.258 292.156 124.249C292.121 123.24 291.133 122.403 289.96 122.389L224.297 121.56Z" fill="white"/>
<path d="M224.352 131.903C223.179 131.888 222.542 132.779 222.938 133.883L223.256 134.774C223.652 135.878 224.935 136.776 226.109 136.771L290.14 136.437C291.313 136.431 292.245 135.6 292.21 134.592C292.175 133.583 291.187 132.745 290.014 132.731L224.351 131.903H224.352Z" fill="white"/>
<path d="M296.777 186.284C297.95 186.277 298.851 185.448 298.779 184.439C298.707 183.431 297.689 182.603 296.515 182.599L142.693 182.188C141.52 182.184 141.161 182.929 141.897 183.843L143.162 185.415C143.897 186.328 145.459 187.071 146.632 187.065L296.776 186.284H296.777Z" fill="white"/>
<path d="M142.747 192.383C141.574 192.38 141.216 193.124 141.951 194.038L143.216 195.61C143.952 196.524 145.513 197.266 146.686 197.26L296.83 196.479C298.003 196.473 298.905 195.643 298.833 194.634C298.761 193.626 297.742 192.799 296.568 192.794L142.746 192.383H142.747Z" fill="white"/>
<path d="M142.141 209.408C145.838 209.105 152.763 208.938 156.575 208.864C158.19 208.834 159.612 209.921 160 211.489C160.752 214.535 161.794 219.825 161.695 225.437C161.666 227.117 160.296 228.465 158.615 228.456L144.546 228.377C142.816 228.367 141.372 227.052 141.203 225.331L139.897 212.105C139.762 210.737 140.771 209.519 142.142 209.408H142.141Z" fill="white"/>
<path d="M168.186 214.706C167.014 214.663 166.202 215.576 166.382 216.736L166.735 219.002C166.915 220.161 168.022 221.105 169.195 221.098L203.363 220.92C204.536 220.914 205.479 219.95 205.458 218.777L205.448 218.201C205.427 217.028 204.452 216.033 203.279 215.99L168.186 214.707V214.706Z" fill="white"/>
<path d="M218.785 209.009C222.481 208.707 229.406 208.539 233.219 208.467C234.834 208.436 236.256 209.523 236.644 211.091C237.395 214.137 238.438 219.428 238.339 225.039C238.31 226.719 236.94 228.067 235.259 228.059L221.19 227.98C219.459 227.97 218.016 226.655 217.846 224.934L216.541 211.708C216.406 210.34 217.414 209.122 218.786 209.01L218.785 209.009Z" fill="white"/>
<path d="M244.83 214.307C243.657 214.264 242.845 215.178 243.026 216.337L243.378 218.603C243.559 219.762 244.666 220.705 245.839 220.699L280.007 220.521C281.18 220.515 282.123 219.55 282.102 218.378L282.092 217.8C282.071 216.628 281.095 215.633 279.923 215.59L244.83 214.307V214.307Z" fill="white"/>
<path d="M147.076 246.137C146.561 246.175 146.092 246.405 145.788 246.77C145.537 247.071 145.423 247.439 145.463 247.806L146.661 258.69C146.79 259.86 147.903 260.746 149.252 260.752L162.234 260.808C162.243 260.808 162.252 260.808 162.261 260.808C163.518 260.802 164.555 259.91 164.578 258.81C164.678 253.844 164.715 249.191 164.062 246.824C163.769 245.763 162.659 245.029 161.392 245.033C159.023 245.075 154.773 245.459 151.357 245.768C149.723 245.916 148.179 246.055 147.078 246.136L147.076 246.137ZM162.265 261.805C162.253 261.805 162.241 261.805 162.229 261.805L149.247 261.749C147.392 261.741 145.855 260.473 145.67 258.8L144.472 247.916C144.402 247.277 144.597 246.644 145.022 246.133C145.498 245.562 146.22 245.201 147.003 245.143C148.096 245.063 149.636 244.923 151.266 244.776C154.698 244.466 158.969 244.08 161.373 244.037C163.117 244.019 164.602 245.044 165.022 246.56C165.711 249.056 165.677 253.789 165.574 258.831C165.541 260.469 164.06 261.796 162.265 261.805Z" fill="white"/>
<path d="M148.478 247.253C151.204 247.052 157.128 246.42 159.939 246.37C161.131 246.349 162.179 247.063 162.464 248.095C163.017 250.098 162.966 254.096 162.891 257.787C162.868 258.892 161.858 259.779 160.618 259.775L150.243 259.729C148.967 259.724 147.904 258.859 147.779 257.728L146.822 249.029C146.723 248.13 147.468 247.329 148.478 247.254V247.253Z" fill="white"/>
<path d="M173.629 254.514C174.012 255.937 175.312 256.919 176.785 256.899L296.894 255.25C298.252 255.231 299.333 254.105 299.297 252.747C299.261 251.426 298.18 250.374 296.859 250.375L176.739 250.452C174.619 250.454 173.077 252.466 173.629 254.513V254.514Z" fill="white"/>
<path d="M147.22 273.955C146.705 273.993 146.236 274.224 145.932 274.588C145.681 274.889 145.567 275.257 145.607 275.624L146.805 286.509C146.934 287.678 148.047 288.564 149.396 288.57L162.379 288.627C162.387 288.627 162.396 288.627 162.405 288.627C163.662 288.62 164.699 287.729 164.722 286.628C164.822 281.663 164.859 277.01 164.206 274.643C163.912 273.582 162.787 272.825 161.536 272.851C159.167 272.893 154.917 273.277 151.501 273.586C149.866 273.734 148.323 273.874 147.221 273.954L147.22 273.955ZM162.409 289.624C162.397 289.624 162.385 289.624 162.373 289.624L149.391 289.567C147.536 289.558 145.999 288.29 145.814 286.618L144.616 275.734C144.546 275.095 144.742 274.461 145.166 273.951C145.642 273.379 146.364 273.019 147.147 272.96C148.241 272.88 149.78 272.741 151.41 272.594C154.842 272.284 159.113 271.898 161.517 271.855C161.535 271.855 161.552 271.854 161.57 271.854C163.277 271.845 164.751 272.877 165.166 274.378C165.855 276.874 165.821 281.607 165.718 286.649C165.685 288.286 164.204 289.614 162.409 289.623V289.624Z" fill="white"/>
<path d="M148.623 275.071C151.349 274.871 157.273 274.238 160.085 274.189C161.275 274.168 162.325 274.882 162.609 275.913C163.163 277.916 163.112 281.915 163.036 285.605C163.014 286.71 162.003 287.598 160.763 287.592L150.388 287.546C149.113 287.541 148.049 286.677 147.925 285.545L146.968 276.846C146.869 275.946 147.613 275.146 148.623 275.071H148.623Z" fill="white"/>
<path d="M173.774 282.333C174.157 283.756 175.457 284.737 176.93 284.717L297.038 283.068C298.397 283.05 299.478 281.924 299.442 280.565C299.406 279.244 298.324 278.193 297.004 278.194L176.884 278.271C174.764 278.272 173.222 280.284 173.774 282.331V282.333Z" fill="white"/>
<path d="M147.365 301.773C146.85 301.811 146.38 302.042 146.077 302.406C145.827 302.707 145.711 303.075 145.752 303.442L146.95 314.327C147.078 315.496 148.192 316.382 149.54 316.387L162.523 316.444C162.532 316.444 162.54 316.444 162.549 316.444C163.806 316.437 164.843 315.546 164.866 314.445C164.966 309.48 165.003 304.827 164.35 302.46C164.056 301.399 162.931 300.638 161.68 300.668C159.311 300.71 155.061 301.095 151.645 301.403C150.011 301.551 148.466 301.691 147.365 301.771V301.773ZM162.553 317.442C162.542 317.442 162.53 317.442 162.518 317.442L149.536 317.385C147.681 317.377 146.143 316.11 145.959 314.437L144.761 303.552C144.691 302.913 144.886 302.28 145.311 301.769C145.787 301.198 146.509 300.837 147.292 300.778C148.385 300.698 149.925 300.559 151.555 300.412C154.987 300.101 159.258 299.716 161.662 299.673C161.68 299.673 161.697 299.672 161.715 299.672C163.422 299.663 164.896 300.695 165.311 302.196C166 304.693 165.965 309.425 165.863 314.467C165.829 316.105 164.348 317.433 162.553 317.442Z" fill="white"/>
<path d="M148.767 302.89C151.493 302.689 157.418 302.057 160.229 302.008C161.419 301.987 162.469 302.701 162.753 303.732C163.307 305.735 163.256 309.734 163.18 313.424C163.158 314.529 162.147 315.417 160.907 315.411L150.532 315.366C149.257 315.36 148.193 314.495 148.069 313.364L147.112 304.666C147.013 303.766 147.757 302.965 148.767 302.891V302.89Z" fill="white"/>
<path d="M173.918 310.152C174.302 311.574 175.602 312.557 177.075 312.537L297.183 310.888C298.542 310.869 299.623 309.743 299.586 308.385C299.551 307.064 298.469 306.012 297.148 306.013L177.029 306.09C174.909 306.092 173.367 308.105 173.918 310.151V310.152Z" fill="white"/>
<path d="M147.51 329.592C146.994 329.63 146.525 329.86 146.222 330.225C145.971 330.526 145.856 330.894 145.897 331.261L147.095 342.145C147.223 343.315 148.337 344.2 149.685 344.206L162.668 344.262C162.676 344.262 162.684 344.262 162.693 344.262C163.951 344.256 164.988 343.365 165.011 342.264C165.111 337.298 165.148 332.646 164.495 330.278C164.201 329.218 163.076 328.453 161.825 328.487C159.456 328.529 155.205 328.913 151.789 329.222C150.155 329.37 148.611 329.509 147.51 329.59V329.592ZM162.698 345.26C162.687 345.26 162.675 345.26 162.663 345.26L149.681 345.204C147.826 345.196 146.288 343.928 146.104 342.255L144.906 331.371C144.835 330.732 145.031 330.099 145.456 329.588C145.931 329.017 146.654 328.655 147.437 328.597C148.53 328.517 150.07 328.378 151.7 328.231C155.132 327.92 159.403 327.534 161.807 327.491C161.825 327.491 161.842 327.491 161.859 327.491C163.567 327.482 165.041 328.514 165.456 330.015C166.145 332.51 166.11 337.243 166.007 342.285C165.974 343.923 164.493 345.251 162.698 345.26V345.26Z" fill="white"/>
<path d="M148.912 330.709C151.638 330.508 157.563 329.876 160.373 329.826C161.564 329.805 162.613 330.519 162.898 331.551C163.451 333.554 163.4 337.552 163.325 341.243C163.303 342.347 162.292 343.235 161.052 343.23L150.677 343.184C149.402 343.179 148.338 342.315 148.213 341.183L147.256 332.485C147.158 331.584 147.902 330.784 148.912 330.709V330.709Z" fill="white"/>
<path d="M174.063 337.97C174.447 339.394 175.747 340.376 177.22 340.355L297.328 338.706C298.687 338.688 299.768 337.562 299.731 336.203C299.696 334.883 298.614 333.831 297.293 333.832L177.173 333.909C175.053 333.91 173.512 335.923 174.063 337.97V337.97Z" fill="white"/>
<path fill-rule="evenodd" clip-rule="evenodd" d="M162.23 323.498L155.953 337.667C155.74 338.148 155.07 338.181 154.811 337.723L152.226 333.147C151.676 332.174 150.435 331.843 149.474 332.413C148.555 332.959 148.2 334.115 148.648 335.085C151.75 341.803 155.565 343.263 155.565 343.263C162.439 336.346 163.544 328.121 163.587 323.797C163.592 323.342 163.231 323.075 162.868 323.075C162.614 323.075 162.359 323.207 162.231 323.498H162.23Z" fill="url(#paint1_linear_17_127)"/>
<path d="M130.684 102.247C130.642 98.4649 133.953 95.5203 137.704 96.0096C162.582 99.251 248.123 109.231 318.773 103.439C321.995 103.175 324.805 105.602 324.994 108.828L340.463 373.815C340.675 377.449 337.916 380.57 334.283 380.804C304.566 382.718 182.179 390.154 138.488 385.809C135.829 385.544 133.8 383.318 133.77 380.647L130.684 102.247V102.247Z" fill="#F7F7F7"/>
<path d="M133.647 108.873C133.606 105.234 136.793 102.401 140.403 102.871C164.343 105.99 246.663 115.594 314.654 110.02C317.754 109.766 320.458 112.102 320.64 115.207L335.527 370.215C335.73 373.711 333.075 376.717 329.579 376.941C300.981 378.783 183.201 385.939 141.157 381.757C138.598 381.502 136.645 379.36 136.616 376.789L133.645 108.873L133.647 108.873Z" fill="white"/>
<path d="M155.895 128.424L158.721 183.098C158.815 184.916 160.293 186.354 162.113 186.396C172.244 186.629 203.813 187.235 221.631 186.213C223.646 186.097 225.233 184.458 225.289 182.441C225.576 172.183 226.164 142.329 223.761 129.863C223.373 127.849 221.633 126.381 219.582 126.321L159.697 124.539C157.538 124.474 155.784 126.267 155.895 128.424Z" fill="#9EE9BC"/>
<path d="M305.716 132.406C306.889 132.399 307.821 131.569 307.786 130.56C307.751 129.551 306.763 128.714 305.59 128.699L239.927 127.871C238.754 127.856 238.117 128.748 238.513 129.852L238.832 130.742C239.227 131.846 240.51 132.745 241.684 132.739L305.715 132.406H305.716Z" fill="#9EE9BC"/>
<path d="M239.981 138.066C238.808 138.052 238.172 138.943 238.567 140.047L238.886 140.937C239.281 142.042 240.565 142.941 241.738 142.934L305.77 142.601C306.942 142.595 307.874 141.765 307.84 140.755C307.805 139.747 306.816 138.909 305.643 138.894L239.98 138.066H239.981Z" fill="#9EE9BC"/>
<path d="M240.035 148.409C238.862 148.394 238.225 149.285 238.621 150.389L238.939 151.28C239.335 152.384 240.619 153.283 241.791 153.276L305.823 152.943C306.996 152.938 307.928 152.107 307.893 151.098C307.858 150.089 306.87 149.251 305.697 149.237L240.035 148.409Z" fill="#9EE9BC"/>
<path d="M312.46 202.79C313.633 202.784 314.534 201.954 314.462 200.945C314.39 199.937 313.372 199.109 312.198 199.105L158.375 198.694C157.203 198.69 156.844 199.436 157.58 200.349L158.845 201.921C159.58 202.834 161.142 203.577 162.315 203.571L312.458 202.79H312.46Z" fill="#9EE9BC"/>
<path d="M158.43 208.888C157.257 208.885 156.898 209.63 157.634 210.543L158.899 212.115C159.634 213.029 161.196 213.771 162.369 213.766L312.513 212.984C313.685 212.978 314.587 212.148 314.515 211.14C314.443 210.131 313.424 209.303 312.25 209.3L158.428 208.888H158.43Z" fill="#9EE9BC"/>
<path d="M157.825 225.914C161.521 225.611 168.446 225.444 172.259 225.371C173.874 225.34 175.297 226.427 175.683 227.996C176.435 231.041 177.478 236.332 177.379 241.943C177.349 243.624 175.98 244.972 174.299 244.963L160.229 244.885C158.499 244.875 157.056 243.56 156.886 241.839L155.581 228.613C155.446 227.244 156.454 226.027 157.825 225.915L157.825 225.914Z" fill="#9EE9BC"/>
<path d="M183.869 231.212C182.697 231.169 181.884 232.082 182.065 233.241L182.418 235.507C182.598 236.666 183.705 237.609 184.878 237.603L219.046 237.426C220.219 237.42 221.162 236.455 221.141 235.282L221.131 234.705C221.11 233.532 220.134 232.537 218.962 232.495L183.869 231.211V231.212Z" fill="#9EE9BC"/>
<path d="M234.468 225.515C238.164 225.213 245.089 225.045 248.902 224.972C250.517 224.941 251.939 226.028 252.326 227.597C253.078 230.643 254.121 235.933 254.022 241.544C253.993 243.225 252.623 244.573 250.942 244.564L236.873 244.485C235.143 244.475 233.699 243.161 233.529 241.439L232.224 228.213C232.089 226.845 233.097 225.627 234.468 225.516V225.515Z" fill="#9EE9BC"/>
<path d="M260.513 230.813C259.34 230.77 258.528 231.683 258.709 232.842L259.061 235.108C259.242 236.267 260.349 237.21 261.522 237.205L295.69 237.027C296.863 237.02 297.806 236.056 297.786 234.884L297.775 234.307C297.755 233.134 296.779 232.14 295.606 232.097L260.513 230.813Z" fill="#9EE9BC"/>
<path d="M162.759 262.641C162.244 262.68 161.774 262.911 161.471 263.276C161.22 263.576 161.106 263.944 161.146 264.312L162.344 275.196C162.473 276.365 163.586 277.251 164.934 277.257L177.917 277.314C177.926 277.314 177.934 277.314 177.943 277.314C179.201 277.307 180.238 276.415 180.26 275.315C180.361 270.35 180.397 265.697 179.744 263.33C179.451 262.269 178.342 261.535 177.075 261.538C174.706 261.58 170.456 261.965 167.04 262.273C165.406 262.421 163.861 262.56 162.761 262.641L162.759 262.641ZM177.948 278.31C177.936 278.31 177.924 278.31 177.912 278.31L164.929 278.254C163.074 278.246 161.537 276.977 161.352 275.305L160.154 264.421C160.084 263.782 160.279 263.149 160.704 262.638C161.18 262.067 161.902 261.706 162.685 261.648C163.778 261.567 165.318 261.428 166.948 261.28C170.38 260.97 174.651 260.584 177.055 260.542C178.8 260.524 180.285 261.548 180.704 263.065C181.393 265.562 181.359 270.294 181.256 275.336C181.223 276.973 179.742 278.301 177.947 278.31H177.948Z" fill="#9EE9BC"/>
<path d="M164.162 263.759C166.888 263.558 172.812 262.926 175.623 262.876C176.814 262.855 177.863 263.569 178.147 264.6C178.7 266.604 178.65 270.601 178.574 274.293C178.552 275.397 177.542 276.285 176.301 276.28L165.927 276.234C164.651 276.229 163.587 275.365 163.463 274.233L162.505 265.535C162.406 264.635 163.15 263.834 164.161 263.759L164.162 263.759Z" fill="#9EE9BC"/>
<path d="M189.312 271.02C189.695 272.443 190.995 273.425 192.469 273.404L312.577 271.755C313.936 271.737 315.017 270.611 314.98 269.252C314.945 267.932 313.863 266.88 312.542 266.881L192.422 266.959C190.302 266.96 188.76 268.973 189.312 271.019V271.02Z" fill="#9EE9BC"/>
<path d="M162.904 290.46C162.388 290.498 161.918 290.73 161.616 291.094C161.365 291.394 161.25 291.762 161.291 292.13L162.489 303.014C162.617 304.183 163.731 305.069 165.079 305.075L178.062 305.132C178.07 305.132 178.079 305.132 178.088 305.132C179.345 305.125 180.382 304.234 180.405 303.134C180.506 298.168 180.542 293.516 179.889 291.148C179.596 290.088 178.471 289.33 177.219 289.357C174.85 289.399 170.6 289.783 167.184 290.092C165.55 290.239 164.005 290.379 162.905 290.46H162.904ZM178.092 306.129C178.081 306.129 178.069 306.129 178.057 306.129L165.074 306.072C163.219 306.064 161.681 304.796 161.497 303.124L160.299 292.239C160.229 291.601 160.424 290.967 160.849 290.457C161.325 289.886 162.047 289.525 162.83 289.466C163.923 289.386 165.463 289.246 167.093 289.099C170.525 288.789 174.796 288.403 177.2 288.361C177.218 288.361 177.235 288.36 177.253 288.36C178.96 288.351 180.434 289.383 180.849 290.884C181.538 293.381 181.503 298.113 181.401 303.155C181.368 304.793 179.887 306.12 178.092 306.13L178.092 306.129Z" fill="#9EE9BC"/>
<path d="M164.306 291.577C167.032 291.377 172.957 290.744 175.768 290.695C176.958 290.674 178.007 291.388 178.292 292.419C178.845 294.422 178.794 298.42 178.719 302.111C178.697 303.217 177.686 304.104 176.446 304.098L166.071 304.053C164.796 304.047 163.732 303.184 163.607 302.051L162.651 293.353C162.552 292.454 163.296 291.652 164.306 291.578V291.577Z" fill="#9EE9BC"/>
<path d="M189.457 298.839C189.839 300.262 191.14 301.243 192.613 301.223L312.721 299.574C314.08 299.555 315.161 298.43 315.124 297.071C315.089 295.75 314.007 294.699 312.686 294.7L192.567 294.777C190.447 294.777 188.905 296.79 189.457 298.837V298.839Z" fill="#9EE9BC"/>
<path d="M163.048 318.279C162.533 318.317 162.063 318.548 161.761 318.912C161.51 319.213 161.395 319.581 161.436 319.949L162.634 330.833C162.762 332.003 163.876 332.888 165.224 332.894L178.206 332.95C178.215 332.95 178.223 332.95 178.232 332.95C179.49 332.944 180.527 332.052 180.55 330.952C180.651 325.986 180.687 321.334 180.034 318.966C179.741 317.906 178.616 317.144 177.364 317.175C174.995 317.217 170.744 317.601 167.328 317.91C165.694 318.057 164.15 318.197 163.049 318.278L163.048 318.279ZM178.237 333.948C178.226 333.948 178.214 333.948 178.202 333.948L165.219 333.89C163.364 333.882 161.826 332.615 161.642 330.942L160.444 320.057C160.373 319.418 160.568 318.785 160.994 318.274C161.47 317.703 162.191 317.342 162.975 317.283C164.068 317.203 165.608 317.064 167.238 316.916C170.67 316.606 174.941 316.221 177.345 316.178C177.363 316.178 177.38 316.177 177.398 316.177C179.105 316.168 180.579 317.2 180.994 318.701C181.683 321.198 181.648 325.93 181.546 330.971C181.512 332.609 180.031 333.937 178.236 333.946L178.237 333.948Z" fill="#9EE9BC"/>
<path d="M164.451 319.396C167.177 319.195 173.101 318.563 175.912 318.513C177.103 318.492 178.152 319.206 178.437 320.237C178.99 322.24 178.939 326.239 178.864 329.929C178.841 331.035 177.831 331.922 176.591 331.916L166.216 331.871C164.941 331.865 163.877 331.001 163.752 329.869L162.795 321.171C162.697 320.271 163.441 319.47 164.451 319.396Z" fill="#9EE9BC"/>
<path d="M189.601 326.657C189.984 328.08 191.285 329.062 192.758 329.042L312.866 327.393C314.225 327.374 315.306 326.248 315.269 324.89C315.234 323.569 314.152 322.518 312.831 322.518L192.712 322.595C190.591 322.596 189.05 324.609 189.601 326.656V326.657Z" fill="#9EE9BC"/>
<path d="M163.193 346.098C162.678 346.136 162.208 346.367 161.906 346.731C161.655 347.032 161.54 347.4 161.58 347.767L162.778 358.651C162.907 359.82 164.021 360.706 165.368 360.712L178.351 360.769C178.36 360.769 178.369 360.769 178.377 360.769C179.635 360.763 180.672 359.871 180.695 358.771C180.796 353.805 180.832 349.152 180.179 346.785C179.886 345.725 178.761 344.96 177.508 344.994C175.141 345.036 170.889 345.42 167.473 345.728C165.839 345.876 164.295 346.015 163.194 346.096L163.193 346.098ZM178.382 361.766C178.371 361.766 178.358 361.766 178.346 361.766L165.364 361.71C163.509 361.702 161.971 360.434 161.787 358.761L160.589 347.877C160.518 347.238 160.713 346.605 161.139 346.094C161.614 345.523 162.336 345.161 163.12 345.103C164.212 345.023 165.753 344.884 167.383 344.736C170.815 344.425 175.086 344.039 177.49 343.997C177.508 343.997 177.525 343.996 177.542 343.996C179.25 343.987 180.724 345.019 181.139 346.521C181.828 349.017 181.793 353.749 181.69 358.791C181.657 360.429 180.176 361.757 178.381 361.765L178.382 361.766Z" fill="#9EE9BC"/>
<path d="M164.596 347.214C167.322 347.014 173.246 346.381 176.057 346.331C177.249 346.31 178.297 347.024 178.582 348.056C179.135 350.059 179.084 354.057 179.009 357.748C178.986 358.853 177.976 359.74 176.736 359.735L166.361 359.689C165.085 359.684 164.022 358.819 163.897 357.688L162.94 348.99C162.841 348.089 163.586 347.289 164.596 347.214Z" fill="#9EE9BC"/>
<path d="M189.746 354.475C190.129 355.899 191.429 356.88 192.902 356.86L313.011 355.211C314.37 355.192 315.45 354.066 315.414 352.707C315.378 351.388 314.297 350.335 312.976 350.336L192.856 350.413C190.736 350.414 189.194 352.427 189.746 354.474V354.475Z" fill="#9EE9BC"/>
<path fill-rule="evenodd" clip-rule="evenodd" d="M177.914 340.004L171.636 354.173C171.423 354.654 170.752 354.686 170.494 354.229L167.909 349.653C167.36 348.68 166.117 348.348 165.156 348.919C164.238 349.465 163.882 350.621 164.331 351.591C167.433 358.309 171.248 359.769 171.248 359.769C178.123 352.853 179.228 344.627 179.27 340.303C179.275 339.848 178.913 339.581 178.551 339.581C178.297 339.581 178.042 339.712 177.914 340.004Z" fill="#189599"/>
<path fill-rule="evenodd" clip-rule="evenodd" d="M177.225 311.077L170.947 325.247C170.735 325.728 170.064 325.761 169.805 325.303L167.221 320.727C166.672 319.754 165.43 319.423 164.469 319.993C163.55 320.539 163.195 321.695 163.643 322.666C166.745 329.383 170.561 330.843 170.561 330.843C177.436 323.927 178.541 315.701 178.583 311.377C178.587 310.922 178.226 310.655 177.863 310.655C177.609 310.655 177.355 310.787 177.226 311.078L177.225 311.077Z" fill="#189599"/>
<path fill-rule="evenodd" clip-rule="evenodd" d="M177.225 283.317L170.947 297.487C170.735 297.968 170.064 298.001 169.805 297.543L167.221 292.967C166.672 291.994 165.43 291.664 164.469 292.234C163.55 292.78 163.195 293.935 163.643 294.906C166.745 301.623 170.561 303.083 170.561 303.083C177.436 296.168 178.541 287.942 178.583 283.617C178.587 283.163 178.226 282.895 177.863 282.895C177.609 282.895 177.355 283.027 177.226 283.318L177.225 283.317Z" fill="#189599"/>
<path fill-rule="evenodd" clip-rule="evenodd" d="M177.914 255.792L171.636 269.961C171.423 270.441 170.752 270.474 170.494 270.017L167.909 265.441C167.36 264.468 166.117 264.137 165.156 264.707C164.238 265.253 163.882 266.409 164.331 267.379C167.433 274.097 171.248 275.557 171.248 275.557C178.123 268.64 179.228 260.415 179.27 256.091C179.275 255.636 178.913 255.369 178.551 255.369C178.297 255.369 178.042 255.5 177.914 255.792Z" fill="#189599"/>
<g filter="url(#filter3_d_17_127)">
<path fill-rule="evenodd" clip-rule="evenodd" d="M267.717 345.018L269.786 409.348C270.147 420.565 279.354 429.491 290.632 429.558L444.709 430.466C452.246 430.511 458.667 425.035 459.768 417.615C462.177 401.369 465.247 372.302 461.79 345.019H267.717V345.018Z" fill="#189599"/>
</g>
<path d="M279.704 345.477H276.945C276.691 345.477 276.486 345.272 276.486 345.018C276.486 344.764 276.691 344.558 276.945 344.558H279.704C279.958 344.558 280.163 344.765 280.163 345.018C280.163 345.272 279.958 345.477 279.704 345.477ZM288.899 345.477H286.14C285.886 345.477 285.681 345.272 285.681 345.018C285.681 344.764 285.886 344.558 286.14 344.558H288.899C289.153 344.558 289.359 344.765 289.359 345.018C289.359 345.272 289.152 345.477 288.899 345.477ZM298.095 345.477H295.336C295.082 345.477 294.877 345.272 294.877 345.018C294.877 344.764 295.082 344.558 295.336 344.558H298.095C298.349 344.558 298.554 344.765 298.554 345.018C298.554 345.272 298.349 345.477 298.095 345.477ZM307.29 345.477H304.532C304.278 345.477 304.072 345.272 304.072 345.018C304.072 344.764 304.278 344.558 304.532 344.558H307.29C307.544 344.558 307.75 344.765 307.75 345.018C307.75 345.272 307.544 345.477 307.29 345.477ZM316.486 345.477H313.727C313.473 345.477 313.267 345.272 313.267 345.018C313.267 344.764 313.473 344.558 313.727 344.558H316.486C316.74 344.558 316.945 344.765 316.945 345.018C316.945 345.272 316.739 345.477 316.486 345.477ZM325.681 345.477H322.923C322.669 345.477 322.464 345.272 322.464 345.018C322.464 344.764 322.669 344.558 322.923 344.558H325.681C325.935 344.558 326.141 344.765 326.141 345.018C326.141 345.272 325.935 345.477 325.681 345.477ZM334.877 345.477H332.119C331.865 345.477 331.659 345.272 331.659 345.018C331.659 344.764 331.865 344.558 332.119 344.558H334.877C335.131 344.558 335.336 344.765 335.336 345.018C335.336 345.272 335.131 345.477 334.877 345.477ZM344.072 345.477H341.313C341.059 345.477 340.854 345.272 340.854 345.018C340.854 344.764 341.06 344.558 341.313 344.558H344.072C344.326 344.558 344.532 344.765 344.532 345.018C344.532 345.272 344.326 345.477 344.072 345.477ZM353.268 345.477H350.51C350.256 345.477 350.05 345.272 350.05 345.018C350.05 344.764 350.256 344.558 350.51 344.558H353.268C353.522 344.558 353.727 344.765 353.727 345.018C353.727 345.272 353.522 345.477 353.268 345.477ZM362.464 345.477H359.705C359.451 345.477 359.246 345.272 359.246 345.018C359.246 344.764 359.451 344.558 359.705 344.558H362.464C362.718 344.558 362.923 344.765 362.923 345.018C362.923 345.272 362.718 345.477 362.464 345.477ZM371.659 345.477H368.9C368.646 345.477 368.44 345.272 368.44 345.018C368.44 344.764 368.647 344.558 368.9 344.558H371.659C371.913 344.558 372.119 344.765 372.119 345.018C372.119 345.272 371.912 345.477 371.659 345.477ZM380.855 345.477H378.096C377.842 345.477 377.637 345.272 377.637 345.018C377.637 344.764 377.842 344.558 378.096 344.558H380.855C381.109 344.558 381.314 344.765 381.314 345.018C381.314 345.272 381.109 345.477 380.855 345.477ZM390.05 345.477H387.292C387.038 345.477 386.832 345.272 386.832 345.018C386.832 344.764 387.038 344.558 387.292 344.558H390.05C390.304 344.558 390.51 344.765 390.51 345.018C390.51 345.272 390.304 345.477 390.05 345.477ZM399.246 345.477H396.487C396.233 345.477 396.028 345.272 396.028 345.018C396.028 344.764 396.233 344.558 396.487 344.558H399.246C399.5 344.558 399.705 344.765 399.705 345.018C399.705 345.272 399.5 345.477 399.246 345.477ZM408.441 345.477H405.683C405.429 345.477 405.223 345.272 405.223 345.018C405.223 344.764 405.429 344.558 405.683 344.558H408.441C408.695 344.558 408.901 344.765 408.901 345.018C408.901 345.272 408.695 345.477 408.441 345.477ZM417.637 345.477H414.879C414.625 345.477 414.419 345.272 414.419 345.018C414.419 344.764 414.625 344.558 414.879 344.558H417.637C417.891 344.558 418.096 344.765 418.096 345.018C418.096 345.272 417.891 345.477 417.637 345.477ZM426.832 345.477H424.074C423.82 345.477 423.615 345.272 423.615 345.018C423.615 344.764 423.82 344.558 424.074 344.558H426.832C427.086 344.558 427.292 344.765 427.292 345.018C427.292 345.272 427.086 345.477 426.832 345.477ZM436.028 345.477H433.27C433.016 345.477 432.81 345.272 432.81 345.018C432.81 344.764 433.016 344.558 433.27 344.558H436.028C436.282 344.558 436.487 344.765 436.487 345.018C436.487 345.272 436.282 345.477 436.028 345.477ZM445.223 345.477H442.464C442.21 345.477 442.005 345.272 442.005 345.018C442.005 344.764 442.211 344.558 442.464 344.558H445.223C445.477 344.558 445.683 344.765 445.683 345.018C445.683 345.272 445.477 345.477 445.223 345.477ZM454.419 345.477H451.661C451.407 345.477 451.201 345.272 451.201 345.018C451.201 344.764 451.407 344.558 451.661 344.558H454.419C454.673 344.558 454.878 344.765 454.878 345.018C454.878 345.272 454.673 345.477 454.419 345.477ZM272.532 348.233C272.285 348.233 272.081 348.037 272.073 347.788L271.984 345.032C271.976 344.778 272.175 344.566 272.429 344.558C272.648 344.555 272.895 344.749 272.903 345.003L272.991 347.759C273 348.013 272.801 348.225 272.547 348.233H272.532ZM457.828 351.916C457.592 351.916 457.392 351.736 457.37 351.496C457.289 350.583 457.201 349.669 457.106 348.757C457.079 348.505 457.263 348.279 457.516 348.253C457.768 348.228 457.994 348.41 458.021 348.662C458.117 349.578 458.205 350.496 458.286 351.415C458.308 351.667 458.121 351.891 457.868 351.913C457.854 351.914 457.841 351.915 457.827 351.915L457.828 351.916ZM272.828 357.423C272.581 357.423 272.377 357.228 272.369 356.978L272.28 354.221C272.272 353.968 272.471 353.756 272.725 353.747C272.942 353.722 273.192 353.938 273.199 354.192L273.288 356.948C273.296 357.202 273.097 357.414 272.843 357.422H272.828V357.423ZM458.418 361.091C458.173 361.091 457.969 360.898 457.96 360.65C457.922 359.735 457.878 358.818 457.827 357.901C457.812 357.648 458.007 357.431 458.26 357.418C458.512 357.396 458.73 357.597 458.745 357.851C458.796 358.771 458.84 359.692 458.878 360.612C458.889 360.865 458.692 361.08 458.438 361.091H458.418ZM273.123 366.612C272.877 366.612 272.672 366.417 272.665 366.167L272.576 363.41C272.567 363.157 272.767 362.945 273.02 362.937C273.236 362.931 273.486 363.126 273.494 363.382L273.583 366.139C273.592 366.392 273.392 366.605 273.139 366.613H273.123V366.612ZM458.613 370.281C458.359 370.281 458.154 370.075 458.154 369.822C458.152 368.908 458.146 367.99 458.134 367.069C458.131 366.816 458.335 366.607 458.588 366.604C458.813 366.607 459.05 366.803 459.053 367.059C459.065 367.982 459.071 368.903 459.073 369.821C459.073 370.075 458.867 370.282 458.613 370.282V370.281ZM273.419 375.801C273.173 375.801 272.968 375.605 272.961 375.357L272.872 372.599C272.863 372.346 273.063 372.133 273.317 372.125C273.561 372.139 273.783 372.317 273.791 372.57L273.879 375.327C273.888 375.581 273.688 375.793 273.435 375.801H273.419ZM458.459 379.475H458.442C458.188 379.466 457.99 379.253 457.999 379C458.03 378.088 458.057 377.17 458.078 376.247C458.085 375.992 458.328 375.807 458.549 375.798C458.803 375.805 459.004 376.015 458.998 376.269C458.976 377.196 458.949 378.117 458.918 379.031C458.91 379.279 458.705 379.475 458.459 379.475H458.459ZM273.715 384.99C273.468 384.99 273.263 384.793 273.256 384.545L273.168 381.789C273.159 381.535 273.358 381.322 273.612 381.315C273.859 381.297 274.079 381.507 274.086 381.76L274.174 384.516C274.183 384.77 273.983 384.982 273.73 384.99H273.715ZM457.997 388.658C457.986 388.658 457.976 388.658 457.965 388.657C457.712 388.64 457.52 388.421 457.537 388.168C457.596 387.261 457.653 386.344 457.706 385.419C457.719 385.166 457.938 384.965 458.19 384.986C458.444 385.001 458.637 385.217 458.623 385.471C458.57 386.398 458.514 387.319 458.454 388.229C458.438 388.471 458.235 388.658 457.995 388.658H457.997ZM274.01 394.18C273.763 394.18 273.558 393.984 273.551 393.735L273.462 390.978C273.454 390.725 273.653 390.512 273.907 390.504C274.155 390.501 274.373 390.696 274.381 390.949L274.469 393.706C274.478 393.959 274.278 394.171 274.025 394.179H274.01V394.18ZM457.254 397.824C457.24 397.824 457.225 397.823 457.211 397.822C456.958 397.798 456.772 397.573 456.796 397.32C456.882 396.42 456.966 395.504 457.047 394.577C457.07 394.323 457.289 394.15 457.545 394.158C457.797 394.18 457.985 394.403 457.963 394.656C457.882 395.587 457.798 396.504 457.711 397.408C457.689 397.646 457.489 397.824 457.254 397.824ZM274.306 403.37C274.059 403.37 273.855 403.174 273.847 402.924L273.758 400.167C273.749 399.914 273.949 399.702 274.203 399.694C274.435 399.681 274.669 399.884 274.677 400.138L274.766 402.895C274.775 403.149 274.575 403.361 274.321 403.369H274.306V403.37ZM456.25 406.964C456.231 406.964 456.212 406.963 456.193 406.961C455.941 406.929 455.762 406.701 455.793 406.448C455.903 405.559 456.013 404.647 456.121 403.714C456.15 403.461 456.381 403.281 456.631 403.309C456.883 403.339 457.063 403.567 457.034 403.82C456.926 404.755 456.817 405.67 456.706 406.561C456.677 406.794 456.479 406.964 456.25 406.964H456.25ZM275.456 412.443C275.264 412.443 275.086 412.323 275.021 412.132C274.719 411.247 274.477 410.33 274.301 409.407C274.253 409.158 274.418 408.917 274.667 408.869C274.915 408.823 275.158 408.985 275.205 409.234C275.372 410.116 275.603 410.992 275.891 411.835C275.974 412.075 275.844 412.336 275.605 412.419C275.556 412.435 275.506 412.443 275.456 412.443ZM454.912 416.059C454.874 416.059 454.835 416.054 454.796 416.044C454.55 415.98 454.403 415.729 454.467 415.484C454.589 415.01 454.688 414.524 454.76 414.039L454.939 412.819C454.976 412.567 455.204 412.39 455.46 412.429C455.712 412.465 455.886 412.699 455.849 412.95L455.67 414.173C455.593 414.689 455.488 415.208 455.357 415.713C455.303 415.921 455.116 416.059 454.912 416.059H454.912ZM280.3 420.163C280.183 420.163 280.066 420.119 279.976 420.03C279.307 419.369 278.68 418.657 278.112 417.915C277.957 417.713 277.996 417.425 278.197 417.27C278.399 417.116 278.688 417.154 278.842 417.357C279.385 418.065 279.984 418.745 280.623 419.378C280.804 419.556 280.805 419.848 280.627 420.028C280.537 420.119 280.419 420.165 280.3 420.165V420.163ZM449.994 423.637C449.858 423.637 449.725 423.578 449.634 423.464C449.475 423.265 449.508 422.977 449.706 422.818C450.401 422.262 451.045 421.637 451.619 420.962C451.783 420.768 452.072 420.744 452.267 420.909C452.46 421.073 452.484 421.363 452.319 421.556C451.708 422.276 451.022 422.942 450.28 423.536C450.195 423.603 450.094 423.636 449.993 423.636L449.994 423.637ZM288.067 424.923C288.019 424.923 287.97 424.915 287.923 424.899C287.036 424.606 286.159 424.247 285.314 423.831C285.086 423.718 284.992 423.443 285.105 423.215C285.217 422.988 285.492 422.895 285.721 423.006C286.527 423.403 287.366 423.746 288.212 424.026C288.453 424.106 288.584 424.365 288.504 424.606C288.44 424.8 288.26 424.921 288.068 424.921L288.067 424.923ZM297.152 425.95H297.15L294.392 425.933C294.138 425.932 293.933 425.725 293.935 425.471C293.936 425.218 294.142 425.014 294.394 425.014H294.396L297.155 425.03C297.409 425.032 297.613 425.238 297.612 425.493C297.61 425.746 297.405 425.95 297.152 425.95ZM306.348 426.004H306.345L303.587 425.988C303.333 425.986 303.129 425.78 303.129 425.526C303.131 425.273 303.336 425.068 303.589 425.068H303.591L306.35 425.084C306.604 425.086 306.809 425.292 306.807 425.547C306.806 425.8 306.6 426.004 306.348 426.004ZM315.543 426.059H315.541L312.783 426.043C312.529 426.041 312.324 425.835 312.326 425.58C312.327 425.326 312.565 425.155 312.788 425.123L315.547 425.138C315.801 425.141 316.005 425.347 316.004 425.601C316.003 425.854 315.797 426.058 315.544 426.058L315.543 426.059ZM324.738 426.112H324.736L321.977 426.096C321.723 426.094 321.518 425.887 321.52 425.633C321.521 425.38 321.727 425.176 321.979 425.176H321.981L324.74 425.193C324.994 425.194 325.198 425.401 325.197 425.655C325.195 425.908 324.99 426.112 324.737 426.112H324.738ZM333.934 426.166H333.931L331.173 426.15C330.919 426.149 330.714 425.942 330.716 425.688C330.718 425.434 330.923 425.231 331.175 425.231H331.178L333.936 425.247C334.19 425.248 334.395 425.455 334.393 425.709C334.392 425.963 334.186 426.166 333.934 426.166ZM343.129 426.221H343.127L340.369 426.204C340.115 426.203 339.91 425.997 339.911 425.742C339.912 425.489 340.118 425.285 340.37 425.285H340.373L343.131 425.301C343.385 425.303 343.59 425.509 343.589 425.763C343.587 426.016 343.382 426.22 343.129 426.22V426.221ZM352.324 426.275H352.322L349.563 426.259C349.309 426.257 349.105 426.051 349.105 425.797C349.107 425.544 349.313 425.34 349.565 425.34H349.567L352.326 425.356C352.58 425.358 352.785 425.564 352.784 425.818C352.782 426.071 352.576 426.275 352.324 426.275ZM361.52 426.329H361.517L358.759 426.313C358.505 426.311 358.3 426.105 358.302 425.85C358.303 425.597 358.509 425.393 358.761 425.393H358.764L361.522 425.409C361.776 425.411 361.981 425.617 361.979 425.872C361.977 426.125 361.772 426.329 361.52 426.329ZM370.715 426.383H370.713L367.954 426.367C367.7 426.365 367.496 426.159 367.497 425.904C367.498 425.651 367.704 425.447 367.957 425.447H367.959L370.718 425.464C370.972 425.465 371.176 425.671 371.175 425.926C371.173 426.179 370.968 426.383 370.715 426.383ZM379.91 426.437H379.907L377.149 426.421C376.895 426.42 376.69 426.212 376.692 425.959C376.694 425.705 376.899 425.502 377.152 425.502H377.154L379.912 425.518C380.166 425.519 380.371 425.726 380.369 425.98C380.368 426.234 380.162 426.437 379.91 426.437ZM389.105 426.491H389.103L386.345 426.475C386.091 426.474 385.886 426.267 385.887 426.013C385.888 425.76 386.094 425.556 386.347 425.556H386.35L389.108 425.572C389.362 425.574 389.566 425.78 389.566 426.035C389.564 426.288 389.359 426.491 389.106 426.491H389.105ZM398.3 426.546H398.298L395.539 426.53C395.285 426.528 395.081 426.322 395.082 426.067C395.084 425.814 395.289 425.61 395.542 425.61H395.544L398.303 425.626C398.557 425.629 398.761 425.835 398.76 426.089C398.758 426.342 398.553 426.546 398.3 426.546ZM407.496 426.6H407.493L404.734 426.584C404.48 426.582 404.275 426.376 404.277 426.121C404.279 425.867 404.524 425.662 404.74 425.664L407.498 425.68C407.752 425.682 407.957 425.888 407.955 426.143C407.954 426.396 407.748 426.6 407.496 426.6ZM416.691 426.654H416.689L413.93 426.638C413.676 426.636 413.472 426.43 413.473 426.175C413.474 425.922 413.681 425.718 413.933 425.718H413.935L416.694 425.735C416.948 425.736 417.153 425.942 417.152 426.197C417.151 426.45 416.944 426.654 416.692 426.654H416.691ZM425.886 426.708H425.884L423.125 426.692C422.871 426.69 422.667 426.483 422.667 426.229C422.669 425.976 422.874 425.773 423.127 425.773H423.13L425.888 425.789C426.142 425.79 426.347 425.997 426.345 426.251C426.345 426.504 426.138 426.708 425.886 426.708ZM435.082 426.762H435.079L432.321 426.746C432.067 426.745 431.862 426.538 431.863 426.284C431.865 426.031 432.07 425.827 432.322 425.827H432.326L435.084 425.843C435.338 425.844 435.543 426.051 435.541 426.305C435.539 426.559 435.334 426.762 435.082 426.762ZM441.517 426.787C441.271 426.787 441.067 426.592 441.058 426.344C441.05 426.091 441.247 425.878 441.501 425.868C442.392 425.835 443.282 425.716 444.144 425.515C444.39 425.458 444.639 425.612 444.696 425.859C444.754 426.106 444.6 426.354 444.352 426.411C443.433 426.624 442.485 426.751 441.535 426.787H441.517Z" fill="#9EE9BC"/>
<path fill-rule="evenodd" clip-rule="evenodd" d="M316.229 291.128C314.945 291.333 313.858 292.171 313.335 293.356L312.872 298.316L339.522 299.069L338.666 293.304C335.55 290.975 330.61 290.31 325.979 290.31C322.091 290.31 318.42 290.779 316.229 291.127L316.229 291.128Z" fill="#B8C5D6"/>
<path fill-rule="evenodd" clip-rule="evenodd" d="M322.257 275.098V290.633C322.257 292.009 323.204 293.209 324.545 293.539C325.654 293.812 326.761 293.812 327.866 293.542C329.215 293.214 330.163 292.003 330.163 290.621V275.097H322.257V275.098Z" fill="#189599"/>
<path fill-rule="evenodd" clip-rule="evenodd" d="M392.817 291.128C391.534 291.333 390.447 292.171 389.924 293.356L389.461 298.316L416.111 299.069L415.255 293.304C412.138 290.975 407.199 290.31 402.568 290.31C398.68 290.31 395.009 290.779 392.818 291.127L392.817 291.128Z" fill="#B8C5D6"/>
<path fill-rule="evenodd" clip-rule="evenodd" d="M398.845 273.462V290.634C398.845 292.01 399.793 293.21 401.134 293.54C402.244 293.813 403.35 293.813 404.455 293.543C405.804 293.215 406.752 292.004 406.752 290.622V273.462H398.845Z" fill="#189599"/>
<path fill-rule="evenodd" clip-rule="evenodd" d="M322.657 262.088C320.303 263.018 318.557 265.03 317.96 267.48C317.392 269.818 317.014 272.938 317.757 276.114C318.151 277.801 319.713 278.964 321.452 278.906L406.491 276.092C408.43 276.028 410.075 274.63 410.408 272.727C410.874 270.066 411.285 266.081 410.671 261.95C409.975 257.253 405.934 253.763 401.164 253.65C398.456 253.585 395.035 253.533 391.111 253.533C372.043 253.533 341.114 254.786 322.654 262.088H322.657Z" fill="#189599"/>
<path d="M319.98 275.033C319.513 275.033 319.114 274.68 319.066 274.206C319.052 274.067 318.733 270.774 319.591 267.601C320.273 265.081 322.267 263.056 324.793 262.314C329.555 260.917 338.658 258.542 346.118 258.333C346.629 258.32 347.049 258.72 347.063 259.226C347.077 259.734 346.677 260.157 346.169 260.172C338.917 260.375 329.988 262.707 325.311 264.08C323.394 264.642 321.883 266.175 321.366 268.082C320.595 270.93 320.893 273.991 320.895 274.022C320.946 274.527 320.578 274.978 320.072 275.028C320.041 275.031 320.009 275.033 319.979 275.033L319.98 275.033Z" fill="white"/>
<g filter="url(#filter4_d_17_127)">
<path fill-rule="evenodd" clip-rule="evenodd" d="M273.416 296.384C269.918 296.429 266.968 298.949 266.354 302.377C263.464 318.51 264.318 343.574 264.864 354.256C265.016 357.256 267.199 359.762 270.159 360.35L354.125 377.038H382.118L460.923 362.132C463.776 361.592 465.895 359.154 465.961 356.265C466.447 335.033 462.344 313.613 460.304 304.393C459.66 301.483 457.234 299.309 454.262 298.95C434.156 296.524 385.46 295.935 342.857 295.935C312.31 295.935 284.891 296.238 273.418 296.384H273.416Z" fill="#189599"/>
</g>
<path d="M340.123 303.183C339.869 303.183 339.664 302.977 339.664 302.724C339.664 302.47 339.869 302.263 340.123 302.263H342.874C343.128 302.263 343.338 302.469 343.337 302.723C343.337 302.976 343.136 303.182 342.883 303.182H340.124L340.123 303.183ZM352.077 303.192H352.076L349.318 303.187C349.064 303.187 348.859 302.981 348.859 302.726C348.859 302.473 349.065 302.267 349.318 302.267L352.077 302.272C352.331 302.273 352.537 302.478 352.536 302.733C352.535 302.986 352.33 303.192 352.076 303.192H352.077ZM330.926 303.197C330.673 303.197 330.468 302.993 330.467 302.74C330.466 302.486 330.671 302.279 330.925 302.278L333.685 302.271C333.92 302.253 334.145 302.477 334.146 302.73C334.146 302.984 333.941 303.189 333.687 303.19L330.929 303.196H330.927L330.926 303.197ZM361.274 303.222H361.273L358.514 303.211C358.26 303.21 358.055 303.004 358.056 302.749C358.057 302.496 358.262 302.291 358.515 302.291H358.517L361.276 302.302C361.53 302.303 361.735 302.509 361.734 302.763C361.733 303.016 361.528 303.221 361.274 303.221L361.274 303.222ZM321.729 303.229C321.476 303.229 321.27 303.024 321.27 302.771C321.269 302.517 321.473 302.31 321.727 302.309L324.487 302.299H324.488C324.742 302.299 324.948 302.503 324.948 302.757C324.949 303.01 324.745 303.217 324.491 303.218L321.731 303.23H321.729V303.229ZM312.53 303.274C312.278 303.274 312.072 303.07 312.071 302.817C312.07 302.563 312.274 302.356 312.528 302.355L315.288 302.339H315.29C315.543 302.339 315.749 302.544 315.75 302.797C315.751 303.05 315.546 303.257 315.292 303.259L312.533 303.274H312.53ZM370.47 303.274H370.467L367.708 303.256C367.454 303.254 367.25 303.048 367.251 302.794C367.253 302.541 367.458 302.337 367.711 302.337H367.713L370.472 302.355C370.726 302.356 370.931 302.564 370.929 302.818C370.927 303.07 370.722 303.274 370.47 303.274ZM303.332 303.336C303.079 303.336 302.874 303.133 302.872 302.88C302.87 302.626 303.074 302.418 303.328 302.417L306.087 302.397H306.091C306.343 302.397 306.549 302.601 306.55 302.854C306.552 303.108 306.348 303.315 306.094 303.317L303.334 303.337H303.331L303.332 303.336ZM379.665 303.353H379.66L376.902 303.327C376.648 303.324 376.444 303.116 376.446 302.863C376.449 302.61 376.653 302.407 376.906 302.407H376.91L379.669 302.433C379.923 302.435 380.127 302.643 380.124 302.897C380.122 303.15 379.916 303.353 379.665 303.353ZM294.133 303.411C293.88 303.411 293.675 303.208 293.673 302.955C293.671 302.702 293.875 302.494 294.129 302.491L296.889 302.467H296.893C297.145 302.467 297.351 302.67 297.352 302.923C297.355 303.176 297.15 303.385 296.897 303.387L294.137 303.411H294.133ZM388.86 303.461H388.854L386.096 303.425C385.842 303.421 385.639 303.213 385.642 302.96C385.646 302.708 385.85 302.507 386.102 302.507H386.108L388.867 302.542C389.121 302.545 389.324 302.754 389.32 303.008C389.316 303.26 389.111 303.462 388.86 303.462V303.461ZM284.933 303.5C284.682 303.5 284.476 303.297 284.474 303.044C284.471 302.79 284.675 302.583 284.929 302.58L287.689 302.553H287.694C287.945 302.553 288.152 302.756 288.153 303.008C288.156 303.262 287.952 303.47 287.698 303.472L284.938 303.5H284.933ZM275.733 303.605C275.481 303.605 275.277 303.403 275.273 303.151C275.27 302.897 275.474 302.689 275.727 302.685L278.488 302.652H278.494C278.745 302.652 278.95 302.854 278.953 303.107C278.956 303.361 278.752 303.569 278.498 303.572L275.738 303.605H275.733ZM398.056 303.606H398.047L395.289 303.558C395.035 303.553 394.833 303.344 394.837 303.091C394.841 302.84 395.047 302.639 395.297 302.639H395.304L398.064 302.687C398.318 302.692 398.519 302.902 398.515 303.155C398.51 303.406 398.306 303.606 398.056 303.606ZM407.251 303.791H407.239L404.482 303.729C404.228 303.724 404.026 303.513 404.032 303.26C404.038 303.009 404.242 302.81 404.491 302.81H404.501L407.259 302.871C407.513 302.878 407.715 303.087 407.709 303.342C407.704 303.591 407.499 303.791 407.25 303.791H407.251ZM416.443 304.029H416.429L413.672 303.95C413.418 303.943 413.219 303.732 413.225 303.478C413.232 303.224 413.408 303.037 413.697 303.031L416.456 303.108C416.71 303.116 416.91 303.328 416.902 303.581C416.894 303.831 416.69 304.028 416.443 304.028V304.029ZM425.634 304.334H425.617L422.861 304.235C422.607 304.226 422.408 304.013 422.417 303.759C422.426 303.507 422.653 303.319 422.893 303.315L425.652 303.415C425.906 303.425 426.104 303.639 426.094 303.892C426.084 304.139 425.88 304.334 425.635 304.334H425.634ZM434.821 304.736C434.813 304.736 434.806 304.736 434.798 304.736C433.9 304.69 432.983 304.646 432.044 304.603C431.79 304.591 431.594 304.376 431.606 304.123C431.618 303.87 431.837 303.668 432.086 303.685C433.027 303.729 433.946 303.772 434.844 303.818C435.098 303.831 435.293 304.046 435.28 304.3C435.267 304.545 435.064 304.736 434.821 304.736V304.736ZM444.001 305.285C443.99 305.285 443.979 305.285 443.967 305.284C443.083 305.221 442.167 305.158 441.219 305.098C440.966 305.082 440.773 304.863 440.79 304.61C440.805 304.355 441.026 304.163 441.278 304.18C442.228 304.24 443.148 304.302 444.034 304.366C444.288 304.385 444.478 304.605 444.46 304.858C444.443 305.099 444.241 305.284 444.002 305.284L444.001 305.285ZM453.16 306.113C453.143 306.113 453.124 306.112 453.106 306.11C452.254 306.011 451.343 305.912 450.372 305.817C450.119 305.792 449.934 305.566 449.96 305.314C449.985 305.061 450.202 304.891 450.462 304.901C451.439 304.998 452.356 305.096 453.213 305.196C453.465 305.226 453.646 305.454 453.616 305.705C453.588 305.94 453.39 306.112 453.16 306.112V306.113ZM272.157 310.271C272.14 310.271 272.123 310.27 272.106 310.268C271.853 310.241 271.671 310.013 271.699 309.761C271.802 308.825 271.915 307.907 272.035 307.011C272.07 306.76 272.301 306.571 272.553 306.618C272.805 306.652 272.982 306.883 272.947 307.135C272.826 308.024 272.716 308.934 272.613 309.862C272.587 310.098 272.387 310.271 272.157 310.271V310.271ZM455.372 314.758C455.154 314.758 454.96 314.603 454.921 314.382C454.746 313.432 454.575 312.529 454.408 311.675C454.36 311.426 454.523 311.185 454.772 311.136C455.02 311.087 455.263 311.251 455.311 311.5C455.478 312.357 455.65 313.265 455.824 314.217C455.869 314.466 455.704 314.706 455.454 314.752C455.426 314.757 455.399 314.759 455.371 314.759L455.372 314.758ZM271.435 319.437C271.427 319.437 271.419 319.437 271.411 319.436C271.157 319.424 270.962 319.207 270.976 318.953C271.024 318.028 271.078 317.107 271.139 316.194C271.156 315.94 271.375 315.739 271.628 315.765C271.882 315.782 272.073 316.001 272.057 316.255C271.996 317.164 271.942 318.08 271.895 319.002C271.882 319.247 271.679 319.437 271.436 319.437H271.435ZM456.871 323.835C456.646 323.835 456.45 323.671 456.416 323.442C456.279 322.513 456.14 321.604 456.001 320.719C455.961 320.468 456.132 320.233 456.383 320.193C456.631 320.155 456.869 320.325 456.909 320.576C457.05 321.465 457.189 322.377 457.326 323.309C457.363 323.56 457.189 323.794 456.938 323.831C456.915 323.834 456.893 323.836 456.871 323.836V323.835ZM271.134 328.628H271.127C270.873 328.625 270.671 328.416 270.675 328.161C270.688 327.244 270.707 326.321 270.731 325.398C270.737 325.144 270.949 324.958 271.202 324.95C271.456 324.957 271.656 325.168 271.65 325.422C271.627 326.341 271.609 327.261 271.594 328.176C271.59 328.427 271.386 328.628 271.135 328.628H271.134ZM458.037 332.957C457.806 332.957 457.606 332.783 457.581 332.547C457.481 331.623 457.376 330.711 457.268 329.811C457.238 329.559 457.418 329.33 457.669 329.3C457.926 329.265 458.15 329.449 458.181 329.701C458.29 330.604 458.395 331.52 458.495 332.447C458.523 332.7 458.34 332.927 458.087 332.954C458.07 332.955 458.054 332.956 458.037 332.956V332.957ZM271.123 337.823C270.871 337.823 270.666 337.621 270.663 337.369C270.654 336.463 270.646 335.54 270.642 334.608C270.641 334.354 270.845 334.147 271.099 334.146H271.101C271.355 334.146 271.56 334.35 271.561 334.604C271.565 335.534 271.573 336.453 271.583 337.358C271.586 337.612 271.382 337.821 271.129 337.823H271.123ZM458.834 342.121C458.594 342.121 458.391 341.934 458.375 341.691C458.315 340.769 458.25 339.853 458.179 338.944C458.159 338.691 458.348 338.47 458.601 338.45C458.851 338.419 459.076 338.62 459.095 338.872C459.166 339.785 459.234 340.706 459.293 341.631C459.309 341.884 459.116 342.103 458.863 342.119C458.853 342.12 458.843 342.12 458.833 342.12L458.834 342.121ZM271.333 347.016C271.087 347.016 270.883 346.821 270.875 346.571C270.845 345.687 270.816 344.764 270.79 343.812C270.783 343.558 270.983 343.347 271.237 343.34C271.485 343.362 271.702 343.533 271.709 343.787C271.735 344.738 271.763 345.658 271.793 346.542C271.802 346.795 271.603 347.007 271.349 347.016H271.333ZM459.197 351.305C458.946 351.305 458.741 351.103 458.738 350.851C458.726 349.933 458.706 349.016 458.679 348.102C458.672 347.848 458.872 347.637 459.126 347.629C459.366 347.637 459.592 347.821 459.599 348.076C459.626 348.995 459.645 349.917 459.657 350.841C459.661 351.094 459.457 351.303 459.204 351.306H459.198L459.197 351.305ZM273.622 354.576C273.592 354.576 273.562 354.573 273.532 354.567L271.195 354.102L271.14 353.009C271.128 352.756 271.323 352.541 271.577 352.529C271.825 352.478 272.047 352.712 272.059 352.966L272.077 353.341L273.712 353.666C273.96 353.715 274.123 353.958 274.073 354.206C274.029 354.425 273.837 354.576 273.622 354.576H273.622ZM282.641 356.368C282.611 356.368 282.581 356.365 282.551 356.359L279.845 355.821C279.596 355.772 279.434 355.53 279.484 355.28C279.534 355.033 279.775 354.864 280.026 354.919L282.731 355.457C282.98 355.507 283.142 355.748 283.092 355.997C283.048 356.216 282.857 356.367 282.642 356.367L282.641 356.368ZM454.77 356.845C454.553 356.845 454.361 356.691 454.319 356.471C454.272 356.221 454.435 355.98 454.685 355.934L457.396 355.421C457.648 355.376 457.886 355.537 457.933 355.787C457.98 356.036 457.816 356.277 457.566 356.324L454.856 356.837C454.827 356.843 454.798 356.845 454.77 356.845ZM291.659 358.16C291.63 358.16 291.6 358.158 291.569 358.151L288.864 357.613C288.614 357.564 288.453 357.322 288.503 357.073C288.553 356.824 288.791 356.66 289.043 356.712L291.749 357.25C291.997 357.3 292.16 357.541 292.11 357.79C292.066 358.009 291.874 358.16 291.659 358.16ZM445.735 358.553C445.518 358.553 445.325 358.399 445.283 358.179C445.236 357.929 445.4 357.689 445.65 357.642L448.36 357.129C448.612 357.088 448.851 357.246 448.897 357.495C448.944 357.745 448.781 357.985 448.531 358.032L445.82 358.545C445.791 358.551 445.763 358.553 445.735 358.553ZM300.678 359.953C300.648 359.953 300.618 359.951 300.589 359.944L297.883 359.406C297.634 359.357 297.472 359.115 297.522 358.866C297.571 358.617 297.812 358.454 298.062 358.505L300.768 359.043C301.016 359.093 301.179 359.335 301.129 359.583C301.085 359.802 300.894 359.953 300.679 359.953H300.678ZM436.699 360.263C436.482 360.263 436.29 360.109 436.248 359.888C436.201 359.639 436.364 359.398 436.614 359.351L439.325 358.839C439.576 358.792 439.814 358.955 439.862 359.205C439.909 359.455 439.746 359.695 439.496 359.742L436.785 360.255C436.756 360.26 436.728 360.263 436.699 360.263ZM309.698 361.745C309.668 361.745 309.638 361.743 309.607 361.736L306.901 361.199C306.652 361.149 306.49 360.907 306.54 360.658C306.59 360.41 306.828 360.248 307.081 360.298L309.787 360.835C310.035 360.885 310.197 361.127 310.147 361.376C310.104 361.594 309.912 361.745 309.697 361.745H309.698ZM427.664 361.972C427.447 361.972 427.255 361.818 427.213 361.597C427.166 361.348 427.329 361.107 427.579 361.06L430.29 360.548C430.54 360.505 430.779 360.664 430.827 360.914C430.874 361.164 430.71 361.404 430.46 361.451L427.75 361.964C427.721 361.969 427.692 361.972 427.664 361.972ZM318.717 363.537C318.687 363.537 318.657 363.535 318.627 363.529L315.921 362.992C315.672 362.942 315.51 362.701 315.56 362.451C315.609 362.203 315.853 362.036 316.1 362.091L318.806 362.628C319.055 362.677 319.217 362.918 319.167 363.168C319.124 363.386 318.932 363.537 318.717 363.537ZM418.629 363.681C418.412 363.681 418.219 363.528 418.177 363.307C418.13 363.057 418.294 362.817 418.544 362.77L421.254 362.257C421.504 362.209 421.744 362.374 421.79 362.624C421.838 362.873 421.674 363.114 421.424 363.161L418.713 363.673C418.684 363.679 418.656 363.681 418.628 363.681H418.629ZM327.735 365.33C327.705 365.33 327.675 365.328 327.645 365.322L324.939 364.784C324.69 364.734 324.528 364.493 324.578 364.243C324.628 363.994 324.865 363.829 325.118 363.882L327.824 364.42C328.073 364.469 328.235 364.712 328.185 364.961C328.141 365.179 327.949 365.33 327.734 365.33H327.735ZM409.593 365.389C409.376 365.389 409.184 365.236 409.142 365.015C409.095 364.766 409.258 364.525 409.508 364.478L412.219 363.965C412.469 363.921 412.708 364.082 412.756 364.332C412.803 364.581 412.639 364.822 412.389 364.869L409.679 365.381C409.65 365.387 409.621 365.389 409.593 365.389ZM400.558 367.099C400.341 367.099 400.148 366.946 400.106 366.725C400.059 366.475 400.223 366.235 400.473 366.188L403.183 365.675C403.433 365.632 403.673 365.791 403.721 366.041C403.767 366.291 403.604 366.531 403.354 366.578L400.643 367.091C400.614 367.097 400.586 367.099 400.558 367.099ZM336.754 367.123C336.724 367.123 336.694 367.12 336.664 367.114L333.958 366.576C333.709 366.527 333.547 366.285 333.597 366.035C333.647 365.787 333.887 365.622 334.138 365.674L336.843 366.212C337.092 366.261 337.254 366.502 337.204 366.752C337.16 366.971 336.969 367.122 336.754 367.122L336.754 367.123ZM391.522 368.808C391.306 368.808 391.113 368.654 391.071 368.434C391.024 368.185 391.187 367.944 391.437 367.897L394.148 367.384C394.396 367.336 394.637 367.5 394.685 367.75C394.732 367.999 394.569 368.24 394.319 368.287L391.608 368.8C391.579 368.806 391.551 368.808 391.522 368.808ZM345.774 368.916C345.744 368.916 345.714 368.913 345.683 368.907L342.977 368.369C342.728 368.32 342.566 368.077 342.616 367.828C342.666 367.58 342.904 367.418 343.157 367.467L345.863 368.005C346.111 368.054 346.273 368.295 346.223 368.545C346.18 368.764 345.988 368.915 345.773 368.915L345.774 368.916ZM382.487 370.518C382.27 370.518 382.078 370.364 382.036 370.143C381.989 369.894 382.152 369.653 382.402 369.606L385.113 369.094C385.364 369.048 385.603 369.21 385.65 369.46C385.697 369.71 385.533 369.95 385.283 369.997L382.573 370.51C382.544 370.515 382.515 370.518 382.487 370.518ZM366.873 370.708H364.114C363.86 370.708 363.655 370.502 363.655 370.248C363.655 369.995 363.86 369.789 364.114 369.789H366.873C367.127 369.789 367.332 369.995 367.332 370.248C367.332 370.502 367.127 370.708 366.873 370.708ZM376.068 370.708H373.31C373.056 370.708 372.851 370.502 372.851 370.248C372.851 369.995 373.056 369.789 373.31 369.789H376.068C376.322 369.789 376.528 369.995 376.528 370.248C376.528 370.502 376.322 370.708 376.068 370.708ZM354.792 370.708C354.763 370.708 354.732 370.705 354.702 370.699L351.996 370.161C351.747 370.112 351.585 369.87 351.636 369.62C351.685 369.373 351.924 369.204 352.176 369.259L354.857 369.793C354.878 369.791 354.899 369.788 354.919 369.788H357.678C357.932 369.788 358.138 369.994 358.138 370.248C358.138 370.502 357.932 370.707 357.678 370.707H354.919C354.897 370.707 354.876 370.705 354.856 370.702C354.836 370.705 354.815 370.707 354.793 370.707L354.792 370.708Z" fill="#9EE9BC"/>
<path fill-rule="evenodd" clip-rule="evenodd" d="M381.586 352.563H352.125C348.322 352.563 345.372 355.87 345.824 359.628L348.657 383.222C349.038 386.398 351.745 388.788 354.959 388.788H379.482C382.769 388.788 385.512 386.289 385.803 383.031L387.907 359.436C388.237 355.743 385.312 352.563 381.586 352.563Z" fill="#F2F2F2"/>
<path d="M385.206 73.2634C384.462 73.2634 383.822 72.7013 383.741 71.9443C383.654 71.1339 384.241 70.4069 385.052 70.3195C386.712 70.1424 388.401 70.0349 390.074 70.0001C390.084 69.9993 390.095 69.9993 390.105 69.9993C390.906 69.9993 391.564 70.6398 391.58 71.4437C391.597 72.2589 390.95 72.9334 390.135 72.9496C388.546 72.9828 386.942 73.0855 385.364 73.2537C385.312 73.2593 385.258 73.2618 385.206 73.2618V73.2634ZM402.915 74.1029C402.818 74.1029 402.719 74.094 402.62 74.0738C401.065 73.7575 399.475 73.5044 397.896 73.32C397.087 73.2254 396.507 72.4926 396.601 71.6831C396.695 70.8743 397.427 70.2896 398.237 70.3883C399.899 70.5816 401.57 70.8476 403.207 71.1809C404.005 71.3434 404.521 72.1222 404.359 72.9213C404.216 73.62 403.601 74.1029 402.914 74.1029H402.915ZM372.662 76.0576C372.05 76.0576 371.478 75.6735 371.267 75.0629C371.001 74.2921 371.411 73.4526 372.181 73.1866C373.76 72.6415 375.382 72.1594 377.003 71.7518C377.794 71.5569 378.595 72.0325 378.794 72.8234C378.993 73.6136 378.513 74.4159 377.723 74.6148C376.184 75.0006 374.643 75.4592 373.143 75.9759C372.984 76.0309 372.821 76.0568 372.662 76.0568V76.0576ZM415.145 78.0674C414.941 78.0674 414.734 78.0245 414.536 77.9347C413.092 77.2788 411.6 76.6771 410.101 76.1466C409.333 75.874 408.931 75.0313 409.203 74.263C409.475 73.4947 410.319 73.0919 411.087 73.3645C412.665 73.9233 414.236 74.5566 415.757 75.2473C416.5 75.5845 416.827 76.4596 416.49 77.2012C416.243 77.7455 415.706 78.0674 415.145 78.0674ZM361.062 81.5806C360.568 81.5806 360.086 81.3339 359.807 80.8843C359.377 80.192 359.589 79.2821 360.281 78.8519C361.7 77.9703 363.175 77.1373 364.663 76.3795C365.389 76.0091 366.278 76.2986 366.648 77.0249C367.018 77.7503 366.729 78.6392 366.003 79.0096C364.589 79.731 363.188 80.5211 361.84 81.359C361.597 81.5102 361.328 81.5814 361.062 81.5814V81.5806ZM350.967 89.5419C350.586 89.5419 350.205 89.3956 349.917 89.1036C349.343 88.5237 349.349 87.5888 349.93 87.017C351.116 85.8451 352.369 84.7072 353.655 83.6364C354.282 83.114 355.212 83.1981 355.734 83.8249C356.256 84.4509 356.172 85.3817 355.546 85.9034C354.324 86.9216 353.132 88.0029 352.004 89.1165C351.717 89.4004 351.342 89.5428 350.967 89.5428L350.967 89.5419ZM342.882 99.5414C342.61 99.5414 342.336 99.4661 342.09 99.3101C341.403 98.8717 341.201 97.9594 341.639 97.2728C342.539 95.8632 343.509 94.4761 344.525 93.149C345.02 92.5028 345.947 92.379 346.595 92.874C347.242 93.369 347.365 94.295 346.87 94.9428C345.905 96.2028 344.982 97.5203 344.128 98.8604C343.847 99.3012 343.37 99.5422 342.883 99.5422L342.882 99.5414ZM337.232 111.09C337.067 111.09 336.9 111.063 336.737 111.005C335.969 110.731 335.568 109.887 335.842 109.119C336.402 107.546 337.038 105.977 337.733 104.456C338.072 103.715 338.947 103.389 339.689 103.726C340.43 104.064 340.758 104.94 340.419 105.681C339.759 107.126 339.155 108.615 338.624 110.109C338.409 110.713 337.84 111.09 337.233 111.09H337.232ZM334.307 123.605C334.249 123.605 334.191 123.602 334.133 123.595C333.323 123.5 332.745 122.765 332.84 121.956C333.037 120.294 333.307 118.623 333.643 116.992C333.807 116.194 334.583 115.681 335.386 115.843C336.184 116.007 336.698 116.787 336.534 117.585C336.216 119.137 335.959 120.723 335.772 122.304C335.683 123.054 335.046 123.606 334.308 123.606L334.307 123.605ZM334.212 136.461C333.466 136.461 332.826 135.897 332.746 135.139C332.572 133.481 332.468 131.791 332.436 130.115C332.421 129.3 333.069 128.627 333.884 128.612H333.913C334.715 128.612 335.373 129.254 335.387 130.059C335.417 131.65 335.517 133.256 335.682 134.83C335.767 135.641 335.179 136.367 334.367 136.452C334.315 136.458 334.263 136.46 334.212 136.46V136.461Z" fill="#189599"/>
<path d="M424.155 83.1901C423.865 83.1901 423.571 83.1044 423.314 82.9265C422.689 82.4914 422.045 82.0635 421.399 81.6519C420.712 81.2143 420.508 80.3021 420.947 79.6146C421.384 78.9272 422.298 78.7234 422.984 79.1625C423.664 79.5944 424.341 80.0457 424.999 80.5026C425.668 80.9677 425.834 81.888 425.369 82.5569C425.082 82.9693 424.622 83.1901 424.156 83.1901H424.155Z" fill="#189599"/>
<path d="M448.132 121.261C447.42 121.261 446.794 120.744 446.676 120.019C446.556 119.268 446.418 118.507 446.265 117.757C446.104 116.958 446.62 116.179 447.419 116.017C448.221 115.855 448.997 116.371 449.159 117.17C449.319 117.96 449.465 118.762 449.592 119.553C449.721 120.358 449.173 121.115 448.368 121.243C448.288 121.256 448.21 121.262 448.132 121.262V121.261Z" fill="#189599"/>
<path d="M448.749 133.897C448.719 133.897 448.688 133.896 448.657 133.894C447.844 133.844 447.224 133.145 447.274 132.331C447.344 131.183 447.38 130.019 447.38 128.871C447.38 128.455 447.375 128.04 447.366 127.627C447.348 126.812 447.995 126.137 448.81 126.119C449.635 126.085 450.3 126.748 450.318 127.562C450.328 127.997 450.332 128.433 450.332 128.871C450.332 130.078 450.295 131.303 450.222 132.511C450.174 133.294 449.524 133.896 448.75 133.896L448.749 133.897ZM446.606 146.362C446.471 146.362 446.333 146.344 446.197 146.304C445.414 146.079 444.961 145.261 445.187 144.478C445.618 142.979 445.992 141.442 446.296 139.909C446.455 139.109 447.234 138.592 448.031 138.75C448.831 138.908 449.35 139.685 449.191 140.484C448.871 142.099 448.478 143.716 448.023 145.294C447.837 145.941 447.247 146.362 446.605 146.362H446.606ZM441.774 158.059C441.533 158.059 441.289 158 441.063 157.877C440.349 157.484 440.089 156.587 440.481 155.873C441.234 154.503 441.938 153.086 442.571 151.66C442.902 150.915 443.775 150.579 444.519 150.91C445.265 151.241 445.6 152.113 445.269 152.858C444.601 154.36 443.861 155.853 443.068 157.295C442.798 157.784 442.294 158.06 441.773 158.06L441.774 158.059ZM434.493 168.407C434.146 168.407 433.798 168.285 433.517 168.037C432.906 167.497 432.847 166.565 433.387 165.954C434.422 164.782 435.42 163.552 436.351 162.3C436.837 161.647 437.761 161.51 438.416 161.997C439.069 162.484 439.206 163.408 438.719 164.062C437.74 165.379 436.69 166.673 435.6 167.908C435.308 168.238 434.901 168.407 434.493 168.407H434.493ZM425.134 176.916C424.678 176.916 424.228 176.705 423.938 176.308C423.459 175.648 423.605 174.725 424.265 174.246C425.529 173.328 426.77 172.345 427.953 171.326C428.569 170.793 429.501 170.861 430.034 171.48C430.566 172.097 430.498 173.029 429.88 173.561C428.636 174.634 427.331 175.668 426 176.635C425.738 176.825 425.435 176.917 425.134 176.917V176.916ZM414.146 183.18C413.575 183.18 413.032 182.847 412.791 182.29C412.467 181.541 412.812 180.673 413.56 180.349C414.991 179.731 416.415 179.043 417.794 178.304C418.512 177.919 419.407 178.188 419.792 178.907C420.177 179.626 419.907 180.52 419.188 180.905C417.737 181.683 416.237 182.408 414.731 183.059C414.54 183.141 414.341 183.18 414.146 183.18ZM369.476 183.548C369.289 183.548 369.099 183.512 368.915 183.436C367.393 182.81 365.88 182.111 364.419 181.359C363.694 180.986 363.409 180.096 363.782 179.372C364.155 178.646 365.044 178.361 365.77 178.734C367.158 179.448 368.594 180.112 370.039 180.708C370.793 181.017 371.152 181.88 370.841 182.634C370.607 183.203 370.057 183.548 369.476 183.548ZM402.055 186.88C401.359 186.88 400.74 186.386 400.606 185.678C400.456 184.877 400.982 184.105 401.784 183.955C403.317 183.667 404.857 183.309 406.364 182.89C407.15 182.674 407.963 183.132 408.181 183.918C408.398 184.703 407.939 185.516 407.154 185.735C405.566 186.176 403.944 186.552 402.33 186.856C402.238 186.873 402.146 186.881 402.055 186.881V186.88ZM381.641 187.04C381.558 187.04 381.474 187.033 381.39 187.019C379.768 186.742 378.138 186.392 376.547 185.981C375.759 185.776 375.284 184.971 375.488 184.183C375.693 183.393 376.5 182.917 377.287 183.123C378.798 183.515 380.346 183.846 381.888 184.11C382.692 184.248 383.232 185.01 383.095 185.812C382.972 186.531 382.348 187.04 381.642 187.04H381.641ZM391.437 187.868C390.759 187.868 390.077 187.857 389.393 187.834C388.578 187.806 387.94 187.123 387.967 186.309C387.995 185.495 388.682 184.853 389.492 184.883C391.071 184.937 392.648 184.925 394.198 184.849C395.013 184.81 395.705 185.436 395.745 186.25C395.785 187.064 395.157 187.757 394.343 187.796C393.384 187.844 392.407 187.868 391.438 187.868L391.437 187.868Z" fill="#189599"/>
<path d="M358.35 177.443C358.057 177.443 357.761 177.357 357.503 177.175C356.849 176.716 356.192 176.234 355.552 175.743C354.904 175.247 354.782 174.32 355.278 173.674C355.774 173.027 356.699 172.904 357.347 173.401C357.956 173.867 358.58 174.324 359.201 174.761C359.867 175.229 360.028 176.149 359.56 176.817C359.273 177.225 358.815 177.443 358.351 177.443H358.35Z" fill="#189599"/>
<path fill-rule="evenodd" clip-rule="evenodd" d="M390.167 84.3805L386.647 91.9949C382.646 92.5149 378.823 93.686 375.3 95.4062L368.161 90.988C367.911 90.8327 367.59 90.8538 367.362 91.0398L359.56 97.4055C359.332 97.5915 359.247 97.902 359.348 98.1778L362.246 106.057C359.853 109.162 357.939 112.672 356.627 116.487L348.46 118.409C348.174 118.476 347.962 118.718 347.932 119.01L346.917 129.028C346.887 129.32 347.046 129.599 347.314 129.723L354.929 133.243C355.45 137.244 356.621 141.066 358.341 144.588L353.922 151.726C353.767 151.977 353.788 152.297 353.974 152.525L360.341 160.326C360.527 160.554 360.838 160.639 361.114 160.537L368.994 157.64C372.1 160.032 375.611 161.946 379.426 163.258L381.348 171.424C381.415 171.71 381.657 171.922 381.95 171.952L391.97 172.967C392.263 172.996 392.542 172.837 392.665 172.571L396.186 164.956C400.188 164.436 404.011 163.265 407.534 161.544L414.672 165.963C414.922 166.117 415.243 166.096 415.471 165.91L423.274 159.544C423.502 159.358 423.587 159.048 423.485 158.772L420.588 150.893C422.98 147.787 424.894 144.277 426.205 140.463L434.373 138.541C434.659 138.473 434.871 138.232 434.901 137.939L435.916 127.921C435.946 127.629 435.787 127.349 435.519 127.226L427.903 123.706C427.383 119.705 426.212 115.883 424.491 112.361L428.91 105.223C429.064 104.972 429.043 104.652 428.857 104.424L422.49 96.6226C422.304 96.3945 421.994 96.3096 421.718 96.4115L413.837 99.3085C410.731 96.9162 407.221 95.0027 403.405 93.6917L401.483 85.5257C401.415 85.2394 401.174 85.0275 400.881 84.9976L390.862 83.9826C390.838 83.9802 390.815 83.9794 390.791 83.9794C390.525 83.9794 390.279 84.1338 390.166 84.3797L390.167 84.3805Z" fill="#189599"/>
<path d="M391.433 120.714C391.052 120.714 390.669 120.741 390.286 120.798C386.052 121.421 383.115 125.374 383.738 129.606C384.363 133.839 388.314 136.777 392.549 136.152C396.783 135.528 399.72 131.576 399.096 127.344C398.794 125.293 397.711 123.483 396.047 122.246C394.694 121.242 393.088 120.714 391.433 120.714ZM391.411 138.597C386.477 138.597 382.143 134.974 381.402 129.951C380.589 124.43 384.419 119.276 389.941 118.462C392.617 118.067 395.285 118.739 397.455 120.351C399.625 121.963 401.038 124.325 401.431 126.999C402.245 132.521 398.415 137.674 392.893 138.488C392.395 138.562 391.899 138.598 391.41 138.598L391.411 138.597Z" fill="white"/>
<path d="M391.617 153.215C390.769 153.215 389.918 153.173 389.063 153.086C388.793 153.059 388.525 153.027 388.257 152.991C386.935 152.814 385.63 152.532 384.36 152.15C384.343 152.144 384.326 152.139 384.309 152.134C384.259 152.119 384.211 152.105 384.161 152.089C384.066 152.06 383.971 152.029 383.876 151.999C383.627 151.918 383.467 151.686 383.467 151.437C383.467 151.377 383.477 151.315 383.497 151.255C383.597 150.944 383.93 150.776 384.24 150.875C385.836 151.392 387.499 151.741 389.182 151.91C397.541 152.759 405.339 149.134 410.197 142.984C412.898 139.564 414.69 135.363 415.161 130.715C415.243 129.899 415.285 129.086 415.285 128.278C415.284 122.839 413.427 117.609 409.942 113.338C405.938 108.432 400.263 105.378 393.962 104.74C380.949 103.423 369.3 112.932 367.984 125.936C367.903 126.737 367.862 127.54 367.862 128.341C367.863 131.811 368.623 135.241 370.1 138.385C370.138 138.466 370.155 138.551 370.155 138.636C370.155 138.857 370.03 139.07 369.816 139.17C369.52 139.308 369.169 139.183 369.03 138.886C367.48 135.586 366.682 131.984 366.681 128.342C366.681 127.502 366.723 126.659 366.808 125.817C368.191 112.164 380.43 102.183 394.081 103.565C400.696 104.235 406.654 107.44 410.857 112.591C414.516 117.074 416.465 122.565 416.466 128.275C416.466 129.123 416.423 129.977 416.336 130.833C415.666 137.447 412.46 143.403 407.309 147.606C402.824 151.266 397.33 153.213 391.618 153.213L391.617 153.215Z" fill="white"/>
<path d="M283.846 175.35C283.452 175.35 283.088 175.092 282.972 174.695C282.753 173.952 282.555 173.193 282.382 172.438C282.27 171.947 282.575 171.459 283.066 171.346C283.557 171.231 284.046 171.54 284.158 172.03C284.323 172.749 284.513 173.473 284.721 174.181C284.862 174.663 284.585 175.169 284.103 175.312C284.017 175.337 283.93 175.349 283.845 175.349L283.846 175.35Z" fill="#189599"/>
<path d="M327.506 126.661C327.454 126.661 327.4 126.656 327.346 126.647C326.037 126.415 324.694 126.25 323.35 126.157C323.146 126.142 322.947 126.13 322.748 126.12C322.244 126.093 321.859 125.665 321.884 125.163C321.91 124.659 322.342 124.258 322.841 124.299C323.054 124.31 323.267 124.323 323.48 124.339C324.883 124.436 326.292 124.609 327.664 124.853C328.16 124.941 328.49 125.414 328.402 125.909C328.323 126.351 327.939 126.661 327.505 126.661H327.506ZM313.353 126.777C312.926 126.777 312.544 126.475 312.459 126.041C312.362 125.547 312.685 125.068 313.179 124.971C314.757 124.662 316.376 124.448 317.99 124.335C318.494 124.309 318.928 124.68 318.963 125.181C318.997 125.683 318.619 126.119 318.117 126.154C316.577 126.261 315.033 126.465 313.529 126.759C313.47 126.77 313.41 126.776 313.353 126.776V126.777ZM304.367 129.727C304.026 129.727 303.698 129.534 303.542 129.205C303.327 128.749 303.522 128.207 303.977 127.992C305.436 127.303 306.952 126.698 308.483 126.196C308.963 126.04 309.476 126.3 309.634 126.778C309.791 127.256 309.53 127.772 309.051 127.929C307.592 128.407 306.147 128.983 304.756 129.64C304.631 129.7 304.498 129.727 304.367 129.727ZM296.373 134.786C296.11 134.786 295.848 134.672 295.668 134.452C295.349 134.063 295.406 133.489 295.795 133.169C297.043 132.146 298.366 131.19 299.727 130.329C300.153 130.059 300.716 130.186 300.985 130.611C301.254 131.037 301.127 131.6 300.703 131.869C299.404 132.691 298.142 133.603 296.952 134.579C296.782 134.718 296.577 134.785 296.374 134.785L296.373 134.786ZM289.844 141.638C289.656 141.638 289.465 141.579 289.302 141.459C288.898 141.159 288.813 140.588 289.113 140.184C290.075 138.886 291.127 137.638 292.238 136.471C292.586 136.107 293.164 136.095 293.527 136.441C293.892 136.788 293.906 137.365 293.558 137.73C292.498 138.841 291.494 140.032 290.577 141.27C290.398 141.511 290.123 141.638 289.844 141.638ZM285.186 149.877C285.07 149.877 284.953 149.855 284.839 149.808C284.373 149.617 284.151 149.084 284.343 148.619C284.957 147.127 285.671 145.658 286.466 144.253C286.714 143.815 287.269 143.66 287.709 143.909C288.147 144.156 288.301 144.713 288.054 145.15C287.296 146.49 286.615 147.891 286.029 149.313C285.884 149.665 285.544 149.877 285.186 149.877ZM282.697 159.007C282.654 159.007 282.609 159.005 282.566 158.998C282.067 158.926 281.721 158.465 281.793 157.966C282.023 156.367 282.354 154.769 282.777 153.215C282.909 152.729 283.413 152.444 283.896 152.575C284.382 152.708 284.669 153.208 284.536 153.694C284.132 155.176 283.817 156.701 283.597 158.225C283.531 158.679 283.142 159.006 282.696 159.006L282.697 159.007ZM282.496 168.469C282.034 168.469 281.638 168.119 281.59 167.65C281.454 166.324 281.386 164.977 281.386 163.645C281.386 163.365 281.389 163.083 281.395 162.802C281.406 162.298 281.85 161.918 282.326 161.909C282.829 161.92 283.229 162.336 283.218 162.839C283.213 163.108 283.209 163.378 283.209 163.645C283.209 164.915 283.275 166.2 283.404 167.464C283.455 167.966 283.091 168.412 282.59 168.464C282.558 168.466 282.528 168.469 282.496 168.469Z" fill="#189599"/>
<path d="M352.797 185.804C352.623 185.804 352.449 185.754 352.293 185.651C351.874 185.373 351.76 184.806 352.039 184.387C352.88 183.126 353.65 181.801 354.328 180.45C354.554 180.002 355.102 179.82 355.552 180.045C356.001 180.271 356.183 180.818 355.957 181.269C355.246 182.684 354.439 184.074 353.557 185.397C353.381 185.66 353.092 185.803 352.797 185.803L352.797 185.804ZM346.74 192.874C346.494 192.874 346.248 192.775 346.068 192.579C345.728 192.208 345.753 191.631 346.124 191.292C347.242 190.267 348.308 189.166 349.291 188.02C349.619 187.638 350.194 187.594 350.576 187.922C350.959 188.249 351.002 188.824 350.675 189.206C349.644 190.409 348.527 191.563 347.356 192.637C347.181 192.797 346.96 192.876 346.74 192.876V192.874ZM339.169 198.287C338.846 198.287 338.533 198.116 338.368 197.813C338.126 197.37 338.289 196.816 338.731 196.575C340.06 195.851 341.356 195.037 342.587 194.156C342.997 193.863 343.566 193.958 343.859 194.367C344.152 194.777 344.057 195.347 343.648 195.64C342.357 196.562 340.997 197.416 339.605 198.177C339.466 198.253 339.316 198.288 339.169 198.288V198.287ZM307.565 200.65C307.462 200.65 307.357 200.632 307.253 200.595C305.762 200.051 304.288 199.409 302.875 198.688C302.426 198.459 302.248 197.91 302.477 197.462C302.706 197.014 303.256 196.837 303.704 197.065C305.051 197.752 306.456 198.364 307.878 198.883C308.351 199.055 308.595 199.578 308.422 200.051C308.287 200.421 307.937 200.65 307.565 200.65ZM330.521 201.726C330.117 201.726 329.748 201.456 329.639 201.046C329.512 200.56 329.802 200.062 330.29 199.933C331.756 199.548 333.211 199.07 334.615 198.511C335.085 198.326 335.613 198.554 335.798 199.022C335.984 199.489 335.755 200.02 335.288 200.206C333.817 200.791 332.29 201.292 330.753 201.696C330.676 201.716 330.597 201.725 330.521 201.725V201.726ZM316.638 202.753C316.605 202.753 316.572 202.751 316.539 202.747C314.961 202.578 313.377 202.311 311.832 201.954C311.341 201.84 311.036 201.351 311.15 200.861C311.263 200.369 311.755 200.066 312.242 200.178C313.717 200.518 315.228 200.773 316.734 200.935C317.235 200.988 317.597 201.438 317.543 201.938C317.493 202.406 317.097 202.753 316.638 202.753ZM321.296 202.973C320.799 202.973 320.392 202.572 320.385 202.073C320.378 201.57 320.781 201.156 321.284 201.15C322.8 201.13 324.327 201.019 325.824 200.816C326.32 200.754 326.782 201.099 326.849 201.598C326.917 202.097 326.566 202.555 326.068 202.623C324.499 202.834 322.897 202.952 321.309 202.973H321.296Z" fill="#189599"/>
<path d="M299.234 196.393C299.058 196.393 298.88 196.342 298.724 196.237C298.078 195.799 297.442 195.341 296.833 194.875C296.433 194.569 296.357 193.996 296.664 193.597C296.97 193.199 297.542 193.122 297.942 193.428C298.523 193.873 299.129 194.31 299.746 194.727C300.163 195.01 300.272 195.577 299.99 195.993C299.814 196.253 299.527 196.393 299.235 196.393H299.234Z" fill="#189599"/>
<path fill-rule="evenodd" clip-rule="evenodd" d="M319.95 133.799L317.593 138.895C314.916 139.243 312.358 140.027 310 141.178L305.224 138.221C305.056 138.117 304.841 138.131 304.689 138.255L299.467 142.515C299.315 142.64 299.258 142.847 299.326 143.032L301.265 148.304C299.664 150.383 298.383 152.731 297.505 155.284L292.04 156.57C291.848 156.615 291.706 156.777 291.687 156.972L291.008 163.675C290.988 163.871 291.095 164.058 291.273 164.14L296.37 166.496C296.718 169.173 297.502 171.731 298.653 174.088L295.696 178.865C295.592 179.032 295.606 179.246 295.73 179.399L299.991 184.62C300.115 184.772 300.322 184.829 300.508 184.761L305.781 182.823C307.859 184.423 310.208 185.704 312.762 186.582L314.048 192.046C314.093 192.237 314.255 192.38 314.451 192.399L321.156 193.078C321.351 193.098 321.538 192.992 321.621 192.813L323.977 187.717C326.655 187.369 329.212 186.586 331.57 185.435L336.347 188.392C336.514 188.495 336.729 188.481 336.881 188.357L342.103 184.097C342.256 183.973 342.312 183.765 342.244 183.58L340.305 178.308C341.906 176.23 343.188 173.881 344.065 171.329L349.53 170.043C349.722 169.997 349.864 169.836 349.884 169.64L350.562 162.936C350.583 162.74 350.476 162.554 350.297 162.47L345.201 160.115C344.853 157.438 344.069 154.88 342.917 152.523L345.875 147.747C345.978 147.58 345.965 147.365 345.84 147.212L341.579 141.992C341.455 141.839 341.248 141.782 341.063 141.85L335.789 143.789C333.711 142.188 331.361 140.907 328.809 140.03L327.522 134.565C327.477 134.373 327.315 134.231 327.12 134.212L320.415 133.533C320.399 133.532 320.383 133.531 320.368 133.531C320.19 133.531 320.025 133.634 319.95 133.798V133.799Z" fill="#189599"/>
<path d="M320.788 158.234C320.543 158.234 320.295 158.252 320.046 158.288C317.279 158.697 315.36 161.279 315.768 164.045C315.965 165.384 316.673 166.568 317.76 167.375C318.848 168.183 320.184 168.518 321.525 168.322C322.866 168.124 324.049 167.417 324.857 166.331C325.665 165.243 326.002 163.906 325.804 162.566C325.433 160.05 323.261 158.234 320.788 158.234ZM320.771 170.201C319.301 170.201 317.875 169.732 316.673 168.839C315.195 167.741 314.232 166.132 313.965 164.31C313.41 160.551 316.018 157.04 319.781 156.485C323.548 155.936 327.054 158.54 327.608 162.301C327.877 164.123 327.42 165.94 326.321 167.417C325.223 168.896 323.614 169.858 321.791 170.126C321.451 170.176 321.11 170.2 320.772 170.2L320.771 170.201Z" fill="white"/>
<path d="M320.902 180.376C320.325 180.376 319.743 180.347 319.158 180.288C317.994 180.171 316.843 179.934 315.73 179.586C315.679 179.57 315.63 179.554 315.58 179.538C315.194 179.414 314.949 179.056 314.949 178.672C314.949 178.578 314.964 178.484 314.994 178.39C315.149 177.911 315.664 177.651 316.142 177.804C317.177 178.14 318.253 178.365 319.34 178.475C319.4 178.481 319.46 178.486 319.52 178.492C322.095 178.728 324.631 178.312 326.944 177.316C328.2 176.775 329.39 176.061 330.485 175.184C330.494 175.177 330.502 175.169 330.511 175.163C330.538 175.14 330.566 175.119 330.592 175.096C333.769 172.504 335.746 168.831 336.158 164.753C336.212 164.225 336.238 163.7 336.238 163.176C336.238 159.655 335.036 156.27 332.78 153.504C330.187 150.328 326.513 148.352 322.435 147.939C318.358 147.528 314.36 148.726 311.183 151.317C308.006 153.909 306.029 157.582 305.616 161.661C305.563 162.179 305.537 162.699 305.537 163.218C305.537 165.464 306.03 167.685 306.985 169.72C307.044 169.845 307.072 169.977 307.072 170.107C307.072 170.449 306.879 170.778 306.548 170.932C306.092 171.145 305.55 170.951 305.334 170.494C304.265 168.217 303.714 165.732 303.713 163.219C303.713 162.639 303.743 162.058 303.802 161.477C304.264 156.914 306.476 152.805 310.03 149.905C313.584 147.006 318.052 145.66 322.617 146.125C327.181 146.587 331.291 148.798 334.191 152.352C336.716 155.445 338.06 159.233 338.061 163.172C338.061 163.757 338.032 164.347 337.972 164.936C337.076 173.77 329.596 180.376 320.9 180.376H320.902Z" fill="white"/>
<path fill-rule="evenodd" clip-rule="evenodd" d="M119.903 410.215C114.515 414.654 114.05 422.742 118.896 427.768L119.691 428.593C123.978 433.04 131.066 433.147 135.486 428.833L255.231 311.933L248.374 304.367L119.903 410.215Z" fill="#7C7C7C"/>
<path fill-rule="evenodd" clip-rule="evenodd" d="M276.577 168.572C231.84 184.404 208.178 232.844 223.726 276.765C239.275 320.688 288.146 343.46 332.883 327.629C377.62 311.797 401.283 263.358 385.734 219.435C373.537 184.982 340.834 163.543 305.708 163.541C296.055 163.541 286.222 165.159 276.577 168.572ZM235.625 272.554C222.361 235.085 242.547 193.76 280.712 180.255C318.878 166.749 360.57 186.176 373.835 223.646C387.099 261.116 366.913 302.44 328.748 315.946C320.522 318.857 312.129 320.238 303.896 320.238C273.927 320.24 246.032 301.949 235.626 272.554H235.625Z" fill="#757575"/>
<defs>
<filter id="filter0_d_17_127" x="3.8147e-06" y="111.089" width="366.204" height="296.407" filterUnits="userSpaceOnUse" color-interpolation-filters="sRGB">
<feFlood flood-opacity="0" result="BackgroundImageFix"/>
<feColorMatrix in="SourceAlpha" type="matrix" values="0 0 0 0 0 0 0 0 0 0 0 0 0 0 0 0 0 0 127 0" result="hardAlpha"/>
<feOffset/>
<feGaussianBlur stdDeviation="15"/>
<feComposite in2="hardAlpha" operator="out"/>
<feColorMatrix type="matrix" values="0 0 0 0 0 0 0 0 0 0 0 0 0 0 0 0 0 0 0.1 0"/>
<feBlend mode="normal" in2="BackgroundImageFix" result="effect1_dropShadow_17_127"/>
<feBlend mode="normal" in="SourceGraphic" in2="effect1_dropShadow_17_127" result="shape"/>
</filter>
<filter id="filter1_d_17_127" x="56.5334" y="6.10352e-05" width="241.68" height="407.497" filterUnits="userSpaceOnUse" color-interpolation-filters="sRGB">
<feFlood flood-opacity="0" result="BackgroundImageFix"/>
<feColorMatrix in="SourceAlpha" type="matrix" values="0 0 0 0 0 0 0 0 0 0 0 0 0 0 0 0 0 0 127 0" result="hardAlpha"/>
<feOffset/>
<feGaussianBlur stdDeviation="15"/>
<feComposite in2="hardAlpha" operator="out"/>
<feColorMatrix type="matrix" values="0 0 0 0 0 0 0 0 0 0 0 0 0 0 0 0 0 0 0.1 0"/>
<feBlend mode="normal" in2="BackgroundImageFix" result="effect1_dropShadow_17_127"/>
<feBlend mode="normal" in="SourceGraphic" in2="effect1_dropShadow_17_127" result="shape"/>
</filter>
<filter id="filter2_d_17_127" x="85.0004" y="49.4506" width="269.791" height="351.194" filterUnits="userSpaceOnUse" color-interpolation-filters="sRGB">
<feFlood flood-opacity="0" result="BackgroundImageFix"/>
<feColorMatrix in="SourceAlpha" type="matrix" values="0 0 0 0 0 0 0 0 0 0 0 0 0 0 0 0 0 0 127 0" result="hardAlpha"/>
<feOffset/>
<feGaussianBlur stdDeviation="15"/>
<feComposite in2="hardAlpha" operator="out"/>
<feColorMatrix type="matrix" values="0 0 0 0 0 0 0 0 0 0 0 0 0 0 0 0 0 0 0.1 0"/>
<feBlend mode="normal" in2="BackgroundImageFix" result="effect1_dropShadow_17_127"/>
<feBlend mode="normal" in="SourceGraphic" in2="effect1_dropShadow_17_127" result="shape"/>
</filter>
<filter id="filter3_d_17_127" x="237.717" y="315.018" width="255.622" height="145.449" filterUnits="userSpaceOnUse" color-interpolation-filters="sRGB">
<feFlood flood-opacity="0" result="BackgroundImageFix"/>
<feColorMatrix in="SourceAlpha" type="matrix" values="0 0 0 0 0 0 0 0 0 0 0 0 0 0 0 0 0 0 127 0" result="hardAlpha"/>
<feOffset/>
<feGaussianBlur stdDeviation="15"/>
<feComposite in2="hardAlpha" operator="out"/>
<feColorMatrix type="matrix" values="0 0 0 0 0 0 0 0 0 0 0 0 0 0 0 0 0 0 0.1 0"/>
<feBlend mode="normal" in2="BackgroundImageFix" result="effect1_dropShadow_17_127"/>
<feBlend mode="normal" in="SourceGraphic" in2="effect1_dropShadow_17_127" result="shape"/>
</filter>
<filter id="filter4_d_17_127" x="234.309" y="265.935" width="261.692" height="141.103" filterUnits="userSpaceOnUse" color-interpolation-filters="sRGB">
<feFlood flood-opacity="0" result="BackgroundImageFix"/>
<feColorMatrix in="SourceAlpha" type="matrix" values="0 0 0 0 0 0 0 0 0 0 0 0 0 0 0 0 0 0 127 0" result="hardAlpha"/>
<feOffset/>
<feGaussianBlur stdDeviation="15"/>
<feComposite in2="hardAlpha" operator="out"/>
<feColorMatrix type="matrix" values="0 0 0 0 0 0 0 0 0 0 0 0 0 0 0 0 0 0 0.1 0"/>
<feBlend mode="normal" in2="BackgroundImageFix" result="effect1_dropShadow_17_127"/>
<feBlend mode="normal" in="SourceGraphic" in2="effect1_dropShadow_17_127" result="shape"/>
</filter>
<linearGradient id="paint0_linear_17_127" x1="158.888" y1="103.917" x2="256.014" y2="271.322" gradientUnits="userSpaceOnUse">
<stop stop-color="#CE1567"/>
<stop offset="1" stop-color="#7A1DBC"/>
</linearGradient>
<linearGradient id="paint1_linear_17_127" x1="222.383" y1="216.077" x2="157.807" y2="329.553" gradientUnits="userSpaceOnUse">
<stop stop-color="#A737D5"/>
<stop offset="1" stop-color="#EF497A"/>
</linearGradient>
</defs>
</svg>
