<svg width="9" height="18" viewBox="0 0 9 18" fill="none" xmlns="http://www.w3.org/2000/svg">
<path fill-rule="evenodd" clip-rule="evenodd" d="M1.84093 17.5387L5.52229 17.5387L5.52378 8.7579L7.98594 8.75595L8.2968 5.77088L5.54061 5.7509C5.49556 5.26078 5.49903 4.46859 5.53219 3.97165C5.57724 3.29201 5.82375 3.045 6.52765 3.05474L8.28938 3.0372L8.30769 4.62209e-07L8.22701 4.5772e-07L5.21489 2.90137e-07C4.95798 0.105235 4.55059 0.108646 4.22983 0.190982C3.34822 0.41753 2.68887 0.875985 2.28544 1.7091C1.62857 3.06546 1.9632 4.24205 1.8236 5.75188L0.00494974 5.76211L-4.87148e-07 8.75595L1.83895 8.75546L1.84093 17.5387Z" fill="#98DFB4"/>
</svg>
