<svg width="421" height="470" viewBox="0 0 421 470" fill="none" xmlns="http://www.w3.org/2000/svg">
<g filter="url(#filter0_d_16_15)">
<path fill-rule="evenodd" clip-rule="evenodd" d="M85.8 378.415H283.681C281.51 354.222 277.847 338.889 311.037 332.112C350.876 323.977 372.763 302.21 367.26 265.381C361.468 226.625 408.829 191.956 383.483 160.211C373.234 147.375 361.413 142.005 349.117 142.008C308.427 142.017 262.634 200.862 252.248 242.654C238.722 297.074 213.6 275.893 175.862 275.537C124.342 275.05 151.064 329.77 126.252 346.271C117.848 351.861 114.494 351.703 105.047 352.939C102.253 355.105 87.8161 353.538 86.6582 356.509C84.2815 362.609 84.3914 370.293 85.7999 378.415L85.8 378.415Z" fill="#8FD6AB"/>
</g>
<path d="M143.125 378.415C158.678 373.614 173.831 367.642 188.48 360.528C217.34 346.514 244.292 328.063 268.587 305.686C313.549 264.275 348.729 210.048 370.717 148.392C370.872 148.492 371.027 148.593 371.182 148.695C349.161 210.383 313.949 264.64 268.953 306.083C244.619 328.496 217.623 346.977 188.716 361.014C174.562 367.887 159.94 373.697 144.941 378.415H143.125L143.125 378.415Z" fill="#FCFDFE"/>
<path d="M213.846 378.415C196.339 373.729 179.324 370.969 165.622 370.679L165.633 370.139C179.879 370.441 197.687 373.401 215.908 378.415H213.846Z" fill="#FCFDFE"/>
<path d="M130.368 378.415C142.161 369.154 151.182 354.947 157.27 335.993C162.669 319.183 165.69 299.065 166.266 276.117C166.447 276.088 166.625 276.057 166.809 276.029C166.237 299.071 163.207 319.274 157.784 336.159C151.754 354.932 142.854 369.081 131.239 378.415H130.368L130.368 378.415Z" fill="#FCFDFE"/>
<path d="M275.456 299.62L275.21 299.139C292.387 290.349 321.746 282.438 365.631 292.844C365.576 293.017 365.517 293.187 365.46 293.359C321.761 283.007 292.545 290.875 275.456 299.62V299.62Z" fill="#FCFDFE"/>
<path d="M329.155 234.523L328.655 234.32C334.715 219.368 342.149 189.116 329.449 146.182C329.605 146.118 329.761 146.051 329.917 145.989C333.563 158.475 335.849 171.041 336.613 182.966C337.831 201.963 335.321 219.309 329.155 234.523H329.155Z" fill="#FCFDFE"/>
<g filter="url(#filter1_d_16_15)">
<path fill-rule="evenodd" clip-rule="evenodd" d="M283.285 30.9214C279.671 30.9668 275.999 31.542 272.324 32.6158C271.948 32.7258 271.572 32.8407 271.196 32.961C247.45 39.9583 223.659 68.5008 223.664 94.4579C223.665 96.9591 223.886 99.4365 224.35 101.868C226.359 118.571 227.185 135.762 226.389 151.741C225.063 193.894 215.013 230.656 189.279 225.951C178.164 223.652 169.813 225.759 163.926 230.74C155.018 239.207 151.698 253.161 153.094 268.54C153.442 272.281 154.058 276.095 154.924 279.901C155.873 284.042 157.131 288.217 158.681 292.346C158.685 292.356 158.688 292.366 158.691 292.376C158.693 292.382 158.695 292.388 158.697 292.394C158.699 292.399 158.701 292.404 158.702 292.408C158.704 292.414 158.706 292.419 158.708 292.425C158.709 292.431 158.711 292.434 158.713 292.439C158.714 292.445 158.717 292.452 158.719 292.458C158.721 292.464 158.723 292.47 158.725 292.476C158.726 292.479 158.727 292.483 158.728 292.487C158.736 292.508 158.743 292.53 158.75 292.552C158.751 292.555 158.753 292.56 158.754 292.564C158.756 292.57 158.759 292.577 158.761 292.583C158.762 292.586 158.764 292.593 158.765 292.596C158.768 292.605 158.771 292.614 158.774 292.622L158.775 292.625C158.779 292.636 158.782 292.646 158.786 292.656C158.786 292.657 158.787 292.659 158.787 292.66C158.791 292.672 158.794 292.682 158.798 292.694C158.799 292.695 158.799 292.696 158.8 292.697C158.803 292.706 158.806 292.715 158.809 292.724C158.81 292.729 158.813 292.736 158.815 292.741C158.816 292.747 158.818 292.752 158.82 292.757C158.822 292.762 158.823 292.767 158.825 292.772C158.827 292.776 158.829 292.784 158.83 292.788C158.833 292.794 158.835 292.801 158.837 292.807C158.838 292.81 158.839 292.813 158.84 292.816C158.842 292.823 158.845 292.83 158.848 292.838C158.851 292.848 158.854 292.857 158.858 292.868C158.858 292.87 158.86 292.873 158.86 292.876C158.863 292.884 158.867 292.894 158.87 292.903C158.87 292.904 158.871 292.907 158.871 292.908C158.874 292.917 158.877 292.925 158.88 292.933C158.881 292.937 158.883 292.941 158.884 292.945C158.887 292.954 158.889 292.96 158.892 292.969C158.893 292.971 158.895 292.975 158.895 292.978C158.898 292.985 158.9 292.992 158.903 292.999C158.904 293.004 158.906 293.008 158.908 293.013C158.91 293.019 158.913 293.028 158.915 293.033C158.917 293.041 158.92 293.048 158.922 293.055C158.925 293.062 158.927 293.068 158.929 293.076C158.931 293.081 158.932 293.084 158.934 293.089C158.936 293.096 158.938 293.102 158.941 293.109C158.942 293.113 158.944 293.117 158.945 293.121C158.947 293.128 158.949 293.133 158.952 293.141C158.953 293.146 158.956 293.152 158.957 293.157C158.965 293.177 158.97 293.195 158.978 293.215C158.98 293.223 158.982 293.227 158.984 293.235C158.987 293.241 158.988 293.245 158.99 293.251C158.992 293.258 158.995 293.266 158.998 293.273C158.998 293.275 158.999 293.277 159 293.279C159.002 293.286 159.005 293.293 159.007 293.301C159.009 293.307 159.011 293.311 159.013 293.317C159.015 293.322 159.017 293.327 159.018 293.332C159.021 293.338 159.023 293.345 159.025 293.351C159.027 293.356 159.028 293.359 159.029 293.364C159.034 293.375 159.036 293.384 159.041 293.395C159.041 293.398 159.042 293.4 159.043 293.403C159.047 293.413 159.05 293.422 159.053 293.432C159.054 293.434 159.053 293.432 159.054 293.433C159.062 293.456 159.069 293.477 159.077 293.499C159.078 293.502 159.079 293.504 159.08 293.507C159.092 293.541 159.104 293.575 159.116 293.609C159.116 293.611 159.116 293.611 159.117 293.612C159.12 293.622 159.123 293.63 159.127 293.641C159.128 293.643 159.129 293.647 159.13 293.65C159.133 293.659 159.136 293.667 159.139 293.675C159.14 293.679 159.141 293.681 159.143 293.685C159.146 293.694 159.149 293.704 159.152 293.713C159.153 293.715 159.153 293.715 159.154 293.718C159.158 293.729 159.162 293.739 159.166 293.751C159.167 293.753 159.167 293.755 159.168 293.756C159.171 293.765 159.175 293.777 159.178 293.786C159.179 293.788 159.18 293.791 159.181 293.794C159.185 293.803 159.186 293.808 159.19 293.817C159.191 293.821 159.192 293.825 159.194 293.829C159.196 293.836 159.199 293.844 159.202 293.852C159.203 293.855 159.205 293.86 159.206 293.864C159.213 293.884 159.221 293.907 159.229 293.927C159.231 293.932 159.232 293.937 159.234 293.942C159.237 293.949 159.239 293.955 159.241 293.962C159.243 293.966 159.245 293.971 159.246 293.975C159.249 293.982 159.251 293.989 159.254 293.997C159.255 293.999 159.256 294.003 159.257 294.006C159.261 294.016 159.265 294.027 159.268 294.037L159.269 294.039C159.273 294.051 159.277 294.062 159.281 294.074V294.074C159.285 294.085 159.29 294.096 159.293 294.107C159.294 294.109 159.296 294.114 159.297 294.117C159.3 294.124 159.304 294.135 159.306 294.143C159.307 294.145 159.308 294.148 159.309 294.15C159.312 294.159 159.316 294.169 159.319 294.178C159.32 294.179 159.321 294.184 159.321 294.185C159.324 294.191 159.327 294.199 159.329 294.205C159.335 294.221 159.341 294.237 159.346 294.254C159.351 294.266 159.354 294.275 159.359 294.287C159.36 294.29 159.36 294.292 159.361 294.295C159.365 294.305 159.369 294.315 159.372 294.325L159.373 294.326C159.377 294.337 159.379 294.345 159.383 294.355C159.385 294.359 159.386 294.362 159.387 294.365C159.391 294.376 159.394 294.386 159.398 294.396L159.399 294.398C159.403 294.408 159.407 294.42 159.411 294.43C159.412 294.433 159.413 294.436 159.413 294.438C159.417 294.449 159.42 294.457 159.424 294.468C159.425 294.47 159.426 294.471 159.426 294.474C159.43 294.483 159.434 294.494 159.437 294.503C159.438 294.505 159.439 294.508 159.439 294.509C159.465 294.579 159.491 294.651 159.518 294.722L159.518 294.723C166.789 314.473 184.838 344.358 168.547 378.416H220.985C220.979 378.304 220.973 378.19 220.969 378.078C220.969 378.075 220.969 378.074 220.968 378.071C220.968 378.062 220.968 378.051 220.967 378.042C220.967 378.037 220.967 378.034 220.967 378.029C220.967 378.023 220.966 378.016 220.966 378.01C220.042 354.312 247.219 338.263 270.111 317.481C270.112 317.48 270.114 317.478 270.115 317.477C270.127 317.467 270.138 317.456 270.15 317.445C270.151 317.444 270.153 317.443 270.154 317.442C270.233 317.37 270.309 317.301 270.388 317.229C270.389 317.228 270.389 317.228 270.39 317.227C270.402 317.216 270.412 317.207 270.423 317.196C270.426 317.194 270.43 317.19 270.433 317.188C270.443 317.179 270.454 317.169 270.464 317.16C270.467 317.157 270.467 317.157 270.47 317.154C270.483 317.142 270.491 317.135 270.505 317.123L270.508 317.12C270.573 317.06 270.636 317.002 270.702 316.943C270.704 316.94 270.704 316.941 270.706 316.938C270.716 316.929 270.731 316.916 270.741 316.907C270.742 316.906 270.743 316.904 270.745 316.903C270.756 316.893 270.768 316.882 270.78 316.871C270.781 316.87 270.782 316.869 270.784 316.868C270.81 316.843 270.834 316.822 270.86 316.798C270.864 316.794 270.866 316.792 270.871 316.788C270.879 316.78 270.888 316.772 270.896 316.765C270.902 316.759 270.908 316.754 270.914 316.748C270.92 316.742 270.927 316.736 270.933 316.73C270.939 316.725 270.943 316.721 270.949 316.716C270.957 316.709 270.965 316.701 270.973 316.694C270.976 316.691 270.982 316.686 270.985 316.683C270.993 316.676 271.003 316.667 271.011 316.659C271.015 316.656 271.019 316.652 271.023 316.648C271.03 316.642 271.038 316.634 271.045 316.628C271.052 316.621 271.056 316.618 271.063 316.612C271.067 316.607 271.072 316.603 271.077 316.599C271.104 316.574 271.13 316.55 271.157 316.525C271.162 316.52 271.166 316.517 271.171 316.512C271.176 316.507 271.181 316.503 271.187 316.498C271.195 316.49 271.201 316.484 271.21 316.477C271.214 316.473 271.218 316.469 271.222 316.465C271.232 316.456 271.239 316.45 271.248 316.441C271.253 316.437 271.255 316.434 271.26 316.431C271.268 316.423 271.277 316.415 271.285 316.407C271.29 316.402 271.293 316.4 271.299 316.395C271.305 316.389 271.312 316.383 271.318 316.377C271.325 316.37 271.33 316.365 271.337 316.359C271.342 316.354 271.345 316.351 271.35 316.347C271.363 316.335 271.377 316.322 271.39 316.311C271.395 316.306 271.403 316.298 271.408 316.294C271.413 316.289 271.417 316.286 271.422 316.28C271.431 316.273 271.439 316.265 271.447 316.258C271.451 316.254 271.456 316.25 271.46 316.246C271.467 316.24 271.475 316.232 271.482 316.226C271.489 316.219 271.493 316.215 271.5 316.208C271.507 316.202 271.512 316.198 271.518 316.192C271.525 316.185 271.53 316.181 271.537 316.174C271.542 316.17 271.551 316.162 271.555 316.158C271.561 316.152 271.567 316.146 271.573 316.141C271.581 316.134 271.589 316.126 271.597 316.119C271.6 316.116 271.606 316.11 271.609 316.108C271.622 316.096 271.633 316.086 271.646 316.074C281.435 307.495 284.461 299.145 284.458 290.779C284.453 277.202 276.473 263.581 276.477 248.864C276.479 243.216 277.657 237.407 280.913 231.376C296.187 203.021 334.469 169.572 334.466 117.928C334.466 111.266 333.829 104.302 332.423 97.0061C329.477 77.0195 324.117 61.9931 317.212 51.3591C317.211 51.3573 317.21 51.3558 317.209 51.354C317.206 51.3495 317.202 51.3437 317.199 51.3392C317.186 51.3194 317.174 51.3008 317.162 51.2812C317.16 51.2797 317.16 51.2782 317.159 51.2767C308.035 37.2711 296.23 30.9177 283.745 30.9186C283.592 30.9188 283.438 30.9197 283.285 30.9216L283.285 30.9214Z" fill="#9EE9BC"/>
</g>
<path d="M197.963 378.415C205.385 353.084 214.28 325.242 224.498 297.625C229.087 283.085 234.07 268.427 238.889 254.251C251.795 216.283 265.142 177.023 271.48 137.926C277.543 100.53 276.569 66.3116 268.47 33.8613C268.64 33.7995 268.81 33.7384 268.981 33.6785C277.11 66.2157 278.092 100.522 272.013 138.012C265.667 177.154 252.314 216.436 239.399 254.425C234.582 268.598 229.599 283.254 225.009 297.8C214.971 324.928 206.062 352.839 198.563 378.415H197.963L197.963 378.415Z" fill="#FCFDFE"/>
<path d="M262.755 180.745L262.353 180.384C284.829 155.397 311.945 119.889 326.512 100.814C328.688 97.964 330.462 95.6446 331.913 93.7562C331.953 93.9987 331.993 94.2402 332.033 94.4838C330.52 96.4552 328.805 98.7013 326.941 101.142C312.369 120.224 285.245 155.742 262.755 180.745V180.745Z" fill="#FCFDFE"/>
<path d="M269.788 146.551C265.118 117.794 253.262 98.9025 244.139 88.1182C237.968 80.8252 232.134 76.0856 228.334 73.4906C228.405 73.3248 228.478 73.1592 228.551 72.9937C232.741 75.8344 239.323 81.2186 246.133 89.688C258.403 104.947 266.767 124.58 270.32 146.464L269.788 146.551V146.551Z" fill="#FCFDFE"/>
<path d="M205.28 356.281L204.744 356.217C207.917 329.55 201.708 300.869 186.29 270.97C179.584 257.967 171.339 245.184 161.719 232.868C161.842 232.734 161.97 232.605 162.096 232.473C171.757 244.835 180.038 257.667 186.77 270.722C202.238 300.719 208.466 329.505 205.28 356.281V356.281Z" fill="#FCFDFE"/>
<path d="M214.383 328.178L213.924 327.893C233.514 296.225 270.697 288.49 284.237 286.762C284.256 286.939 284.271 287.116 284.287 287.293C279.141 287.942 270.437 289.475 260.387 293.032C246.217 298.046 226.733 308.213 214.383 328.178V328.178Z" fill="#FCFDFE"/>
<g filter="url(#filter2_d_16_15)">
<path d="M30.9201 87.4418V415.906C30.9201 419.331 33.3319 422.28 36.686 422.958L121.002 440L143.954 222.516L121.711 69.2325L37.1763 80.3087C33.5969 80.7777 30.9201 83.8297 30.9201 87.4418L30.9201 87.4418Z" fill="#F7F7F7"/>
</g>
<g filter="url(#filter3_d_16_15)">
<path d="M270.792 75.1405L122.32 69.191C116.467 68.9564 111.709 73.1182 111.709 78.4866V430.868C111.709 436.237 116.467 440.316 122.32 439.981L270.792 431.472C276.181 431.163 280.538 426.754 280.538 421.622V84.8219C280.538 79.6908 276.181 75.3564 270.792 75.1405V75.1405Z" fill="white"/>
</g>
<path d="M121.95 110.376V85.4407C121.95 81.6253 125.324 78.6591 129.477 78.8153L264.157 83.881C268.013 84.0262 271.133 87.1154 271.133 90.7816V114.74C271.133 118.406 268.013 121.292 264.157 121.186L129.477 117.491C125.324 117.377 121.95 114.192 121.95 110.376V110.376Z" fill="#757575"/>
<path d="M135.98 88.2292C135.98 89.9881 134.429 91.3607 132.513 91.2949C130.595 91.2289 129.039 89.7469 129.039 87.9847C129.039 86.2226 130.595 84.8501 132.513 84.9193C134.429 84.9882 135.98 86.4701 135.98 88.2291V88.2292Z" fill="#98DFB4"/>
<path d="M146.932 88.6145C146.932 90.3683 145.389 91.7372 143.485 91.6717C141.578 91.6063 140.031 90.1287 140.031 88.3718C140.031 86.6147 141.578 85.246 143.485 85.3148C145.389 85.3834 146.932 86.8608 146.932 88.6146V88.6145Z" fill="#98DFB4"/>
<path d="M157.821 88.9978C157.821 90.7466 156.287 92.1116 154.393 92.0466C152.498 91.9815 150.96 90.5084 150.96 88.7563C150.96 87.0043 152.498 85.6395 154.393 85.7078C156.287 85.776 157.821 87.2489 157.821 88.9978V88.9978Z" fill="#98DFB4"/>
<path fill-rule="evenodd" clip-rule="evenodd" d="M164.657 86.0776V112.289L263.514 115.164V89.6402L164.657 86.0776Z" fill="#444444"/>
<path d="M121.95 152.478V127.543C121.95 123.727 125.324 120.724 129.477 120.834L264.157 124.411C268.013 124.513 271.133 127.568 271.133 131.234V155.193C271.133 158.859 268.013 161.779 264.157 161.716L129.477 159.51C125.324 159.442 121.95 156.294 121.95 152.478V152.478Z" fill="#757575"/>
<path d="M135.98 130.176C135.98 131.935 134.429 133.325 132.513 133.28C130.595 133.235 129.039 131.771 129.039 130.008C129.039 128.246 130.595 126.857 132.513 126.905C134.429 126.952 135.98 128.417 135.98 130.176Z" fill="#98DFB4"/>
<path d="M146.932 130.44C146.932 132.194 145.389 133.58 143.485 133.536C141.578 133.491 140.031 132.031 140.031 130.274C140.031 128.517 141.578 127.131 143.485 127.179C145.389 127.226 146.932 128.687 146.932 130.44V130.44Z" fill="#98DFB4"/>
<path d="M157.821 130.703C157.821 132.452 156.287 133.834 154.393 133.79C152.498 133.746 150.96 132.29 150.96 130.538C150.96 128.786 152.498 127.404 154.393 127.451C156.287 127.498 157.821 128.954 157.821 130.703Z" fill="#98DFB4"/>
<path fill-rule="evenodd" clip-rule="evenodd" d="M164.657 127.708V153.919L263.514 155.7V130.177L164.657 127.708Z" fill="#444444"/>
<path d="M121.95 194.58V169.645C121.95 165.829 125.324 162.789 129.477 162.853L264.157 164.941C268.013 165 271.133 168.021 271.133 171.687V195.645C271.133 199.311 268.013 202.267 264.157 202.246L129.477 201.529C125.324 201.507 121.95 198.396 121.95 194.58V194.58Z" fill="#757575"/>
<path d="M135.98 172.123C135.98 173.882 134.429 175.289 132.513 175.265C130.595 175.242 129.039 173.794 129.039 172.032C129.039 170.27 130.595 168.863 132.513 168.89C134.429 168.917 135.98 170.364 135.98 172.123Z" fill="#98DFB4"/>
<path d="M146.932 172.266C146.932 174.02 145.389 175.423 143.485 175.4C141.578 175.376 140.031 173.933 140.031 172.176C140.031 170.419 141.578 169.016 143.485 169.043C145.389 169.069 146.932 170.512 146.932 172.266V172.266Z" fill="#98DFB4"/>
<path d="M157.821 172.409C157.821 174.158 156.287 175.557 154.393 175.533C152.498 175.51 150.96 174.071 150.96 172.319C150.96 170.567 152.498 169.168 154.393 169.194C156.287 169.221 157.821 170.66 157.821 172.409V172.409Z" fill="#98DFB4"/>
<path fill-rule="evenodd" clip-rule="evenodd" d="M164.657 169.337V195.549L263.514 196.237V170.714L164.657 169.337Z" fill="#444444"/>
<path d="M121.95 236.682V211.747C121.95 207.931 125.324 204.853 129.477 204.872L264.157 205.47C268.013 205.488 271.133 208.474 271.133 212.14V236.098C271.133 239.764 268.013 242.754 264.157 242.776L129.477 243.548C125.324 243.572 121.95 240.498 121.95 236.682V236.682Z" fill="#757575"/>
<path d="M135.98 214.07C135.98 215.829 134.429 217.253 132.513 217.251C130.595 217.248 129.039 215.818 129.039 214.056C129.039 212.294 130.595 210.87 132.513 210.875C134.429 210.881 135.98 212.311 135.98 214.07Z" fill="#98DFB4"/>
<path d="M146.932 214.092C146.932 215.846 145.389 217.266 143.485 217.264C141.578 217.261 140.031 215.835 140.031 214.078C140.031 212.321 141.578 210.901 143.485 210.907C145.389 210.912 146.932 212.338 146.932 214.092Z" fill="#98DFB4"/>
<path d="M157.821 214.114C157.821 215.863 156.287 217.279 154.393 217.277C152.498 217.274 150.96 215.852 150.96 214.1C150.96 212.348 152.498 210.932 154.393 210.938C156.287 210.943 157.821 212.365 157.821 214.114Z" fill="#98DFB4"/>
<path fill-rule="evenodd" clip-rule="evenodd" d="M164.657 210.967V237.179L263.514 236.774V211.251L164.657 210.967Z" fill="#444444"/>
<path d="M121.95 278.784V253.849C121.95 250.033 125.324 246.918 129.477 246.89L264.158 246C268.013 245.975 271.133 248.926 271.133 252.592V276.55C271.133 280.216 268.013 283.241 264.158 283.306L129.477 285.566C125.324 285.636 121.95 282.6 121.95 278.784V278.784Z" fill="#757575"/>
<path d="M135.98 256.017C135.98 257.776 134.429 259.217 132.513 259.236C130.595 259.255 129.039 257.842 129.039 256.079C129.039 254.317 130.595 252.876 132.513 252.86C134.429 252.845 135.98 254.258 135.98 256.017V256.017Z" fill="#98DFB4"/>
<path d="M146.932 255.918C146.932 257.672 145.389 259.109 143.485 259.127C141.578 259.146 140.031 257.737 140.031 255.98C140.031 254.223 141.578 252.786 143.485 252.77C145.389 252.755 146.932 254.164 146.932 255.918Z" fill="#98DFB4"/>
<path d="M157.821 255.82C157.821 257.568 156.287 259.001 154.393 259.02C152.498 259.039 150.96 257.633 150.96 255.882C150.96 254.129 152.498 252.697 154.393 252.681C156.287 252.665 157.821 254.071 157.821 255.82Z" fill="#98DFB4"/>
<path fill-rule="evenodd" clip-rule="evenodd" d="M164.657 252.597V278.808L263.515 277.311V251.788L164.657 252.597Z" fill="#444444"/>
<path d="M121.95 320.886V295.951C121.95 292.135 125.324 288.983 129.477 288.909L264.158 286.53C268.013 286.462 271.133 289.379 271.133 293.045V317.003C271.133 320.669 268.013 323.728 264.158 323.835L129.477 327.585C125.324 327.701 121.95 324.702 121.95 320.886V320.886Z" fill="#757575"/>
<path d="M135.98 297.964C135.98 299.723 134.429 301.181 132.513 301.221C130.595 301.261 129.039 299.865 129.039 298.103C129.039 296.341 130.595 294.883 132.513 294.846C134.429 294.809 135.98 296.205 135.98 297.964V297.964Z" fill="#98DFB4"/>
<path d="M146.932 297.744C146.932 299.498 145.389 300.952 143.485 300.992C141.578 301.031 140.031 299.639 140.031 297.882C140.031 296.125 141.578 294.671 143.485 294.635C145.389 294.598 146.932 295.99 146.932 297.744Z" fill="#98DFB4"/>
<path d="M157.821 297.525C157.821 299.274 156.287 300.724 154.393 300.763C152.498 300.803 150.96 299.415 150.96 297.663C150.96 295.911 152.498 294.461 154.393 294.424C156.287 294.388 157.821 295.776 157.821 297.525V297.525Z" fill="#98DFB4"/>
<path fill-rule="evenodd" clip-rule="evenodd" d="M164.657 294.227V320.438L263.515 317.848V292.325L164.657 294.227Z" fill="#444444"/>
<path fill-rule="evenodd" clip-rule="evenodd" d="M164.657 294.227V320.438L263.515 317.848V292.324L164.657 294.227Z" fill="#444444"/>
<path d="M121.95 362.988V338.053C121.95 334.237 125.324 331.047 129.477 330.928L264.158 327.06C268.013 326.949 271.133 329.831 271.133 333.497V357.456C271.133 361.122 268.013 364.215 264.158 364.365L129.477 369.604C125.324 369.766 121.95 366.804 121.95 362.988V362.988Z" fill="#757575"/>
<path d="M135.98 339.911C135.98 341.669 134.429 343.145 132.513 343.206C130.595 343.268 129.039 341.889 129.039 340.127C129.039 338.365 130.595 336.889 132.513 336.831C134.429 336.773 135.98 338.152 135.98 339.911Z" fill="#98DFB4"/>
<path d="M146.932 339.569C146.932 341.323 145.389 342.795 143.485 342.855C141.578 342.916 140.031 341.541 140.031 339.784C140.031 338.027 141.578 336.556 143.485 336.498C145.389 336.44 146.932 337.816 146.932 339.569Z" fill="#98DFB4"/>
<path d="M157.821 339.23C157.821 340.979 156.287 342.446 154.393 342.507C152.498 342.567 150.96 341.196 150.96 339.444C150.96 337.692 152.498 336.225 154.393 336.168C156.287 336.11 157.821 337.482 157.821 339.23V339.23Z" fill="#98DFB4"/>
<path fill-rule="evenodd" clip-rule="evenodd" d="M164.657 335.857V362.068L263.515 358.385V332.861L164.657 335.857Z" fill="#444444"/>
<path d="M121.95 405.09V380.155C121.95 376.34 125.324 373.112 129.477 372.947L264.158 367.59C268.013 367.436 271.133 370.284 271.133 373.95V397.908C271.133 401.575 268.013 404.702 264.158 404.895L129.477 411.623C125.324 411.83 121.95 408.906 121.95 405.09V405.09Z" fill="#757575"/>
<path d="M135.98 381.857C135.98 383.616 134.429 385.109 132.513 385.192C130.595 385.274 129.039 383.912 129.039 382.15C129.039 380.388 130.595 378.895 132.513 378.816C134.429 378.737 135.98 380.099 135.98 381.857V381.857Z" fill="#9EE9BC"/>
<path d="M146.932 381.395C146.932 383.149 145.389 384.637 143.485 384.719C141.578 384.801 140.031 383.444 140.031 381.687C140.031 379.93 141.578 378.441 143.485 378.362C145.389 378.283 146.932 379.641 146.932 381.395V381.395Z" fill="#9EE9BC"/>
<path d="M157.821 380.936C157.821 382.685 156.287 384.169 154.393 384.25C152.498 384.332 150.96 382.978 150.96 381.226C150.96 379.474 152.498 377.99 154.393 377.911C156.287 377.833 157.821 379.187 157.821 380.936V380.936Z" fill="#9EE9BC"/>
<path fill-rule="evenodd" clip-rule="evenodd" d="M164.657 377.487V403.698L263.515 398.922V373.399L164.657 377.487Z" fill="#444444"/>
<g clip-path="url(#clip0_16_15)">
<path d="M258.3 357.348L255.344 357.443L255.214 335.742L258.169 335.664L258.3 357.348V357.348ZM172.405 360.1L169.315 360.199L169.182 338.008L172.272 337.927L172.405 360.1ZM177.887 359.924L174.806 360.023L174.673 337.863L177.754 337.782L177.887 359.924L177.887 359.924ZM183.354 359.749L180.281 359.848L180.148 337.719L183.221 337.638L183.354 359.749ZM188.805 359.574L185.74 359.673L185.608 337.575L188.672 337.495L188.805 359.574V359.574ZM194.241 359.4L191.185 359.498L191.052 337.432L194.108 337.352L194.241 359.4V359.4ZM199.661 359.227L196.614 359.324L196.481 337.289L199.529 337.209L199.661 359.227V359.227ZM205.066 359.054L202.028 359.151L201.895 337.146L204.934 337.066L205.066 359.054V359.054ZM210.457 358.881L207.426 358.978L207.294 337.004L210.325 336.925L210.457 358.881ZM215.832 358.709L212.81 358.806L212.678 336.863L215.7 336.783L215.832 358.709V358.709ZM221.192 358.537L218.179 358.634L218.047 336.721L221.061 336.642L221.192 358.537V358.537ZM226.538 358.366L223.533 358.462L223.401 336.58L226.406 336.501L226.538 358.366V358.366ZM231.868 358.195L228.872 358.291L228.74 336.439L231.737 336.36L231.868 358.195L231.868 358.195ZM237.184 358.025L234.195 358.121L234.064 336.299L237.053 336.22L237.184 358.025V358.025ZM242.485 357.855L239.505 357.95L239.374 336.16L242.354 336.081L242.485 357.855ZM247.771 357.686L244.799 357.781L244.668 336.02L247.64 335.942L247.771 357.686V357.686ZM253.043 357.517L250.079 357.612L249.949 335.881L252.912 335.803L253.043 357.517Z" fill="#757575"/>
<path fill-rule="evenodd" clip-rule="evenodd" d="M169.202 341.316L169.315 360.199L172.405 360.1L172.292 341.232L169.202 341.316V341.316ZM255.226 337.78L255.344 357.443L258.3 357.348L258.181 337.701L255.226 337.78V337.78ZM253.042 357.516L252.936 339.816L249.972 339.897L250.079 357.611L253.042 357.516L253.042 357.516ZM247.771 357.685L247.702 346.258L244.73 346.345L244.799 357.78L247.771 357.685V357.685ZM239.41 342.247L239.505 357.95L242.484 357.855L242.39 342.164L239.41 342.247L239.41 342.247ZM237.183 358.025L237.118 347.122L234.13 347.21L234.195 358.12L237.183 358.025V358.025ZM228.843 353.642L228.871 358.291L231.868 358.195L231.84 353.55L228.843 353.642V353.642ZM223.428 341.102L223.532 358.462L226.537 358.366L226.433 341.019L223.428 341.102V341.102ZM221.192 358.537L221.069 338.141L218.056 338.222L218.179 358.634L221.192 358.537L221.192 358.537ZM215.832 358.709L215.776 349.38L212.754 349.47L212.81 358.806L215.832 358.709L215.832 358.709ZM210.457 358.881L210.344 340.198L207.314 340.28L207.426 358.978L210.457 358.881ZM205.066 359.053L204.964 342.09L201.925 342.174L202.027 359.151L205.066 359.053V359.053ZM196.555 349.535L196.614 359.324L199.661 359.227L199.602 349.445L196.555 349.535ZM194.24 359.4L194.155 345.195L191.099 345.282L191.185 359.498L194.24 359.4ZM185.707 354.114L185.74 359.672L188.805 359.574L188.771 354.02L185.707 354.114L185.707 354.114ZM180.203 346.959L180.28 359.847L183.353 359.749L183.276 346.87L180.203 346.959V346.959ZM174.792 357.753L174.805 360.023L177.887 359.924L177.873 357.656L174.792 357.753Z" fill="#98DFB4"/>
</g>
<g clip-path="url(#clip1_16_15)">
<path d="M258.3 315.684L255.344 315.779L255.214 294.078L258.169 294L258.3 315.684V315.684ZM172.405 318.436L169.315 318.535L169.182 296.344L172.272 296.262L172.405 318.436ZM177.887 318.26L174.806 318.359L174.673 296.199L177.754 296.118L177.887 318.26L177.887 318.26ZM183.354 318.085L180.281 318.183L180.148 296.055L183.221 295.974L183.354 318.085ZM188.805 317.91L185.74 318.009L185.608 295.911L188.672 295.83L188.805 317.91V317.91ZM194.241 317.736L191.185 317.834L191.052 295.768L194.108 295.688L194.241 317.736V317.736ZM199.661 317.563L196.614 317.66L196.481 295.625L199.529 295.545L199.661 317.563V317.563ZM205.066 317.389L202.028 317.487L201.895 295.482L204.934 295.402L205.066 317.389V317.389ZM210.457 317.217L207.426 317.314L207.294 295.34L210.325 295.26L210.457 317.217ZM215.832 317.045L212.81 317.142L212.678 295.199L215.7 295.119L215.832 317.045V317.045ZM221.192 316.873L218.179 316.97L218.047 295.057L221.061 294.978L221.192 316.873V316.873ZM226.538 316.702L223.533 316.798L223.401 294.916L226.406 294.837L226.538 316.702V316.702ZM231.868 316.531L228.872 316.627L228.74 294.775L231.737 294.696L231.868 316.531L231.868 316.531ZM237.184 316.361L234.195 316.456L234.064 294.635L237.053 294.556L237.184 316.361V316.361ZM242.485 316.191L239.505 316.286L239.374 294.496L242.354 294.417L242.485 316.191ZM247.771 316.022L244.799 316.117L244.668 294.356L247.64 294.278L247.771 316.022V316.022ZM253.043 315.853L250.079 315.948L249.949 294.217L252.912 294.139L253.043 315.853Z" fill="#757575"/>
<path fill-rule="evenodd" clip-rule="evenodd" d="M169.202 299.652L169.315 318.535L172.405 318.436L172.292 299.568L169.202 299.652V299.652ZM255.226 296.116L255.344 315.778L258.3 315.684L258.181 296.037L255.226 296.116V296.116ZM253.042 315.852L252.936 298.152L249.972 298.233L250.079 315.947L253.042 315.852L253.042 315.852ZM247.771 316.021L247.702 304.594L244.73 304.68L244.799 316.116L247.771 316.021V316.021ZM239.41 300.583L239.505 316.286L242.484 316.19L242.39 300.499L239.41 300.583L239.41 300.583ZM237.183 316.361L237.118 305.458L234.13 305.546L234.195 316.456L237.183 316.361V316.361ZM228.843 311.978L228.871 316.627L231.868 316.531L231.84 311.886L228.843 311.978V311.978ZM223.428 299.438L223.532 316.798L226.537 316.702L226.433 299.355L223.428 299.438V299.438ZM221.192 316.873L221.069 296.477L218.056 296.557L218.179 316.97L221.192 316.873L221.192 316.873ZM215.832 317.044L215.776 307.716L212.754 307.806L212.81 317.142L215.832 317.045L215.832 317.044ZM210.457 317.217L210.344 298.534L207.314 298.616L207.426 317.314L210.457 317.217ZM205.066 317.389L204.964 300.426L201.925 300.51L202.027 317.487L205.066 317.389V317.389ZM196.555 307.871L196.614 317.66L199.661 317.563L199.602 307.781L196.555 307.871ZM194.24 317.736L194.155 303.531L191.099 303.618L191.185 317.834L194.24 317.736ZM185.707 312.45L185.74 318.008L188.805 317.91L188.771 312.356L185.707 312.45L185.707 312.45ZM180.203 305.295L180.28 318.183L183.353 318.085L183.276 305.206L180.203 305.295V305.295ZM174.792 316.089L174.805 318.359L177.887 318.26L177.873 315.992L174.792 316.089Z" fill="#98DFB4"/>
</g>
<g clip-path="url(#clip2_16_15)">
<path d="M258.3 274.684L255.344 274.779L255.214 253.078L258.169 253L258.3 274.684V274.684ZM172.405 277.436L169.315 277.535L169.182 255.344L172.272 255.262L172.405 277.436ZM177.887 277.26L174.806 277.359L174.673 255.199L177.754 255.118L177.887 277.26L177.887 277.26ZM183.354 277.085L180.281 277.183L180.148 255.055L183.221 254.974L183.354 277.085ZM188.805 276.91L185.74 277.009L185.608 254.911L188.672 254.83L188.805 276.91V276.91ZM194.241 276.736L191.185 276.834L191.052 254.768L194.108 254.688L194.241 276.736V276.736ZM199.661 276.563L196.614 276.66L196.481 254.625L199.529 254.545L199.661 276.563V276.563ZM205.066 276.389L202.028 276.487L201.895 254.482L204.934 254.402L205.066 276.389V276.389ZM210.457 276.217L207.426 276.314L207.294 254.34L210.325 254.26L210.457 276.217ZM215.832 276.045L212.81 276.142L212.678 254.199L215.7 254.119L215.832 276.045V276.045ZM221.192 275.873L218.179 275.97L218.047 254.057L221.061 253.978L221.192 275.873V275.873ZM226.538 275.702L223.533 275.798L223.401 253.916L226.406 253.837L226.538 275.702V275.702ZM231.868 275.531L228.872 275.627L228.74 253.775L231.737 253.696L231.868 275.531L231.868 275.531ZM237.184 275.361L234.195 275.456L234.064 253.635L237.053 253.556L237.184 275.361V275.361ZM242.485 275.191L239.505 275.286L239.374 253.496L242.354 253.417L242.485 275.191ZM247.771 275.022L244.799 275.117L244.668 253.356L247.64 253.278L247.771 275.022V275.022ZM253.043 274.853L250.079 274.948L249.949 253.217L252.912 253.139L253.043 274.853Z" fill="#757575"/>
<path fill-rule="evenodd" clip-rule="evenodd" d="M169.202 258.652L169.315 277.535L172.405 277.436L172.292 258.568L169.202 258.652V258.652ZM255.226 255.116L255.344 274.778L258.3 274.684L258.181 255.037L255.226 255.116V255.116ZM253.042 274.852L252.936 257.152L249.972 257.233L250.079 274.947L253.042 274.852L253.042 274.852ZM247.771 275.021L247.702 263.594L244.73 263.68L244.799 275.116L247.771 275.021V275.021ZM239.41 259.583L239.505 275.286L242.484 275.19L242.39 259.499L239.41 259.583L239.41 259.583ZM237.183 275.361L237.118 264.458L234.13 264.546L234.195 275.456L237.183 275.361V275.361ZM228.843 270.978L228.871 275.627L231.868 275.531L231.84 270.886L228.843 270.978V270.978ZM223.428 258.438L223.532 275.798L226.537 275.702L226.433 258.355L223.428 258.438V258.438ZM221.192 275.873L221.069 255.477L218.056 255.557L218.179 275.97L221.192 275.873L221.192 275.873ZM215.832 276.044L215.776 266.716L212.754 266.806L212.81 276.142L215.832 276.045L215.832 276.044ZM210.457 276.217L210.344 257.534L207.314 257.616L207.426 276.314L210.457 276.217ZM205.066 276.389L204.964 259.426L201.925 259.51L202.027 276.487L205.066 276.389V276.389ZM196.555 266.871L196.614 276.66L199.661 276.563L199.602 266.781L196.555 266.871ZM194.24 276.736L194.155 262.531L191.099 262.618L191.185 276.834L194.24 276.736ZM185.707 271.45L185.74 277.008L188.805 276.91L188.771 271.356L185.707 271.45L185.707 271.45ZM180.203 264.295L180.28 277.183L183.353 277.085L183.276 264.206L180.203 264.295V264.295ZM174.792 275.089L174.805 277.359L177.887 277.26L177.873 274.992L174.792 275.089Z" fill="#98DFB4"/>
</g>
<g clip-path="url(#clip3_16_15)">
<path d="M258.18 234.234L255.224 234.292L255.361 212.591L258.317 212.55L258.18 234.234V234.234ZM172.258 235.924L169.167 235.985L169.308 213.794L172.399 213.751L172.258 235.924ZM177.742 235.816L174.659 235.877L174.8 213.717L177.882 213.674L177.742 235.816L177.742 235.816ZM183.21 235.709L180.136 235.769L180.276 213.641L183.35 213.598L183.21 235.709ZM188.663 235.601L185.598 235.662L185.738 213.565L188.803 213.522L188.663 235.601V235.601ZM194.1 235.495L191.044 235.555L191.184 213.489L194.24 213.446L194.1 235.495V235.495ZM199.523 235.388L196.475 235.448L196.614 213.412L199.662 213.37L199.523 235.388V235.388ZM204.93 235.281L201.89 235.341L202.03 213.337L205.069 213.294L204.93 235.281V235.281ZM210.322 235.176L207.29 235.235L207.43 213.261L210.461 213.219L210.322 235.176ZM215.699 235.07L212.676 235.129L212.815 213.186L215.838 213.144L215.699 235.07V235.07ZM221.061 234.964L218.047 235.024L218.185 213.111L221.199 213.069L221.061 234.964V234.964ZM226.408 234.859L223.402 234.918L223.541 213.037L226.546 212.994L226.408 234.859V234.859ZM231.74 234.754L228.742 234.813L228.881 212.961L231.879 212.92L231.74 234.754L231.74 234.754ZM237.057 234.649L234.068 234.708L234.206 212.887L237.196 212.845L237.057 234.649V234.649ZM242.36 234.545L239.379 234.604L239.517 212.813L242.498 212.771L242.36 234.545ZM247.648 234.441L244.675 234.5L244.813 212.739L247.786 212.698L247.648 234.441V234.441ZM252.921 234.337L249.957 234.396L250.095 212.665L253.059 212.624L252.921 234.337Z" fill="#757575"/>
<path fill-rule="evenodd" clip-rule="evenodd" d="M169.287 217.103L169.167 235.985L172.258 235.924L172.378 217.057L169.287 217.103V217.103ZM255.348 214.629L255.224 234.292L258.18 234.233L258.304 214.586L255.348 214.629V214.629ZM252.921 234.337L253.033 216.637L250.069 216.681L249.957 234.395L252.921 234.337L252.921 234.337ZM247.648 234.441L247.72 223.014L244.747 223.063L244.675 234.499L247.648 234.441V234.441ZM239.478 218.901L239.379 234.603L242.36 234.545L242.459 218.854L239.478 218.9L239.478 218.901ZM237.057 234.649L237.126 223.747L234.137 223.798L234.068 234.708L237.057 234.649V234.649ZM228.772 230.164L228.742 234.813L231.74 234.754L231.769 230.109L228.772 230.164V230.164ZM223.512 217.558L223.402 234.918L226.407 234.859L226.517 217.512L223.512 217.558V217.558ZM221.06 234.964L221.19 214.568L218.176 214.611L218.046 235.024L221.06 234.964L221.06 234.964ZM215.699 235.069L215.758 225.741L212.735 225.793L212.676 235.129L215.699 235.07L215.699 235.069ZM210.322 235.175L210.44 216.492L207.409 216.537L207.29 235.235L210.322 235.175ZM204.93 235.281L205.037 218.318L201.997 218.364L201.89 235.341L204.93 235.281V235.281ZM196.536 225.658L196.474 235.448L199.522 235.388L199.584 225.606L196.536 225.658ZM194.1 235.494L194.19 221.289L191.134 221.338L191.043 235.555L194.1 235.494ZM185.632 230.103L185.597 235.661L188.663 235.601L188.698 230.047L185.632 230.103L185.632 230.103ZM180.217 222.881L180.136 235.769L183.21 235.709L183.291 222.83L180.217 222.881V222.881ZM174.673 233.607L174.659 235.877L177.742 235.816L177.756 233.548L174.673 233.607Z" fill="#98DFB4"/>
</g>
<g clip-path="url(#clip4_16_15)">
<path d="M258.071 193.72L255.115 193.747L255.483 172.049L258.439 172.039L258.071 193.72V193.72ZM172.137 194.497L169.045 194.525L169.421 172.337L172.513 172.327L172.137 194.497ZM177.621 194.447L174.538 194.475L174.914 172.318L177.997 172.308L177.621 194.447L177.621 194.447ZM183.09 194.398L180.016 194.426L180.391 172.3L183.465 172.29L183.09 194.398ZM188.544 194.349L185.478 194.377L185.853 172.282L188.919 172.272L188.544 194.349V194.349ZM193.982 194.3L190.925 194.327L191.3 172.264L194.356 172.254L193.982 194.3V194.3ZM199.405 194.251L196.357 194.278L196.731 172.245L199.779 172.235L199.405 194.251V194.251ZM204.813 194.202L201.773 194.229L202.146 172.227L205.186 172.217L204.813 194.202V194.202ZM210.206 194.153L207.174 194.18L207.547 172.209L210.579 172.199L210.206 194.153ZM215.584 194.105L212.561 194.132L212.933 172.192L215.956 172.181L215.584 194.105V194.105ZM220.947 194.056L217.932 194.084L218.304 172.174L221.318 172.164L220.947 194.056V194.056ZM226.294 194.008L223.288 194.035L223.659 172.156L226.666 172.146L226.294 194.008V194.008ZM231.628 193.959L228.629 193.986L229 172.138L231.998 172.128L231.628 193.959L231.628 193.959ZM236.946 193.911L233.956 193.938L234.326 172.12L237.316 172.11L236.946 193.911V193.911ZM242.249 193.863L239.268 193.89L239.638 172.102L242.619 172.092L242.249 193.863ZM247.538 193.816L244.565 193.842L244.934 172.084L247.907 172.075L247.538 193.816V193.816ZM252.812 193.768L249.847 193.795L250.216 172.067L253.181 172.057L252.812 193.768Z" fill="#757575"/>
<path fill-rule="evenodd" clip-rule="evenodd" d="M169.365 175.645L169.045 194.525L172.137 194.497L172.457 175.632L169.365 175.645V175.645ZM255.448 174.087L255.115 193.747L258.071 193.72L258.405 174.075L255.448 174.087V174.087ZM252.812 193.767L253.112 176.069L250.147 176.082L249.847 193.794L252.812 193.767L252.812 193.767ZM247.538 193.815L247.731 182.39L244.759 182.408L244.564 193.842L247.538 193.815V193.815ZM239.534 178.189L239.267 193.89L242.249 193.863L242.515 178.174L239.534 178.189L239.534 178.189ZM236.945 193.911L237.13 183.01L234.141 183.029L233.956 193.938L236.945 193.911V193.911ZM228.708 189.338L228.629 193.986L231.627 193.959L231.706 189.315L228.708 189.338V189.338ZM223.582 176.677L223.288 194.035L226.294 194.007L226.589 176.663L223.582 176.677V176.677ZM220.946 194.056L221.292 173.662L218.278 173.674L217.932 194.083L220.946 194.056L220.946 194.056ZM215.584 194.104L215.742 184.777L212.719 184.797L212.561 194.132L215.584 194.104L215.584 194.104ZM210.206 194.153L210.523 175.472L207.492 175.485L207.174 194.18L210.206 194.153ZM204.813 194.202L205.101 177.24L202.061 177.254L201.773 194.229L204.813 194.202V194.202ZM196.522 184.49L196.356 194.278L199.405 194.251L199.571 184.47L196.522 184.49ZM193.982 194.3L194.223 180.096L191.166 180.113L190.925 194.327L193.982 194.3ZM185.572 188.819L185.478 194.376L188.544 194.348L188.638 188.795L185.572 188.819L185.572 188.819ZM180.234 181.539L180.015 194.426L183.09 194.398L183.308 181.521L180.234 181.539V181.539ZM174.576 192.206L174.538 194.475L177.621 194.447L177.659 192.179L174.576 192.206Z" fill="#98DFB4"/>
</g>
<g clip-path="url(#clip5_16_15)">
<path d="M257.951 153.689L254.995 153.682L255.607 131.99L258.563 132.013L257.951 153.689V153.689ZM172.013 153.501L168.921 153.494L169.547 131.312L172.639 131.336L172.013 153.501ZM177.498 153.513L174.415 153.506L175.04 131.355L178.122 131.379L177.498 153.512L177.498 153.513ZM182.967 153.525L179.893 153.518L180.517 131.398L183.591 131.422L182.967 153.525ZM188.421 153.537L185.355 153.53L185.978 131.441L189.044 131.465L188.421 153.537V153.537ZM193.86 153.549L190.803 153.542L191.425 131.484L194.481 131.508L193.86 153.549V153.549ZM199.283 153.56L196.234 153.554L196.856 131.527L199.904 131.551L199.283 153.56V153.56ZM204.691 153.572L201.651 153.566L202.271 131.569L205.311 131.593L204.691 153.572V153.572ZM210.084 153.584L207.052 153.578L207.672 131.612L210.703 131.636L210.084 153.584ZM215.462 153.596L212.439 153.589L213.058 131.655L216.08 131.678L215.462 153.596V153.596ZM220.825 153.608L217.81 153.601L218.428 131.697L221.442 131.721L220.825 153.608V153.608ZM226.173 153.62L223.167 153.613L223.784 131.74L226.79 131.763L226.173 153.62V153.62ZM231.507 153.631L228.508 153.625L229.124 131.781L232.122 131.805L231.507 153.631L231.507 153.631ZM236.825 153.643L233.835 153.636L234.45 131.823L237.44 131.847L236.825 153.643V153.643ZM242.128 153.654L239.147 153.648L239.761 131.865L242.742 131.889L242.128 153.654ZM247.417 153.666L244.444 153.659L245.058 131.907L248.031 131.931L247.417 153.666V153.666ZM252.692 153.677L249.727 153.671L250.34 131.949L253.304 131.972L252.692 153.677Z" fill="#757575"/>
<path fill-rule="evenodd" clip-rule="evenodd" d="M169.454 134.619L168.921 153.494L172.013 153.501L172.545 134.641L169.454 134.619V134.619ZM255.549 134.027L254.995 153.682L257.951 153.689L258.505 134.049L255.549 134.027V134.027ZM252.692 153.677L253.191 135.983L250.226 135.963L249.727 153.67L252.692 153.677L252.692 153.677ZM247.417 153.666L247.739 142.243L244.766 142.227L244.444 153.659L247.417 153.666V153.666ZM239.59 137.95L239.147 153.647L242.128 153.654L242.571 137.969L239.59 137.95L239.59 137.95ZM236.824 153.643L237.132 142.745L234.142 142.73L233.835 153.636L236.824 153.643V153.643ZM228.639 148.978L228.508 153.624L231.506 153.631L231.637 148.988L228.639 148.978V148.978ZM223.656 136.259L223.166 153.613L226.173 153.619L226.662 136.279L223.656 136.259V136.259ZM220.825 153.607L221.4 133.219L218.386 133.197L217.81 153.601L220.825 153.608L220.825 153.607ZM215.462 153.596L215.725 144.271L212.702 144.257L212.439 153.589L215.462 153.596L215.462 153.596ZM210.084 153.584L210.611 134.908L207.58 134.887L207.052 153.577L210.084 153.584ZM204.691 153.572L205.169 136.615L202.129 136.595L201.651 153.566L204.691 153.572V153.572ZM196.51 143.768L196.234 153.554L199.283 153.56L199.558 143.782L196.51 143.768ZM193.859 153.549L194.26 139.349L191.203 139.331L190.802 153.542L193.859 153.549ZM185.512 147.974L185.355 153.53L188.421 153.536L188.578 147.985L185.512 147.973L185.512 147.974ZM180.256 140.634L179.892 153.518L182.967 153.524L183.33 140.651L180.256 140.634V140.634ZM174.479 151.237L174.415 153.506L177.498 153.513L177.562 151.245L174.479 151.237Z" fill="#98DFB4"/>
</g>
<g clip-path="url(#clip6_16_15)">
<path d="M257.764 112.918L254.807 112.862L255.779 91.183L258.735 91.2555L257.764 112.918V112.918ZM171.841 111.303L168.749 111.245L169.743 89.0757L172.834 89.1514L171.841 111.303ZM177.324 111.406L174.242 111.348L175.234 89.2099L178.316 89.2852L177.324 111.405L177.324 111.406ZM182.793 111.509L179.719 111.451L180.71 89.3441L183.783 89.4193L182.793 111.509ZM188.246 111.611L185.18 111.554L186.17 89.4782L189.235 89.553L188.246 111.611V111.611ZM193.683 111.713L190.626 111.656L191.615 89.6116L194.671 89.6864L193.683 111.713V111.713ZM199.105 111.815L196.057 111.758L197.044 89.7444L200.092 89.8191L199.105 111.815V111.815ZM204.512 111.917L201.473 111.86L202.459 89.8771L205.497 89.9514L204.512 111.917V111.917ZM209.905 112.019L206.873 111.962L207.858 90.0094L210.888 90.0837L209.905 112.019ZM215.282 112.12L212.259 112.063L213.242 90.1414L216.264 90.2153L215.282 112.12V112.12ZM220.644 112.221L217.63 112.164L218.611 90.2731L221.625 90.3469L220.644 112.221V112.221ZM225.991 112.321L222.985 112.265L223.965 90.4044L226.971 90.4778L225.991 112.321V112.321ZM231.323 112.421L228.326 112.365L229.305 90.5347L232.302 90.6081L231.323 112.421L231.323 112.421ZM236.641 112.521L233.651 112.465L234.629 90.6653L237.618 90.7383L236.641 112.521V112.521ZM241.944 112.621L238.963 112.565L239.939 90.7955L242.919 90.8685L241.944 112.621ZM247.232 112.72L244.259 112.664L245.234 90.9251L248.206 90.9981L247.232 112.72V112.72ZM252.505 112.819L249.541 112.764L250.514 91.0544L253.478 91.127L252.505 112.819Z" fill="#757575"/>
<path fill-rule="evenodd" clip-rule="evenodd" d="M169.595 92.3809L168.749 111.245L171.841 111.303L172.686 92.454L169.595 92.3809V92.3809ZM255.688 93.2191L254.807 112.862L257.764 112.918L258.644 93.29L255.688 93.2191V93.2191ZM252.505 112.819L253.298 95.1361L250.334 95.0664L249.54 112.763L252.505 112.819L252.505 112.819ZM247.231 112.72L247.743 101.304L244.771 101.239L244.259 112.664L247.231 112.72V112.72ZM239.666 96.877L238.962 112.564L241.943 112.62L242.646 96.9448L239.666 96.8766L239.666 96.877ZM236.64 112.521L237.129 101.63L234.14 101.565L233.651 112.465L236.64 112.521V112.521ZM228.534 107.721L228.325 112.365L231.323 112.421L231.531 107.781L228.534 107.721V107.721ZM223.762 94.9214L222.985 112.264L225.991 112.321L226.768 94.9913L223.762 94.9214V94.9214ZM220.644 112.22L221.557 91.8443L218.544 91.7717L217.629 112.164L220.644 112.22L220.644 112.22ZM215.282 112.119L215.7 102.8L212.677 102.736L212.259 112.063L215.282 112.12L215.282 112.119ZM209.905 112.018L210.742 93.3537L207.711 93.282L206.873 111.961L209.905 112.018ZM204.512 111.917L205.272 94.9699L202.233 94.8994L201.473 111.86L204.512 111.917V111.917ZM196.496 101.978L196.057 111.758L199.105 111.815L199.543 102.043L196.496 101.978ZM193.683 111.713L194.319 97.5222L191.263 97.4535L190.626 111.656L193.683 111.713ZM185.429 106.001L185.18 111.553L188.245 111.611L188.494 106.062L185.429 106L185.429 106.001ZM180.296 98.5748L179.718 111.451L182.792 111.508L183.369 98.6427L180.296 98.5748V98.5748ZM174.343 109.08L174.242 111.348L177.324 111.406L177.426 109.14L174.343 109.08Z" fill="#98DFB4"/>
</g>
<g clip-path="url(#clip7_16_15)">
<path d="M258.436 397.679L255.482 397.818L255.027 376.122L257.98 376L258.436 397.679V397.679ZM172.592 401.718L169.504 401.863L169.038 379.677L172.127 379.549L172.592 401.718ZM178.071 401.46L174.991 401.605L174.526 379.449L177.606 379.322L178.071 401.46L178.071 401.46ZM183.534 401.203L180.463 401.347L179.998 379.223L183.07 379.096L183.534 401.203ZM188.982 400.947L185.919 401.091L185.456 378.998L188.519 378.871L188.982 400.947V400.947ZM194.415 400.691L191.361 400.835L190.898 378.773L193.952 378.647L194.415 400.691V400.691ZM199.832 400.436L196.787 400.58L196.324 378.549L199.37 378.423L199.832 400.436V400.436ZM205.234 400.182L202.197 400.325L201.735 378.325L204.772 378.199L205.234 400.182V400.182ZM210.621 399.929L207.593 400.071L207.131 378.102L210.16 377.977L210.621 399.929ZM215.993 399.676L212.973 399.818L212.513 377.88L215.533 377.755L215.993 399.676V399.676ZM221.35 399.424L218.339 399.566L217.879 377.658L220.891 377.534L221.35 399.424V399.424ZM226.693 399.173L223.689 399.314L223.23 377.437L226.234 377.313L226.693 399.173V399.173ZM232.02 398.922L229.025 399.063L228.566 377.216L231.562 377.092L232.02 398.922L232.02 398.922ZM237.332 398.672L234.346 398.813L233.888 376.996L236.875 376.873L237.332 398.672V398.672ZM242.63 398.423L239.652 398.563L239.195 376.777L242.173 376.654L242.63 398.423ZM247.913 398.175L244.943 398.314L244.487 376.558L247.457 376.436L247.913 398.175V398.175ZM253.182 397.927L250.22 398.066L249.764 376.34L252.726 376.218L253.182 397.927Z" fill="#757575"/>
<path fill-rule="evenodd" clip-rule="evenodd" d="M169.107 382.984L169.504 401.863L172.592 401.718L172.196 382.854L169.107 382.984V382.984ZM255.069 378.16L255.482 397.818L258.436 397.679L258.023 378.036L255.069 378.16V378.16ZM253.182 397.927L252.81 380.23L249.848 380.355L250.22 398.066L253.182 397.926L253.182 397.927ZM247.913 398.174L247.673 386.75L244.703 386.881L244.943 398.314L247.913 398.174V398.174ZM239.322 382.863L239.652 398.563L242.63 398.423L242.3 382.735L239.322 382.863L239.322 382.863ZM237.332 398.672L237.103 387.772L234.116 387.905L234.345 398.813L237.332 398.672V398.672ZM228.927 394.416L229.025 399.063L232.02 398.922L231.922 394.278L228.927 394.416V394.416ZM223.325 381.958L223.689 399.314L226.692 399.173L226.328 381.83L223.325 381.958V381.958ZM221.35 399.424L220.922 379.032L217.91 379.158L218.339 399.566L221.35 399.424L221.35 399.424ZM215.993 399.676L215.797 390.349L212.777 390.484L212.973 399.818L215.993 399.676L215.993 399.676ZM210.621 399.929L210.229 381.25L207.2 381.377L207.593 400.071L210.621 399.929ZM205.234 400.182L204.878 383.222L201.84 383.351L202.197 400.325L205.234 400.182V400.182ZM196.581 390.792L196.786 400.58L199.831 400.436L199.626 390.657L196.581 390.792ZM194.414 400.691L194.116 386.489L191.062 386.621L191.36 400.835L194.414 400.691ZM185.802 395.534L185.919 401.09L188.982 400.946L188.865 395.394L185.802 395.533L185.802 395.534ZM180.192 388.461L180.463 401.347L183.534 401.203L183.263 388.327L180.192 388.461V388.461ZM174.943 399.335L174.991 401.605L178.071 401.46L178.023 399.192L174.943 399.335Z" fill="#98DFB4"/>
</g>
<path fill-rule="evenodd" clip-rule="evenodd" d="M115.605 25.5249C91.1094 28.6109 69.4204 45.3679 59.6355 67.9721C58.3976 70.8337 55.6377 72.6792 52.7717 72.5789C50.6222 72.5026 48.4292 72.6231 46.2547 72.9363C27.4418 75.6432 12.2483 93.0745 11.078 112.657C10.4442 123.262 13.7039 133.17 20.3214 140.64C27.0276 148.212 36.3264 152.345 46.5922 152.2L71.7603 151.847C72.9221 151.83 73.8444 152.787 73.8182 153.983L73.3978 173.249C73.3717 174.444 72.4084 175.404 71.2479 175.395L61.4003 175.319L85.2098 203.44L91.8555 205.858L92.3088 204.728L116.591 179.187L118.373 178.012L111.402 175.707L101.115 175.627C99.8925 175.618 98.9258 174.619 98.9535 173.396L106.702 134.783L99.8718 132.765L86.77 133.17C85.9159 133.197 85.1548 132.71 84.8272 131.929C84.4997 131.148 84.6669 130.219 85.2535 129.557L116.722 94.0881C117.608 93.0879 119.264 92.9791 120.111 93.8684L151.954 127.271C152.583 127.93 152.725 128.907 152.315 129.761C151.906 130.614 151.025 131.183 150.067 131.212L135.758 131.655L135.301 150.954L142.575 153.152L189.01 150.199C209.177 149.915 226.776 134.504 227.617 115.826C228.037 106.491 224.376 97.9091 217.37 91.7205C213.738 88.5123 216.677 87.7819 211.952 86.3658C211.118 86.1158 203.127 84.3034 202.281 84.1152C198.781 83.3365 195.1 83.0654 191.338 83.3281C190.764 83.3682 190.195 83.42 189.629 83.484C185.182 84.0035 181.466 81.2073 181.133 77.1558C178.587 46.1175 154.02 25.0023 123.892 24.9999C121.17 24.9996 118.407 25.1719 115.605 25.5248V25.5249Z" fill="#189599"/>
<path fill-rule="evenodd" clip-rule="evenodd" d="M122.64 26.9037C97.8362 29.9796 75.8876 46.8108 65.9832 69.5357C65.1917 71.3491 63.7866 72.7608 62.1233 73.5183C61.1598 73.9716 60.1047 74.1954 59.038 74.1552C56.8644 74.0748 54.6449 74.1954 52.4427 74.5053C33.4134 77.2024 18.0434 94.7109 16.8561 114.4C16.2139 125.062 19.5116 135.03 26.2045 142.559C32.9892 150.186 42.3946 154.358 52.781 154.231L78.2448 153.927C79.4206 153.91 80.3555 154.874 80.3269 156.079L79.9024 175.459C79.8738 176.664 78.8988 177.628 77.7288 177.616L67.7611 177.519L91.8542 205.856L118.373 178.012L107.958 177.909C106.72 177.897 105.739 176.893 105.768 175.659L106.703 134.783L93.4371 135.168C92.5769 135.191 91.8026 134.703 91.4757 133.911C91.1432 133.131 91.3095 132.195 91.906 131.53L123.764 95.8987C124.665 94.8887 126.339 94.7854 127.194 95.6806L159.443 129.349C160.079 130.015 160.223 130.996 159.81 131.857C159.397 132.712 158.502 133.286 157.533 133.314L143.04 133.733L142.576 153.153L196.985 152.493C211.741 152.321 225.139 144.201 231.768 132.626C234.326 128.167 235.88 123.192 236.116 117.964C236.546 108.564 232.835 99.9157 225.735 93.6779C218.71 87.5032 209.315 84.5076 199.348 85.1848C198.768 85.225 198.189 85.2766 197.616 85.3397C193.108 85.8561 189.346 83.0329 189.007 78.9584C186.427 47.681 161.498 26.3859 130.947 26.3862C128.219 26.3862 125.446 26.556 122.641 26.9036L122.64 26.9037Z" fill="#9EE9BC"/>
<defs>
<filter id="filter0_d_16_15" x="54.7956" y="112.008" width="366.204" height="296.407" filterUnits="userSpaceOnUse" color-interpolation-filters="sRGB">
<feFlood flood-opacity="0" result="BackgroundImageFix"/>
<feColorMatrix in="SourceAlpha" type="matrix" values="0 0 0 0 0 0 0 0 0 0 0 0 0 0 0 0 0 0 127 0" result="hardAlpha"/>
<feOffset/>
<feGaussianBlur stdDeviation="15"/>
<feComposite in2="hardAlpha" operator="out"/>
<feColorMatrix type="matrix" values="0 0 0 0 0 0 0 0 0 0 0 0 0 0 0 0 0 0 0.1 0"/>
<feBlend mode="normal" in2="BackgroundImageFix" result="effect1_dropShadow_16_15"/>
<feBlend mode="normal" in="SourceGraphic" in2="effect1_dropShadow_16_15" result="shape"/>
</filter>
<filter id="filter1_d_16_15" x="122.787" y="0.91861" width="241.68" height="407.497" filterUnits="userSpaceOnUse" color-interpolation-filters="sRGB">
<feFlood flood-opacity="0" result="BackgroundImageFix"/>
<feColorMatrix in="SourceAlpha" type="matrix" values="0 0 0 0 0 0 0 0 0 0 0 0 0 0 0 0 0 0 127 0" result="hardAlpha"/>
<feOffset/>
<feGaussianBlur stdDeviation="15"/>
<feComposite in2="hardAlpha" operator="out"/>
<feColorMatrix type="matrix" values="0 0 0 0 0 0 0 0 0 0 0 0 0 0 0 0 0 0 0.1 0"/>
<feBlend mode="normal" in2="BackgroundImageFix" result="effect1_dropShadow_16_15"/>
<feBlend mode="normal" in="SourceGraphic" in2="effect1_dropShadow_16_15" result="shape"/>
</filter>
<filter id="filter2_d_16_15" x="0.920074" y="39.2325" width="173.034" height="430.767" filterUnits="userSpaceOnUse" color-interpolation-filters="sRGB">
<feFlood flood-opacity="0" result="BackgroundImageFix"/>
<feColorMatrix in="SourceAlpha" type="matrix" values="0 0 0 0 0 0 0 0 0 0 0 0 0 0 0 0 0 0 127 0" result="hardAlpha"/>
<feOffset/>
<feGaussianBlur stdDeviation="15"/>
<feComposite in2="hardAlpha" operator="out"/>
<feColorMatrix type="matrix" values="0 0 0 0 0 0 0 0 0 0 0 0 0 0 0 0 0 0 0.1 0"/>
<feBlend mode="normal" in2="BackgroundImageFix" result="effect1_dropShadow_16_15"/>
<feBlend mode="normal" in="SourceGraphic" in2="effect1_dropShadow_16_15" result="shape"/>
</filter>
<filter id="filter3_d_16_15" x="81.709" y="39.1815" width="228.829" height="430.818" filterUnits="userSpaceOnUse" color-interpolation-filters="sRGB">
<feFlood flood-opacity="0" result="BackgroundImageFix"/>
<feColorMatrix in="SourceAlpha" type="matrix" values="0 0 0 0 0 0 0 0 0 0 0 0 0 0 0 0 0 0 127 0" result="hardAlpha"/>
<feOffset/>
<feGaussianBlur stdDeviation="15"/>
<feComposite in2="hardAlpha" operator="out"/>
<feColorMatrix type="matrix" values="0 0 0 0 0 0 0 0 0 0 0 0 0 0 0 0 0 0 0.1 0"/>
<feBlend mode="normal" in2="BackgroundImageFix" result="effect1_dropShadow_16_15"/>
<feBlend mode="normal" in="SourceGraphic" in2="effect1_dropShadow_16_15" result="shape"/>
</filter>
<clipPath id="clip0_16_15">
<rect width="89" height="24" fill="white" transform="translate(169.171 336.199) rotate(-0.344522)"/>
</clipPath>
<clipPath id="clip1_16_15">
<rect width="89" height="24" fill="white" transform="translate(169.171 294.535) rotate(-0.344522)"/>
</clipPath>
<clipPath id="clip2_16_15">
<rect width="89" height="24" fill="white" transform="translate(169.171 253.535) rotate(-0.344522)"/>
</clipPath>
<clipPath id="clip3_16_15">
<rect width="89" height="24" fill="white" transform="translate(169.319 211.985) rotate(0.36327)"/>
</clipPath>
<clipPath id="clip4_16_15">
<rect width="89" height="24" fill="white" transform="translate(169.452 170.528) rotate(0.972383)"/>
</clipPath>
<clipPath id="clip5_16_15">
<rect width="89" height="24" fill="white" transform="translate(169.598 129.503) rotate(1.61579)"/>
</clipPath>
<clipPath id="clip6_16_15">
<rect width="89" height="24" fill="white" transform="translate(169.824 87.2687) rotate(2.56738)"/>
</clipPath>
<clipPath id="clip7_16_15">
<rect width="89" height="24" fill="white" transform="translate(169 377.868) rotate(-1.2028)"/>
</clipPath>
</defs>
</svg>
