<svg width="18" height="18" viewBox="0 0 18 18" fill="none" xmlns="http://www.w3.org/2000/svg">
<path d="M8.76436 17.5385C6.36877 17.5385 6.08636 17.5258 5.1515 17.485C4.42247 17.461 3.70288 17.3131 3.0237 17.0474C1.84861 16.5907 0.91942 15.6625 0.462563 14.489C0.206747 13.8083 0.0687682 13.0892 0.0545331 12.3623C-6.35963e-07 11.4307 -6.18975e-07 11.1254 -4.86913e-07 8.75173C-3.53445e-07 6.35278 0.0126593 6.07273 0.0545335 5.14407C0.0690801 4.41818 0.207054 3.70004 0.462563 3.02032C0.918925 1.84518 1.84962 0.916182 3.02663 0.460924C3.70698 0.204404 4.42634 0.0662647 5.15344 0.0525106C6.08344 3.3846e-07 6.38922 3.55472e-07 8.76436 4.87616e-07C11.1794 6.21982e-07 11.457 0.012642 12.3772 0.0525111C13.1062 0.0663841 13.8275 0.204509 14.5099 0.460925C15.6866 0.916698 16.6171 1.84552 17.0739 3.02032C17.3341 3.70995 17.4728 4.43932 17.4839 5.17616C17.5385 6.10773 17.5385 6.4121 17.5385 8.78479C17.5385 11.1575 17.5248 11.4687 17.4839 12.3895C17.4694 13.1171 17.3311 13.8369 17.0749 14.5181C16.6169 15.6925 15.6863 16.6211 14.5099 17.0775C13.8285 17.3325 13.1087 17.4703 12.3811 17.485C11.4511 17.5385 11.1463 17.5385 8.76436 17.5385ZM8.73125 1.53933C6.34929 1.53933 6.10194 1.551 5.17195 1.59281C4.61686 1.60016 4.06713 1.70245 3.54664 1.89524C2.77806 2.18891 2.16989 2.79374 1.87265 3.56001C1.6781 4.0854 1.57564 4.64034 1.56979 5.20047C1.51818 6.14274 1.51818 6.38973 1.51818 8.75173C1.51818 11.0855 1.52695 11.3685 1.56979 12.3049C1.57851 12.8594 1.6809 13.4084 1.87265 13.9289C2.17032 14.6946 2.77839 15.299 3.54664 15.5927C4.06677 15.7867 4.61673 15.8891 5.17195 15.8951C6.1146 15.9495 6.36293 15.9495 8.73125 15.9495C11.12 15.9495 11.3674 15.9379 12.2896 15.8951C12.845 15.8883 13.3952 15.786 13.9159 15.5927C14.6798 15.2965 15.284 14.6935 15.5811 13.9308C15.7753 13.405 15.8777 12.8498 15.8839 12.2894L15.8947 12.2894C15.9365 11.3597 15.9365 11.1118 15.9365 8.73617C15.9365 6.36056 15.9258 6.11065 15.8839 5.182C15.8752 4.62816 15.7728 4.07978 15.5811 3.56001C15.2847 2.79625 14.6804 2.19211 13.9159 1.89524C13.3953 1.70147 12.8451 1.59916 12.2896 1.59282C11.3479 1.53933 11.1015 1.53933 8.73125 1.53933ZM8.76436 13.2433C6.94331 13.2445 5.3009 12.1501 4.6031 10.4704C3.90531 8.7908 4.28958 6.85681 5.5767 5.57044C6.86382 4.28406 8.80026 3.89867 10.4829 4.59401C12.1656 5.28934 13.263 6.92844 13.2634 8.74687C13.2607 11.2276 11.2486 13.2385 8.76436 13.2433ZM8.76436 5.82768C7.15089 5.82768 5.84291 7.13377 5.84291 8.74492C5.84291 10.3561 7.15089 11.6622 8.76436 11.6622C10.3778 11.6622 11.6858 10.3561 11.6858 8.74492C11.6821 7.13533 10.3763 5.83142 8.76436 5.82768ZM13.4387 5.13435C12.8597 5.1322 12.3917 4.66233 12.3928 4.08415C12.3939 3.50597 12.8636 3.03783 13.4426 3.03783C14.0216 3.03783 14.4913 3.50596 14.4924 4.08414C14.4926 4.36309 14.3816 4.63066 14.1839 4.82772C13.9862 5.02479 13.718 5.13512 13.4387 5.13435Z" fill="#98DFB4"/>
</svg>
