<svg width="144" height="21" viewBox="0 0 144 21" fill="none" xmlns="http://www.w3.org/2000/svg">
<path d="M0 0H2.18548V7.68362L10.7971 0H13.6894L3.3375 9.18679L14.4959 20.4853H11.6298L2.18548 10.9175V20.4853H0V0H0ZM103.621 0H107.908C110.297 0 111.919 0.0944101 112.766 0.279818C114.048 0.555655 115.083 1.15055 115.881 2.06849C116.684 2.98074 117.084 4.10855 117.084 5.44394C117.084 6.55752 116.808 7.53632 116.255 8.37805C115.706 9.22489 114.92 9.86131 113.893 10.2947C112.871 10.7275 111.454 10.9453 109.648 10.9556L117.382 20.4853H114.744L107.011 10.9556V8.96896L109.483 8.98716C110.925 8.98716 111.987 8.8592 112.675 8.59758C113.362 8.33596 113.902 7.92135 114.29 7.35034C114.674 6.78104 114.869 6.14235 114.869 5.4337C114.869 4.74894 114.674 4.1222 114.28 3.56085C113.892 2.99951 113.378 2.60083 112.74 2.35741C112.106 2.1157 111.049 1.99626 109.573 1.99626H105.774V6.60245H103.62V0L103.621 0ZM133.978 0L144 20.4853H141.691L139.092 15.2688L137.366 11.7541H137.387L133.708 4.29794L130.013 11.7541H130.016L129.026 13.752L127.969 15.8865L125.689 20.4853H123.297L133.437 0H133.978V0ZM82.0343 18.4879H89.6046H92.0865V20.4859H79.8801V18.4879H82.0343ZM84.7991 8.41672H92.3695H94.8513V10.4147H92.3695H84.7991H82.645V8.41672H84.7991ZM85.4104 0.000568736H97.7062V1.9974H95.1349H87.5646H85.4104V0.000568736ZM60.2433 0.000568736H64.7602C66.5782 0.000568736 67.9774 0.190526 68.9511 0.575561C69.9286 0.960595 70.6998 1.55549 71.2646 2.354C71.8339 3.14852 72.1152 4.03689 72.1152 5.00715C72.1152 5.9194 71.8647 6.74748 71.3703 7.49423C70.8748 8.24098 70.1461 8.84441 69.1893 9.31077C70.3793 9.67249 71.2948 10.0956 71.9335 10.5847C72.5766 11.0699 73.0721 11.6602 73.4272 12.3535C73.784 13.044 73.9651 13.7947 73.9651 14.6034C73.9651 16.2482 73.2941 17.6416 71.9497 18.7791C70.6047 19.9154 68.8012 20.4859 66.5346 20.4859H60.2421V0.000568736H60.2433ZM62.4785 1.9974V8.56061H63.791C65.3865 8.56061 66.5615 8.42696 67.312 8.16534C68.0613 7.8986 68.6586 7.48058 69.0937 6.91014C69.536 6.33913 69.7524 5.70215 69.7524 5.00772C69.7524 4.07158 69.3856 3.3345 68.6513 2.79591C67.9126 2.26414 66.7432 1.9974 65.1371 1.9974H62.4785ZM62.4785 10.6149V18.4885H65.3233C66.9971 18.4885 68.2269 18.3423 69.0081 18.0511C69.7894 17.7571 70.4179 17.2964 70.891 16.6731C71.3647 16.0486 71.603 15.3741 71.603 14.6512C71.603 13.7389 71.268 12.9399 70.6047 12.2597C69.9398 11.5846 69.0238 11.1182 67.8589 10.8668C67.0776 10.7008 65.7148 10.6149 63.7743 10.6149H62.478H62.4785ZM40.0858 0.00113747H42.241V12.374C42.241 13.839 42.2712 14.7558 42.3311 15.1187C42.4345 15.9269 42.6851 16.602 43.0732 17.1434C43.463 17.686 44.0619 18.1432 44.8689 18.5089C45.6764 18.8741 46.489 19.06 47.3116 19.06C48.0196 19.06 48.7041 18.9184 49.3567 18.6284C50.0037 18.3429 50.554 17.9436 50.9919 17.4289C51.4314 16.9199 51.7497 16.3028 51.9543 15.5799C52.0997 15.0567 52.1741 13.9909 52.1741 12.374V0.00113747H54.3283V12.3643C54.3283 14.1951 54.1387 15.6744 53.7657 16.8016C53.391 17.9277 52.6372 18.9133 51.5148 19.7442C50.3896 20.582 49.0279 21 47.4268 21C45.6921 21 44.2056 20.6064 42.968 19.8159C41.7265 19.0271 40.8994 17.9851 40.4806 16.6822C40.2149 15.8837 40.0852 14.4482 40.0852 12.3643V0.00113747H40.0858ZM20.4097 0.00113747H24.6968C27.0858 0.00113747 28.7076 0.0955476 29.5549 0.280955C30.8366 0.556792 31.8718 1.15169 32.6698 2.06963C33.4728 2.98188 33.8727 4.10968 33.8727 5.44508C33.8727 6.55866 33.5975 7.53746 33.0445 8.37918C32.4953 9.22603 31.709 9.86245 30.6817 10.2958C29.66 10.7286 28.2429 10.9465 26.4371 10.9567L34.1708 20.4864H31.5329L23.8004 10.9567V8.9701L26.2722 8.9883C27.7144 8.9883 28.7758 8.86034 29.4643 8.59872C30.1516 8.3371 30.6907 7.92249 31.0793 7.35148C31.4635 6.78217 31.6587 6.14348 31.6587 5.43484C31.6587 4.75008 31.4641 4.12333 31.0698 3.56199C30.6811 3.00065 30.1672 2.60197 29.5297 2.35855C28.8955 2.11683 27.8391 1.9974 26.3622 1.9974H22.5633V6.60359H20.4092V0.00113747H20.4097Z" fill="#1E999B"/>
</svg>
