<svg width="423" height="422" viewBox="0 0 423 422" fill="none" xmlns="http://www.w3.org/2000/svg">
<g filter="url(#filter0_d_7_57)">
<path fill-rule="evenodd" clip-rule="evenodd" d="M299.067 228.39C297.466 227.982 294.339 225.691 293.772 224.757C289.991 218.545 282.157 207.375 283.522 199.81C283.754 198.516 289.715 198.009 290.674 196.912C294.395 195.666 295.765 195.462 298.72 192.54C307.448 183.909 292.311 163.917 313.182 160.036C328.472 157.194 340.303 163.761 341.469 140.706C342.631 117.648 365.779 78.1614 388.012 97.0123C400.774 107.831 384.366 125.588 389.773 140.786C394.912 155.23 387.784 165.757 372.319 172.196C356.854 178.636 363.834 185.853 366.485 199.311C369.672 215.475 345.402 215.359 334.202 214.345C325.181 213.531 301.666 217.543 299.067 228.386V228.39Z" fill="#8FD6AB"/>
</g>
<path d="M288.773 212.968L288.657 212.633C314.332 203.73 336.586 187.203 353.013 164.843C367.911 144.559 377.842 119.875 381.855 93.2319C381.966 93.2758 382.082 93.3277 382.194 93.3757C378.165 120.039 368.218 144.75 353.3 165.055C336.829 187.474 314.52 204.046 288.773 212.972V212.968Z" fill="#FCFDFE"/>
<path d="M366.394 204.928C352.753 199.339 331.051 196.836 316.584 199.355L316.525 199.004C331.031 196.481 352.789 198.984 366.489 204.585C366.461 204.7 366.429 204.816 366.398 204.932L366.394 204.928Z" fill="#FCFDFE"/>
<path d="M298.764 209.375L298.56 209.084C305.14 204.441 309.117 196.648 310.387 185.925C311.238 178.723 310.87 170.38 309.297 161.09C309.409 161.046 309.521 161.002 309.637 160.962C311.226 170.316 311.597 178.715 310.743 185.965C309.461 196.792 305.432 204.668 298.768 209.371L298.764 209.375Z" fill="#FCFDFE"/>
<path d="M355.405 161.937L355.185 161.657C366.086 153.09 380.317 151.525 391.298 151.944C391.286 152.064 391.27 152.18 391.254 152.3C380.341 151.884 366.214 153.445 355.405 161.937Z" fill="#FCFDFE"/>
<path d="M371.992 131.349L371.644 131.281C372.91 124.77 373.521 111.983 365.004 95.6631C365.104 95.5992 365.204 95.5353 365.303 95.4714C373.884 111.899 373.269 124.79 371.992 131.353V131.349Z" fill="#FCFDFE"/>
<g filter="url(#filter1_d_7_57)">
<path fill-rule="evenodd" clip-rule="evenodd" d="M314.931 230.593C306.071 229.4 297.214 228.003 288.37 226.406C288.23 226.537 285.095 207.347 294.108 197.155C311.933 177.402 299.554 160.024 295.956 149.677C290.278 135.109 292.978 119.225 307.876 118.809C324.395 118.023 327.058 90.6409 323.76 65.8018C321.296 53.6976 332.569 38.8389 343.953 35.3378C355.572 31.4694 367.304 38.9547 371.165 63.0951C376.907 91.0281 356.674 108.162 349.275 122.291C341.996 136.159 359.454 147.102 345.662 159.481C334.066 170.472 319.38 178.452 324.95 192.013C330.668 205.419 329.474 216.449 314.931 230.597V230.593Z" fill="#9EE9BC"/>
</g>
<path d="M303.348 228.917C305.428 218.88 312.947 184.895 324.81 151.617C326.747 145.217 328.855 138.766 330.895 132.522C341.509 100.03 351.571 69.2231 342.707 35.761C342.819 35.7171 342.927 35.6771 343.038 35.6372C346.784 49.8692 347.399 64.9196 344.927 81.3991C342.352 98.6012 336.697 115.899 331.235 132.63C329.198 138.87 327.09 145.325 325.149 151.729C313.642 184.001 305.767 218.805 303.671 228.965L303.348 228.913V228.917Z" fill="#FCFDFE"/>
<path d="M341.078 100.222L340.81 99.9866C350.541 88.9084 362.253 73.1953 368.542 64.7519C369.496 63.4705 370.275 62.4285 370.906 61.5862C370.934 61.7459 370.962 61.9056 370.99 62.0652C370.339 62.9355 369.604 63.9176 368.825 64.9635C362.528 73.4109 350.813 89.132 341.074 100.218L341.078 100.222Z" fill="#FCFDFE"/>
<path d="M343.881 85.1598C341.689 72.6284 336.414 64.4326 332.377 59.7618C329.626 56.58 327.022 54.5161 325.333 53.3903C325.381 53.2705 325.433 53.1508 325.485 53.031C330.352 56.1728 340.894 66.0174 344.232 85.0959L343.881 85.1558V85.1598Z" fill="#FCFDFE"/>
<path d="M316.808 177.47L316.453 177.434C317.703 165.737 314.824 153.202 307.908 140.183C304.909 134.542 301.239 129.005 296.975 123.676C297.051 123.584 297.13 123.492 297.21 123.4C301.507 128.762 305.204 134.335 308.223 140.016C315.179 153.098 318.066 165.697 316.812 177.47H316.808Z" fill="#FCFDFE"/>
<path d="M320.645 165.122L320.338 164.939C328.767 150.942 345.063 147.341 351.024 146.503C351.04 146.623 351.048 146.742 351.06 146.858C345.226 147.689 329.011 151.23 320.645 165.122Z" fill="#FCFDFE"/>
<path d="M304.51 225.264L304.154 225.256C304.278 220.17 302.357 211.535 292.502 199.247C292.57 199.143 292.642 199.043 292.714 198.94L292.758 198.996C302.701 211.379 304.637 220.118 304.51 225.264Z" fill="#FCFDFE"/>
<path d="M306.642 215.655L306.298 215.559C307.337 211.81 311.401 204.565 326.87 197.311C326.902 197.427 326.938 197.542 326.97 197.658C311.673 204.84 307.664 211.97 306.642 215.655Z" fill="#FCFDFE"/>
<g filter="url(#filter2_d_7_57)">
<path fill-rule="evenodd" clip-rule="evenodd" d="M53.0763 43.2621V372.191C53.0763 379.496 58.6386 385.117 65.4467 384.722L294.794 371.336C300.74 370.989 305.56 365.18 305.56 358.386V52.5598C305.56 45.7652 300.736 40.0445 294.794 39.801L65.4467 30.5073C65.287 30.4993 65.1313 30.4993 64.9755 30.4993C58.383 30.4993 53.0763 36.1242 53.0763 43.2621Z" fill="#FAFAFA"/>
</g>
<path fill-rule="evenodd" clip-rule="evenodd" d="M59.8086 43.2621V372.191C59.8086 379.496 65.3709 385.117 72.179 384.722L301.527 371.336C307.472 370.989 312.292 365.18 312.292 358.386V52.5598C312.292 45.7652 307.468 40.0445 301.527 39.801L72.179 30.5073C72.0193 30.4993 71.8635 30.4993 71.7078 30.4993C65.1153 30.4993 59.8086 36.1242 59.8086 43.2621Z" fill="white"/>
<path fill-rule="evenodd" clip-rule="evenodd" d="M65.5785 43.4738V371.875C65.5785 375.78 68.5373 378.778 72.179 378.574L253.57 368.302L301.531 365.588C304.717 365.408 307.293 362.306 307.293 358.665V52.3802C307.293 48.7394 304.713 45.6854 301.531 45.5617L251.841 43.6334L72.183 36.6632C72.1031 36.6592 72.0192 36.6592 71.9394 36.6592C68.4095 36.6592 65.5785 39.6613 65.5785 43.4778V43.4738Z" fill="#1A1A1A"/>
<path d="M304.114 344.497C304.114 345.851 303.028 347.008 301.69 347.08L71.9913 358.821C70.466 358.901 69.2201 357.783 69.2201 356.334V43.4819C69.2201 42.0327 70.462 40.899 71.9913 40.9549L301.69 49.5899C303.028 49.6418 304.114 50.7835 304.114 52.1368V344.493V344.497Z" fill="#585858"/>
<path fill-rule="evenodd" clip-rule="evenodd" d="M163.695 363.388V363.56C163.695 365.831 165.72 367.56 168.211 367.42L214.854 364.857C217.278 364.725 219.242 362.805 219.242 360.573V360.406C219.242 358.25 217.414 356.585 215.11 356.585C215.026 356.585 214.942 356.589 214.854 356.593L168.211 359.045C165.72 359.176 163.695 361.12 163.695 363.392V363.388Z" fill="#838383"/>
<path fill-rule="evenodd" clip-rule="evenodd" d="M188.256 41.1624C188.256 42.372 189.327 43.394 190.648 43.4419C191.966 43.4938 193.036 42.5556 193.036 41.346C193.036 40.1404 191.966 39.1184 190.648 39.0665C190.612 39.0665 190.576 39.0625 190.544 39.0625C189.275 39.0625 188.26 39.9847 188.26 41.1584L188.256 41.1624Z" fill="url(#paint0_linear_7_57)"/>
<path fill-rule="evenodd" clip-rule="evenodd" d="M81.327 349L287.711 333.782V42.1924L82.4331 37.29L81.327 349Z" fill="#7C7C7C"/>
<path d="M188.616 81.004L95.1589 80.0339L95.2427 54.061L188.66 55.7936L188.616 81.004Z" fill="white"/>
<path d="M149.312 146.79L119.321 147.11L119.409 114.354L149.384 114.358L149.312 146.79Z" fill="white"/>
<path d="M264.411 129.84L158.928 130.482L158.96 114.31L264.415 114.219L264.411 129.84Z" fill="white"/>
<path d="M149.169 212.254L119.141 213.232L119.229 180.404L149.24 179.75L149.169 212.254Z" fill="white"/>
<path d="M264.388 192.876L158.792 195.742L158.824 179.534L264.392 177.222L264.388 192.876Z" fill="white"/>
<path d="M149.021 277.856L118.957 279.497L119.049 246.598L149.093 245.284L149.021 277.856Z" fill="white"/>
<path d="M264.364 256.043L158.656 261.141L158.688 244.901L264.372 240.358L264.364 256.043Z" fill="white"/>
<path d="M205.311 339.335L81.4428 348.469L82.493 36.759L159.007 38.5874C144.046 64.3168 125.789 115.708 177.998 163.873C231.062 212.824 252.333 287.661 205.311 339.335Z" fill="#9F9F9F"/>
<path fill-rule="evenodd" clip-rule="evenodd" d="M88.5823 331.71L212.45 322.576L294.854 316.492V24.9023L166.147 21.8284L89.6325 20L88.5823 331.71Z" fill="white"/>
<path d="M212.45 322.576L88.5823 331.71L89.6325 20L166.147 21.8284C151.185 47.5577 132.929 98.9486 185.138 147.114C238.201 196.065 259.472 270.902 212.45 322.576Z" fill="#FEFEFE"/>
<path fill-rule="evenodd" clip-rule="evenodd" d="M195.983 63.7139L102.526 62.7438L102.61 36.7749L196.027 38.5035L195.983 63.7139Z" fill="url(#paint1_linear_7_57)"/>
<path fill-rule="evenodd" clip-rule="evenodd" d="M158.784 131.66L128.792 131.984L128.88 99.2241L158.86 99.2281L158.784 131.66Z" fill="url(#paint2_linear_7_57)"/>
<path d="M273.883 114.714L168.399 115.352L168.431 99.1841L273.887 99.0923L273.883 114.714Z" fill="#F2F2F2"/>
<path fill-rule="evenodd" clip-rule="evenodd" d="M158.64 197.123L128.612 198.105L128.7 165.274L158.712 164.619L158.64 197.123Z" fill="url(#paint3_linear_7_57)"/>
<path d="M273.859 177.749L168.263 180.612L168.295 164.408L273.863 162.096L273.859 177.749Z" fill="#F2F2F2"/>
<path fill-rule="evenodd" clip-rule="evenodd" d="M158.492 262.726L128.429 264.371L128.521 231.468L158.564 230.154L158.492 262.726Z" fill="url(#paint4_linear_7_57)"/>
<path d="M273.835 240.917L168.128 246.011L168.163 229.771L273.843 225.232L273.835 240.917Z" fill="#F2F2F2"/>
<path fill-rule="evenodd" clip-rule="evenodd" d="M70.1305 269.764C70.1385 270.08 70.1625 270.391 70.1944 270.702C67.2755 271.533 64.4085 272.599 61.6174 273.884C61.4856 273.613 61.3459 273.345 61.1901 273.082C58.1754 268.08 51.6947 266.85 46.7154 270.339C41.7361 273.828 40.1429 280.711 43.1576 285.717C43.3133 285.972 43.4811 286.212 43.6528 286.447C41.4486 288.651 39.3842 291.046 37.4755 293.613C37.228 293.458 36.9804 293.306 36.7129 293.174C31.6098 290.583 25.201 292.963 22.3978 298.484C19.5947 304.005 21.4555 310.584 26.5586 313.171C26.8221 313.307 27.0936 313.418 27.3612 313.526C26.4148 316.58 25.7001 319.662 25.2209 322.744C24.9294 322.744 24.6339 322.748 24.3385 322.776C18.5166 323.295 13.8967 328.64 14.0205 334.72C14.1403 340.796 18.9598 345.304 24.7777 344.785C25.0812 344.757 25.3806 344.709 25.6761 344.657C26.2831 347.667 27.1176 350.613 28.1678 353.459C27.9002 353.615 27.6327 353.779 27.3732 353.958C22.3939 357.448 20.8006 364.33 23.8154 369.332C26.6864 374.099 35.8863 376.434 41.0533 373.632C42.4469 375.009 43.9243 376.31 45.4816 377.536C45.3178 377.804 45.1581 378.079 45.0104 378.362C42.2073 383.884 44.068 390.463 49.1711 393.05C54.2742 395.64 60.683 393.261 63.4861 387.74C63.6339 387.453 63.7577 387.165 63.8775 386.874C66.7405 387.672 69.6394 388.223 72.5543 388.53C72.5343 388.838 72.5224 389.145 72.5264 389.457C72.6501 395.533 77.4657 400.04 83.2876 399.521C89.1094 399.002 93.7254 393.656 93.6056 387.576C93.5976 387.261 93.5736 386.95 93.5417 386.638C96.4606 385.808 99.3276 384.742 102.119 383.456C102.25 383.728 102.39 383.995 102.546 384.259C105.561 389.261 112.045 390.491 117.021 387.001C122 383.512 123.593 376.63 120.578 371.624C120.423 371.368 120.255 371.129 120.083 370.893C122.288 368.689 124.352 366.294 126.261 363.727C126.508 363.883 126.756 364.035 127.023 364.166C132.126 366.757 138.535 364.378 141.338 358.857C144.141 353.336 142.281 346.757 137.178 344.17C136.914 344.034 136.642 343.922 136.375 343.814C137.321 340.76 138.036 337.679 138.515 334.597C138.807 334.597 139.102 334.593 139.398 334.565C145.219 334.046 149.835 328.7 149.716 322.62C149.592 316.544 144.776 312.037 138.954 312.556C138.651 312.584 138.351 312.632 138.056 312.684C137.449 309.674 136.615 306.727 135.564 303.881C135.832 303.725 136.099 303.562 136.359 303.382C141.338 299.893 142.931 293.01 139.917 288.004C136.902 283.002 130.421 281.773 125.442 285.258C125.186 285.437 124.947 285.629 124.711 285.825C122.743 283.649 120.586 281.637 118.255 279.796C118.418 279.529 118.578 279.254 118.726 278.97C121.529 273.449 125.194 267.417 120.055 264.906C108.16 259.101 103.057 264.071 100.254 269.593C100.11 269.88 99.9824 270.167 99.8626 270.459C96.9996 269.66 94.1007 269.106 91.1858 268.802C91.2058 268.495 91.2177 268.187 91.2137 267.876C91.09 261.8 92.8948 258.51 87.053 258.399C86.7775 258.395 86.506 258.391 86.2384 258.391C74.1276 258.391 70.0187 263.812 70.1385 269.756L70.1305 269.764ZM63.4302 364.977C44.9066 355.575 38.1464 331.698 48.3326 311.646C58.5148 291.593 81.7862 282.962 100.306 292.364C118.83 301.765 125.59 325.642 115.404 345.695C108.016 360.242 93.7373 368.777 79.3864 368.781C73.9559 368.781 68.5134 367.56 63.4302 364.981V364.977ZM39.0248 371.508C39.0887 371.58 39.1566 371.652 39.2205 371.724C39.0608 371.624 38.9809 371.548 39.0248 371.508Z" fill="#444B8C"/>
<path fill-rule="evenodd" clip-rule="evenodd" d="M70.1305 269.764C70.1385 270.08 70.1625 270.391 70.1944 270.702C67.2755 271.533 64.4085 272.599 61.6174 273.884C61.4856 273.613 61.3459 273.345 61.1901 273.082C58.1754 268.08 51.6947 266.85 46.7154 270.339C41.7361 273.828 40.1429 280.711 43.1576 285.717C43.3133 285.972 43.4811 286.212 43.6528 286.447C41.4486 288.651 39.3842 291.046 37.4755 293.613C37.228 293.458 36.9804 293.306 36.7129 293.174C31.6098 290.583 25.201 292.963 22.3978 298.484C19.5947 304.005 21.4555 310.584 26.5586 313.171C26.8221 313.307 27.0936 313.418 27.3612 313.526C26.4148 316.58 25.7001 319.662 25.2209 322.744C24.9294 322.744 24.6339 322.748 24.3385 322.776C18.5166 323.295 13.8967 328.64 14.0205 334.72C14.1403 340.796 18.9598 345.304 24.7777 344.785C25.0812 344.757 25.3806 344.709 25.6761 344.657C26.2831 347.667 27.1176 350.613 28.1678 353.459C27.9002 353.615 27.6327 353.779 27.3732 353.958C22.3939 357.448 20.8006 364.33 23.8154 369.332C26.6864 374.099 35.8863 376.434 41.0533 373.632C42.4469 375.009 43.9243 376.31 45.4816 377.536C45.3178 377.804 45.1581 378.079 45.0104 378.362C42.2073 383.884 44.068 390.463 49.1711 393.05C54.2742 395.64 60.683 393.261 63.4861 387.74C63.6339 387.453 63.7577 387.165 63.8775 386.874C66.7405 387.672 69.6394 388.223 72.5543 388.53C72.5343 388.838 72.5224 389.145 72.5264 389.457C72.6501 395.533 77.4657 400.04 83.2876 399.521C89.1094 399.002 93.7254 393.656 93.6056 387.576C93.5976 387.261 93.5736 386.95 93.5417 386.638C96.4606 385.808 99.3276 384.742 102.119 383.456C102.25 383.728 102.39 383.995 102.546 384.259C105.561 389.261 112.045 390.491 117.021 387.001C122 383.512 123.593 376.63 120.578 371.624C120.423 371.368 120.255 371.129 120.083 370.893C122.288 368.689 124.352 366.294 126.261 363.727C126.508 363.883 126.756 364.035 127.023 364.166C132.126 366.757 138.535 364.378 141.338 358.857C144.141 353.336 142.281 346.757 137.178 344.17C136.914 344.034 136.642 343.922 136.375 343.814C137.321 340.76 138.036 337.679 138.515 334.597C138.807 334.597 139.102 334.593 139.398 334.565C145.219 334.046 149.835 328.7 149.716 322.62C149.592 316.544 144.776 312.037 138.954 312.556C138.651 312.584 138.351 312.632 138.056 312.684C137.449 309.674 136.615 306.727 135.564 303.881C135.832 303.725 136.099 303.562 136.359 303.382C141.338 299.893 142.931 293.01 139.917 288.004C136.902 283.002 130.421 281.773 125.442 285.258C125.186 285.437 124.947 285.629 124.711 285.825C122.743 283.649 120.586 281.637 118.255 279.796C118.418 279.529 118.578 279.254 118.726 278.97C121.529 273.449 125.194 267.417 120.055 264.906C108.16 259.101 103.057 264.071 100.254 269.593C100.11 269.88 99.9824 270.167 99.8626 270.459C96.9996 269.66 94.1007 269.106 91.1858 268.802C91.2058 268.495 91.2177 268.187 91.2137 267.876C91.09 261.8 92.8948 258.51 87.053 258.399C86.7775 258.395 86.506 258.391 86.2384 258.391C74.1276 258.391 70.0187 263.812 70.1385 269.756L70.1305 269.764ZM63.4302 364.977C44.9066 355.575 38.1464 331.698 48.3326 311.646C58.5148 291.593 81.7862 282.962 100.306 292.364C118.83 301.765 125.59 325.642 115.404 345.695C108.016 360.242 93.7373 368.777 79.3864 368.781C73.9559 368.781 68.5134 367.56 63.4302 364.981V364.977ZM39.0248 371.508C39.0887 371.58 39.1566 371.652 39.2205 371.724C39.0608 371.624 38.9809 371.548 39.0248 371.508Z" fill="#8FD6AB"/>
<path fill-rule="evenodd" clip-rule="evenodd" d="M105.161 295.346C119.94 306.173 124.643 327.507 115.408 345.691C107.581 361.104 92.0243 369.759 76.8309 368.674C76.152 370.43 75.4892 372.199 74.7625 373.939C72.7939 378.662 70.5538 383.285 68.3137 387.904C69.7233 388.171 71.1368 388.379 72.5583 388.526C72.5383 388.834 72.5264 389.141 72.5304 389.453C72.6541 395.529 76.3437 400.695 86.8933 400.136C92.7271 399.828 93.7294 393.652 93.6096 387.576C93.6016 387.261 93.5776 386.95 93.5457 386.638C96.4646 385.808 99.3316 384.742 102.123 383.456C102.254 383.728 102.394 383.995 102.55 384.259C105.565 389.265 116.026 391.389 121.006 387.9C125.985 384.411 123.597 376.63 120.583 371.628C120.427 371.372 120.259 371.133 120.087 370.897C122.292 368.694 124.36 366.298 126.265 363.731C126.512 363.887 126.76 364.039 127.027 364.17C132.13 366.761 138.539 364.382 141.342 358.861C144.145 353.34 142.285 346.761 137.182 344.174C136.918 344.038 136.646 343.926 136.379 343.819C137.325 340.765 138.04 337.683 138.519 334.601C138.811 334.601 139.106 334.597 139.402 334.569C145.223 334.05 149.839 328.704 149.72 322.624C149.596 316.548 144.78 312.041 138.958 312.56C138.655 312.588 138.355 312.636 138.06 312.688C137.453 309.678 136.619 306.736 135.568 303.885C135.836 303.729 136.103 303.566 136.363 303.382C141.342 299.893 147.504 291.466 143.99 286.799C137.321 277.94 130.421 281.773 125.442 285.262C125.186 285.441 124.947 285.633 124.711 285.829C122.743 283.657 120.586 281.641 118.255 279.801C118.418 279.533 118.578 279.258 118.726 278.974C120.251 275.968 120.387 272.655 119.381 269.836C114.569 278.3 109.825 286.799 105.165 295.342L105.161 295.346Z" fill="#8FD6AB"/>
<path fill-rule="evenodd" clip-rule="evenodd" d="M86.8414 258.403H86.8254C86.5299 258.403 86.2304 258.419 85.931 258.443C80.1091 258.962 75.4892 264.307 75.613 270.387C75.617 270.706 75.6449 271.014 75.6769 271.325C72.758 272.16 69.891 273.221 67.0998 274.507C66.9681 274.235 66.8283 273.968 66.6726 273.704C63.6578 268.702 57.1771 267.473 52.1978 270.962C47.2185 274.451 45.6253 281.333 48.64 286.336C48.7958 286.591 48.9635 286.831 49.1352 287.066C46.931 289.27 44.8666 291.665 42.958 294.232C42.7104 294.076 42.4628 293.925 42.1993 293.793C37.0962 291.202 30.6874 293.581 27.8843 299.102C25.0812 304.624 26.9419 311.203 32.045 313.79C32.3085 313.925 32.5801 314.037 32.8516 314.145C31.9053 317.199 31.1905 320.281 30.7113 323.363C30.4198 323.363 30.1244 323.367 29.8289 323.395C24.007 323.914 19.3911 329.259 19.5109 335.339C19.6307 341.415 24.4503 345.922 30.2721 345.403C30.5756 345.375 30.875 345.327 31.1705 345.276C31.7775 348.286 32.612 351.228 33.6622 354.078C33.3947 354.234 33.1271 354.398 32.8676 354.577C27.8883 358.066 26.295 364.949 29.3098 369.955C32.3245 374.957 38.8052 376.187 43.7845 372.698C44.0401 372.518 44.2797 372.326 44.5152 372.131C46.4838 374.306 48.64 376.318 50.972 378.159C50.8083 378.426 50.6445 378.702 50.5008 378.985C47.6977 384.506 49.5584 391.085 54.6615 393.672C59.7646 396.263 66.1734 393.884 68.9766 388.363C69.1243 388.075 69.2481 387.788 69.3679 387.496C72.2309 388.295 75.1298 388.846 78.0447 389.153C78.0288 389.461 78.0128 389.768 78.0208 390.079C78.1406 396.155 82.9602 400.663 88.778 400.144C94.5998 399.625 99.2198 394.279 99.096 388.199C99.092 387.88 99.064 387.572 99.0321 387.261C101.951 386.427 104.818 385.365 107.609 384.079C107.741 384.351 107.881 384.618 108.036 384.882C111.051 389.884 117.532 391.113 122.511 387.628C127.49 384.139 129.084 377.257 126.069 372.25C125.913 371.995 125.745 371.755 125.574 371.52C127.778 369.316 129.846 366.921 131.751 364.354C131.999 364.51 132.246 364.661 132.514 364.793C137.617 367.384 144.026 365.005 146.829 359.484C149.632 353.962 147.771 347.383 142.668 344.797C142.404 344.661 142.133 344.549 141.861 344.441C142.808 341.387 143.522 338.305 144.002 335.223C144.293 335.223 144.589 335.219 144.884 335.191C150.706 334.672 155.322 329.327 155.202 323.247C155.082 317.171 150.263 312.664 144.445 313.183C144.141 313.211 143.842 313.259 143.542 313.31C142.935 310.3 142.101 307.358 141.051 304.508C141.318 304.352 141.586 304.188 141.845 304.009C146.825 300.52 148.418 293.637 145.403 288.631C142.388 283.629 135.904 282.399 130.928 285.888C130.673 286.068 130.433 286.26 130.198 286.455C128.229 284.28 126.073 282.268 123.741 280.427C123.905 280.16 124.064 279.884 124.212 279.601C127.015 274.08 125.155 267.501 120.051 264.914C114.948 262.323 108.54 264.702 105.736 270.223C105.593 270.511 105.465 270.798 105.345 271.09C102.482 270.291 99.5831 269.74 96.6682 269.433C96.6842 269.125 96.7002 268.818 96.6922 268.507C96.5764 262.75 92.2479 258.403 86.8414 258.403ZM68.9167 365.6C50.393 356.198 43.6328 332.321 53.815 312.269C63.9972 292.216 87.2686 283.585 105.788 292.986C124.312 302.388 131.072 326.265 120.89 346.318C113.503 360.865 99.2238 369.4 84.8728 369.404C79.4423 369.404 73.9998 368.182 68.9167 365.604V365.6Z" fill="url(#paint5_linear_7_57)"/>
<path fill-rule="evenodd" clip-rule="evenodd" d="M35.1716 172.52C35.1755 172.719 35.1915 172.915 35.2115 173.107C33.3827 173.629 31.5858 174.296 29.8369 175.103C29.753 174.931 29.6692 174.763 29.5693 174.6C27.6806 171.462 23.6157 170.695 20.4972 172.879C17.3746 175.067 16.3764 179.382 18.2691 182.516C18.3649 182.676 18.4727 182.827 18.5805 182.975C17.1989 184.356 15.9052 185.857 14.7073 187.466C14.5515 187.37 14.3958 187.275 14.2321 187.191C11.0337 185.566 7.01669 187.059 5.25976 190.52C3.50282 193.981 4.66879 198.105 7.8672 199.726C8.03092 199.81 8.20262 199.882 8.37033 199.95C7.77536 201.866 7.32815 203.794 7.02867 205.726C6.84499 205.726 6.66131 205.73 6.47364 205.746C2.82401 206.074 -0.0709413 209.423 0.00492627 213.232C0.0807939 217.04 3.09952 219.866 6.74916 219.539C6.94082 219.523 7.12849 219.491 7.31217 219.459C7.6955 221.348 8.2146 223.192 8.87345 224.976C8.70574 225.076 8.53803 225.176 8.37432 225.292C5.25177 227.479 4.2575 231.791 6.14621 234.929C7.94707 237.915 13.709 239.38 16.9514 237.624C17.8258 238.486 18.7522 239.304 19.7265 240.071C19.6227 240.238 19.5229 240.41 19.431 240.59C17.6741 244.051 18.8401 248.171 22.0385 249.796C25.2369 251.416 29.2539 249.927 31.0108 246.466C31.1027 246.286 31.1825 246.103 31.2544 245.923C33.0473 246.422 34.8641 246.77 36.6929 246.961C36.6809 247.153 36.6729 247.348 36.6769 247.54C36.7528 251.348 39.7715 254.175 43.4212 253.848C47.0708 253.52 49.9657 250.171 49.8859 246.362C49.8819 246.163 49.8659 245.967 49.8459 245.775C51.6747 245.252 53.4716 244.586 55.2206 243.779C55.3044 243.951 55.3883 244.119 55.4881 244.282C57.3768 247.42 61.4417 248.187 64.5603 246.003C67.6828 243.815 68.6811 239.504 66.7884 236.366C66.6925 236.206 66.5847 236.055 66.4769 235.907C67.8585 234.526 69.1522 233.025 70.3502 231.416C70.5059 231.512 70.6616 231.607 70.8253 231.691C74.0237 233.316 78.0407 231.823 79.7977 228.362C81.5546 224.901 80.3886 220.781 77.1902 219.156C77.0265 219.072 76.8548 219 76.6871 218.932C77.2821 217.016 77.7293 215.088 78.0288 213.156C78.2124 213.156 78.3961 213.152 78.5838 213.136C82.2334 212.808 85.1284 209.459 85.0485 205.65C84.9726 201.842 81.9539 199.016 78.3043 199.343C78.1126 199.359 77.9249 199.391 77.7413 199.423C77.3579 197.534 76.8388 195.69 76.18 193.906C76.3477 193.806 76.5154 193.706 76.6791 193.59C79.8017 191.403 80.7959 187.091 78.9072 183.953C77.0185 180.815 72.9536 180.045 69.8351 182.233C69.6753 182.344 69.5236 182.464 69.3759 182.588C68.142 181.227 66.7924 179.961 65.3269 178.811C65.4307 178.644 65.5306 178.472 65.6224 178.292C67.3793 174.831 69.6793 171.051 66.4569 169.478C59.002 165.841 55.8035 168.955 54.0466 172.416C53.9548 172.596 53.8789 172.779 53.803 172.959C52.0102 172.46 50.1933 172.112 48.3645 171.921C48.3765 171.729 48.3845 171.538 48.3805 171.342C48.3046 167.534 49.4347 165.474 45.773 165.402C45.6013 165.398 45.4296 165.398 45.2619 165.398C37.6712 165.398 35.0957 168.795 35.1716 172.52ZM30.9709 232.194C19.3631 226.302 15.1265 211.335 21.5074 198.768C27.8883 186.201 42.4748 180.791 54.0825 186.684C65.6903 192.576 69.9269 207.543 63.546 220.11C58.9141 229.228 49.9657 234.578 40.9694 234.578C37.5634 234.578 34.1573 233.811 30.9669 232.194H30.9709ZM15.6736 236.29C15.7135 236.334 15.7534 236.378 15.7974 236.426C15.6975 236.362 15.6456 236.314 15.6736 236.29Z" fill="#444B8C"/>
<path fill-rule="evenodd" clip-rule="evenodd" d="M35.1716 172.52C35.1755 172.719 35.1915 172.915 35.2115 173.107C33.3827 173.629 31.5858 174.296 29.8369 175.103C29.753 174.931 29.6692 174.763 29.5693 174.6C27.6806 171.462 23.6157 170.695 20.4972 172.879C17.3746 175.067 16.3764 179.382 18.2691 182.516C18.3649 182.676 18.4727 182.827 18.5805 182.975C17.1989 184.356 15.9052 185.857 14.7073 187.466C14.5515 187.37 14.3958 187.275 14.2321 187.191C11.0337 185.566 7.01669 187.059 5.25976 190.52C3.50282 193.981 4.66879 198.105 7.8672 199.726C8.03092 199.81 8.20262 199.882 8.37033 199.95C7.77536 201.866 7.32815 203.794 7.02867 205.726C6.84499 205.726 6.66131 205.73 6.47364 205.746C2.82401 206.074 -0.0709413 209.423 0.00492627 213.232C0.0807939 217.04 3.09952 219.866 6.74916 219.539C6.94082 219.523 7.12849 219.491 7.31217 219.459C7.6955 221.348 8.2146 223.192 8.87345 224.976C8.70574 225.076 8.53803 225.176 8.37432 225.292C5.25177 227.479 4.2575 231.791 6.14621 234.929C7.94707 237.915 13.709 239.38 16.9514 237.624C17.8258 238.486 18.7522 239.304 19.7265 240.071C19.6227 240.238 19.5229 240.41 19.431 240.59C17.6741 244.051 18.8401 248.171 22.0385 249.796C25.2369 251.416 29.2539 249.927 31.0108 246.466C31.1027 246.286 31.1825 246.103 31.2544 245.923C33.0473 246.422 34.8641 246.77 36.6929 246.961C36.6809 247.153 36.6729 247.348 36.6769 247.54C36.7528 251.348 39.7715 254.175 43.4212 253.848C47.0708 253.52 49.9657 250.171 49.8859 246.362C49.8819 246.163 49.8659 245.967 49.8459 245.775C51.6747 245.252 53.4716 244.586 55.2206 243.779C55.3044 243.951 55.3883 244.119 55.4881 244.282C57.3768 247.42 61.4417 248.187 64.5603 246.003C67.6828 243.815 68.6811 239.504 66.7884 236.366C66.6925 236.206 66.5847 236.055 66.4769 235.907C67.8585 234.526 69.1522 233.025 70.3502 231.416C70.5059 231.512 70.6616 231.607 70.8253 231.691C74.0237 233.316 78.0407 231.823 79.7977 228.362C81.5546 224.901 80.3886 220.781 77.1902 219.156C77.0265 219.072 76.8548 219 76.6871 218.932C77.2821 217.016 77.7293 215.088 78.0288 213.156C78.2124 213.156 78.3961 213.152 78.5838 213.136C82.2334 212.808 85.1284 209.459 85.0485 205.65C84.9726 201.842 81.9539 199.016 78.3043 199.343C78.1126 199.359 77.9249 199.391 77.7413 199.423C77.3579 197.534 76.8388 195.69 76.18 193.906C76.3477 193.806 76.5154 193.706 76.6791 193.59C79.8017 191.403 80.7959 187.091 78.9072 183.953C77.0185 180.815 72.9536 180.045 69.8351 182.233C69.6753 182.344 69.5236 182.464 69.3759 182.588C68.142 181.227 66.7924 179.961 65.3269 178.811C65.4307 178.644 65.5306 178.472 65.6224 178.292C67.3793 174.831 69.6793 171.051 66.4569 169.478C59.002 165.841 55.8035 168.955 54.0466 172.416C53.9548 172.596 53.8789 172.779 53.803 172.959C52.0102 172.46 50.1933 172.112 48.3645 171.921C48.3765 171.729 48.3845 171.538 48.3805 171.342C48.3046 167.534 49.4347 165.474 45.773 165.402C45.6013 165.398 45.4296 165.398 45.2619 165.398C37.6712 165.398 35.0957 168.795 35.1716 172.52ZM30.9709 232.194C19.3631 226.302 15.1265 211.335 21.5074 198.768C27.8883 186.201 42.4748 180.791 54.0825 186.684C65.6903 192.576 69.9269 207.543 63.546 220.11C58.9141 229.228 49.9657 234.578 40.9694 234.578C37.5634 234.578 34.1573 233.811 30.9669 232.194H30.9709ZM15.6736 236.29C15.7135 236.334 15.7534 236.378 15.7974 236.426C15.6975 236.362 15.6456 236.314 15.6736 236.29Z" fill="#8FD6AB"/>
<path fill-rule="evenodd" clip-rule="evenodd" d="M57.1292 188.556C66.3931 195.343 69.3399 208.712 63.55 220.11C58.6426 229.771 48.8916 235.196 39.3722 234.514C38.949 235.615 38.5297 236.721 38.0745 237.815C36.8406 240.773 35.4391 243.676 34.0335 246.57C34.916 246.738 35.8025 246.869 36.6929 246.961C36.6809 247.153 36.6729 247.348 36.6769 247.54C36.7528 251.348 39.0648 254.586 45.6772 254.235C49.3348 254.043 49.9617 250.171 49.8859 246.362C49.8819 246.163 49.8659 245.967 49.8459 245.775C51.6748 245.252 53.4716 244.586 55.2206 243.779C55.3044 243.951 55.3883 244.119 55.4881 244.282C57.3768 247.42 63.9373 248.75 67.0559 246.566C70.1785 244.378 68.6811 239.504 66.7884 236.366C66.6925 236.206 66.5847 236.055 66.4769 235.907C67.8585 234.526 69.1522 233.025 70.3502 231.416C70.5059 231.512 70.6616 231.607 70.8253 231.691C74.0237 233.316 78.0407 231.823 79.7977 228.362C81.5546 224.901 80.3886 220.777 77.1902 219.156C77.0265 219.072 76.8548 219 76.6871 218.932C77.2821 217.016 77.7293 215.088 78.0288 213.156C78.2124 213.156 78.3961 213.152 78.5838 213.136C82.2334 212.808 85.1284 209.459 85.0485 205.65C84.9726 201.842 81.9539 199.016 78.3043 199.343C78.1126 199.359 77.9249 199.391 77.7413 199.423C77.3579 197.534 76.8388 195.69 76.18 193.906C76.3477 193.806 76.5154 193.706 76.6791 193.59C79.8017 191.403 83.6629 186.121 81.4588 183.195C77.2781 177.642 72.9536 180.045 69.8351 182.233C69.6753 182.344 69.5236 182.464 69.3759 182.588C68.142 181.227 66.7924 179.961 65.3269 178.811C65.4307 178.644 65.5306 178.472 65.6224 178.292C66.5807 176.408 66.6646 174.332 66.0337 172.564C63.019 177.869 60.0441 183.195 57.1252 188.552L57.1292 188.556Z" fill="#444B8C"/>
<path fill-rule="evenodd" clip-rule="evenodd" d="M57.1292 188.556C66.3931 195.343 69.3399 208.712 63.55 220.11C58.6426 229.771 48.8916 235.196 39.3722 234.514C38.949 235.615 38.5297 236.721 38.0745 237.815C36.8406 240.773 35.4391 243.676 34.0335 246.57C34.916 246.738 35.8025 246.869 36.6929 246.961C36.6809 247.153 36.6729 247.348 36.6769 247.54C36.7528 251.348 39.0648 254.586 45.6772 254.235C49.3348 254.043 49.9617 250.171 49.8859 246.362C49.8819 246.163 49.8659 245.967 49.8459 245.775C51.6748 245.252 53.4716 244.586 55.2206 243.779C55.3044 243.951 55.3883 244.119 55.4881 244.282C57.3768 247.42 63.9373 248.75 67.0559 246.566C70.1785 244.378 68.6811 239.504 66.7884 236.366C66.6925 236.206 66.5847 236.055 66.4769 235.907C67.8585 234.526 69.1522 233.025 70.3502 231.416C70.5059 231.512 70.6616 231.607 70.8253 231.691C74.0237 233.316 78.0407 231.823 79.7977 228.362C81.5546 224.901 80.3886 220.777 77.1902 219.156C77.0265 219.072 76.8548 219 76.6871 218.932C77.2821 217.016 77.7293 215.088 78.0288 213.156C78.2124 213.156 78.3961 213.152 78.5838 213.136C82.2334 212.808 85.1284 209.459 85.0485 205.65C84.9726 201.842 81.9539 199.016 78.3043 199.343C78.1126 199.359 77.9249 199.391 77.7413 199.423C77.3579 197.534 76.8388 195.69 76.18 193.906C76.3477 193.806 76.5154 193.706 76.6791 193.59C79.8017 191.403 83.6629 186.121 81.4588 183.195C77.2781 177.642 72.9536 180.045 69.8351 182.233C69.6753 182.344 69.5236 182.464 69.3759 182.588C68.142 181.227 66.7924 179.961 65.3269 178.811C65.4307 178.644 65.5306 178.472 65.6224 178.292C66.5807 176.408 66.6646 174.332 66.0337 172.564C63.019 177.869 60.0441 183.195 57.1252 188.552L57.1292 188.556Z" fill="#8FD6AB"/>
<path fill-rule="evenodd" clip-rule="evenodd" d="M45.0783 165.426C41.4286 165.753 38.5337 169.102 38.6135 172.911C38.6175 173.111 38.6335 173.306 38.6535 173.498C36.8247 174.021 35.0278 174.687 33.2789 175.494C33.195 175.326 33.1111 175.155 33.0113 174.991C31.1226 171.853 27.0577 171.087 23.9392 173.27C20.8166 175.458 19.8183 179.769 21.711 182.907C21.8069 183.067 21.9147 183.219 22.0225 183.366C20.6409 184.748 19.3472 186.249 18.1493 187.858C17.9935 187.762 17.8378 187.666 17.6741 187.582C14.4757 185.957 10.4587 187.45 8.70175 190.912C6.94482 194.373 8.11078 198.497 11.3092 200.117C11.4729 200.201 11.6446 200.273 11.8123 200.341C11.2174 202.257 10.7701 204.185 10.4707 206.118C10.287 206.118 10.1033 206.122 9.91563 206.138C6.266 206.465 3.37105 209.814 3.45091 213.623C3.52678 217.431 6.54551 220.258 10.1951 219.93C10.3868 219.914 10.5745 219.882 10.7582 219.851C11.1375 221.739 11.6606 223.583 12.3194 225.368C12.1517 225.467 11.984 225.567 11.8203 225.683C8.69776 227.871 7.6995 232.182 9.5922 235.32C11.4809 238.458 15.5458 239.224 18.6644 237.041C18.8241 236.929 18.9758 236.809 19.1236 236.685C20.3574 238.047 21.7071 239.312 23.1725 240.462C23.0687 240.63 22.9689 240.801 22.877 240.981C21.1201 244.442 22.286 248.562 25.4845 250.187C28.6829 251.812 32.6999 250.319 34.4568 246.857C34.5486 246.678 34.6245 246.494 34.7004 246.314C36.4932 246.813 38.3101 247.161 40.1389 247.352C40.1269 247.544 40.1189 247.736 40.1229 247.931C40.1988 251.74 43.2175 254.566 46.8671 254.239C50.5168 253.915 53.4117 250.562 53.3319 246.754C53.3279 246.554 53.3119 246.358 53.2919 246.167C55.1207 245.644 56.9176 244.977 58.6705 244.171C58.7544 244.342 58.8383 244.51 58.9381 244.674C60.8268 247.811 64.8917 248.582 68.0103 246.394C71.1328 244.207 72.1271 239.895 70.2384 236.757C70.1425 236.598 70.0347 236.446 69.9269 236.298C71.3085 234.917 72.6022 233.416 73.8002 231.807C73.9559 231.903 74.1116 231.999 74.2753 232.082C77.4737 233.703 81.4907 232.214 83.2477 228.753C85.0046 225.292 83.8386 221.172 80.6402 219.547C80.4765 219.463 80.3048 219.391 80.1371 219.324C80.7321 217.407 81.1793 215.479 81.4787 213.547C81.6624 213.547 81.8461 213.543 82.0338 213.527C85.6834 213.2 88.5784 209.85 88.4985 206.042C88.4226 202.233 85.4039 199.407 81.7543 199.734C81.5626 199.75 81.3749 199.782 81.1912 199.814C80.8119 197.926 80.2888 196.081 79.63 194.297C79.7977 194.197 79.9654 194.097 80.1291 193.981C83.2517 191.794 84.2459 187.482 82.3572 184.344C80.4685 181.207 76.4036 180.436 73.285 182.624C73.1253 182.736 72.9736 182.855 72.8258 182.979C71.592 181.618 70.2424 180.352 68.7769 179.203C68.8807 179.035 68.9806 178.863 69.0724 178.684C70.8293 175.222 69.6634 171.099 66.4649 169.478C63.2665 167.853 59.2495 169.346 57.4926 172.807C57.4008 172.987 57.3249 173.17 57.249 173.35C55.4562 172.851 53.6393 172.504 51.8105 172.312C51.8225 172.121 51.8305 171.929 51.8265 171.733C51.7546 168.124 49.0394 165.402 45.6533 165.402C45.4656 165.402 45.2739 165.41 45.0823 165.426H45.0783ZM34.4129 232.585C22.8051 226.693 18.5685 211.727 24.9494 199.159C31.3303 186.592 45.9168 181.183 57.5245 187.075C69.1323 192.967 73.3689 207.934 66.988 220.501C62.3561 229.619 53.4077 234.969 44.4114 234.969C41.0054 234.969 37.5993 234.202 34.4129 232.585Z" fill="url(#paint6_linear_7_57)"/>
<g filter="url(#filter3_d_7_57)">
<path fill-rule="evenodd" clip-rule="evenodd" d="M358.044 379.48V232.805C358.044 230.526 355.888 228.661 353.177 228.597L237.806 226.821V391.161L353.38 383.68C356.004 383.524 358.04 381.692 358.04 379.48H358.044Z" fill="#9EE9BC"/>
</g>
<path d="M231.936 231.679V386.303L348.042 379.213C350.509 379.069 352.426 377.34 352.426 375.261V237.26C352.426 235.116 350.397 233.36 347.846 233.3L231.936 231.679Z" fill="white"/>
<path fill-rule="evenodd" clip-rule="evenodd" d="M366.641 268.239V238.075C366.641 237.815 366.429 237.608 366.174 237.608H353.416V268.71H366.174C366.433 268.71 366.641 268.503 366.641 268.243V268.239Z" fill="#9EE9BC"/>
<path fill-rule="evenodd" clip-rule="evenodd" d="M334.349 399.884V228.122C334.349 225.843 332.149 224.006 329.458 224.006H329.454H329.45H329.446H329.442H329.438C329.398 224.006 329.362 224.006 329.322 224.006L236.153 226.661C233.062 226.749 230.61 228.881 230.61 231.48V387.029C230.61 389.409 232.675 391.429 235.47 391.796L328.827 403.964C331.754 404.279 334.349 402.363 334.349 399.884Z" fill="#9EE9BC"/>
<path fill-rule="evenodd" clip-rule="evenodd" d="M273.999 356.014C272.653 337.85 286.034 333.515 283.782 312.321C280.515 281.629 250.396 271.385 252.896 246.131C253.674 238.246 257.384 231.464 261.824 225.935L236.161 226.665C233.07 226.753 230.618 228.885 230.618 231.484V387.033C230.618 389.413 232.683 391.433 235.478 391.8L307.4 401.174C282.308 383.744 274.909 368.282 274.003 356.018L273.999 356.014Z" fill="#98DFB4"/>
<path d="M279.936 280.527C274.718 280.391 271.032 279.014 268.852 276.399C266.68 273.796 265.593 270.611 265.593 266.83C265.593 263.054 266.771 259.944 269.143 257.488C271.523 255.025 275.161 253.792 280.088 253.792C285.059 253.792 288.873 254.93 291.5 257.209C294.14 259.501 295.461 262.766 295.461 266.998C295.461 271.229 294.188 274.583 291.652 277.054C289.124 279.513 285.211 280.667 279.94 280.527H279.936ZM258.003 289.661L294.084 290.951V357.687L302.697 358.549V361.192L258.57 356.665V354.13L266.46 354.921V292.512L258.003 292.188V289.657V289.661Z" fill="white"/>
<defs>
<filter id="filter0_d_7_57" x="253.364" y="62.0659" width="169.635" height="196.324" filterUnits="userSpaceOnUse" color-interpolation-filters="sRGB">
<feFlood flood-opacity="0" result="BackgroundImageFix"/>
<feColorMatrix in="SourceAlpha" type="matrix" values="0 0 0 0 0 0 0 0 0 0 0 0 0 0 0 0 0 0 127 0" result="hardAlpha"/>
<feOffset/>
<feGaussianBlur stdDeviation="15"/>
<feComposite in2="hardAlpha" operator="out"/>
<feColorMatrix type="matrix" values="0 0 0 0 0 0 0 0 0 0 0 0 0 0 0 0 0 0 0.15 0"/>
<feBlend mode="normal" in2="BackgroundImageFix" result="effect1_dropShadow_7_57"/>
<feBlend mode="normal" in="SourceGraphic" in2="effect1_dropShadow_7_57" result="shape"/>
</filter>
<filter id="filter1_d_7_57" x="257.73" y="4.37402" width="144.447" height="256.223" filterUnits="userSpaceOnUse" color-interpolation-filters="sRGB">
<feFlood flood-opacity="0" result="BackgroundImageFix"/>
<feColorMatrix in="SourceAlpha" type="matrix" values="0 0 0 0 0 0 0 0 0 0 0 0 0 0 0 0 0 0 127 0" result="hardAlpha"/>
<feOffset/>
<feGaussianBlur stdDeviation="15"/>
<feComposite in2="hardAlpha" operator="out"/>
<feColorMatrix type="matrix" values="0 0 0 0 0 0 0 0 0 0 0 0 0 0 0 0 0 0 0.15 0"/>
<feBlend mode="normal" in2="BackgroundImageFix" result="effect1_dropShadow_7_57"/>
<feBlend mode="normal" in="SourceGraphic" in2="effect1_dropShadow_7_57" result="shape"/>
</filter>
<filter id="filter2_d_7_57" x="23.0763" y="0.499268" width="312.483" height="414.242" filterUnits="userSpaceOnUse" color-interpolation-filters="sRGB">
<feFlood flood-opacity="0" result="BackgroundImageFix"/>
<feColorMatrix in="SourceAlpha" type="matrix" values="0 0 0 0 0 0 0 0 0 0 0 0 0 0 0 0 0 0 127 0" result="hardAlpha"/>
<feOffset/>
<feGaussianBlur stdDeviation="15"/>
<feComposite in2="hardAlpha" operator="out"/>
<feColorMatrix type="matrix" values="0 0 0 0 0 0 0 0 0 0 0 0 0 0 0 0 0 0 0.2 0"/>
<feBlend mode="normal" in2="BackgroundImageFix" result="effect1_dropShadow_7_57"/>
<feBlend mode="normal" in="SourceGraphic" in2="effect1_dropShadow_7_57" result="shape"/>
</filter>
<filter id="filter3_d_7_57" x="207.806" y="196.821" width="180.238" height="224.34" filterUnits="userSpaceOnUse" color-interpolation-filters="sRGB">
<feFlood flood-opacity="0" result="BackgroundImageFix"/>
<feColorMatrix in="SourceAlpha" type="matrix" values="0 0 0 0 0 0 0 0 0 0 0 0 0 0 0 0 0 0 127 0" result="hardAlpha"/>
<feOffset/>
<feGaussianBlur stdDeviation="15"/>
<feComposite in2="hardAlpha" operator="out"/>
<feColorMatrix type="matrix" values="0 0 0 0 0 0 0 0 0 0 0 0 0 0 0 0 0 0 0.15 0"/>
<feBlend mode="normal" in2="BackgroundImageFix" result="effect1_dropShadow_7_57"/>
<feBlend mode="normal" in="SourceGraphic" in2="effect1_dropShadow_7_57" result="shape"/>
</filter>
<linearGradient id="paint0_linear_7_57" x1="189.462" y1="39.9408" x2="192.077" y2="42.7918" gradientUnits="userSpaceOnUse">
<stop stop-color="#FF9085"/>
<stop offset="1" stop-color="#FB6FBB"/>
</linearGradient>
<linearGradient id="paint1_linear_7_57" x1="186.029" y1="63.0136" x2="170.205" y2="-9.57773" gradientUnits="userSpaceOnUse">
<stop stop-color="#9EE9BC"/>
<stop offset="1" stop-color="#98DFB4"/>
</linearGradient>
<linearGradient id="paint2_linear_7_57" x1="155.645" y1="131.132" x2="110.259" y2="76.0761" gradientUnits="userSpaceOnUse">
<stop stop-color="#9EE9BC"/>
<stop offset="1" stop-color="#98DFB4"/>
</linearGradient>
<linearGradient id="paint3_linear_7_57" x1="155.494" y1="197.235" x2="108.926" y2="141.912" gradientUnits="userSpaceOnUse">
<stop stop-color="#9EE9BC"/>
<stop offset="1" stop-color="#98DFB4"/>
</linearGradient>
<linearGradient id="paint4_linear_7_57" x1="155.342" y1="263.482" x2="107.602" y2="207.911" gradientUnits="userSpaceOnUse">
<stop stop-color="#9EE9BC"/>
<stop offset="1" stop-color="#98DFB4"/>
</linearGradient>
<linearGradient id="paint5_linear_7_57" x1="140.695" y1="396.499" x2="-54.0072" y2="150.213" gradientUnits="userSpaceOnUse">
<stop stop-color="#9EE9BC"/>
<stop offset="1" stop-color="#98DFB4"/>
</linearGradient>
<linearGradient id="paint6_linear_7_57" x1="79.4062" y1="251.955" x2="-42.6246" y2="97.5899" gradientUnits="userSpaceOnUse">
<stop stop-color="#9EE9BC"/>
<stop offset="1" stop-color="#98DFB4"/>
</linearGradient>
</defs>
</svg>
