<svg width="18" height="14" viewBox="0 0 18 14" fill="none" xmlns="http://www.w3.org/2000/svg">
<path d="M15.8797 2.20751C16.6511 1.76595 17.2283 1.07066 17.5035 0.251468C16.7786 0.663276 15.9856 0.953365 15.1586 1.10919C14.0121 -0.0521325 12.1955 -0.334746 10.7239 0.419268C9.25237 1.17328 8.49015 2.77725 8.86318 4.33492C5.89411 4.19219 3.1279 2.84929 1.25289 0.640368C0.274362 2.25646 0.774412 4.32238 2.39564 5.36155C1.80939 5.34351 1.23614 5.19153 0.723683 4.91827C0.723683 4.93311 0.723683 4.94794 0.723683 4.96277C0.724022 6.64621 1.96313 8.09628 3.68639 8.42991C3.14261 8.57157 2.57222 8.59243 2.01874 8.49089C2.50337 9.93054 3.88909 10.9168 5.4685 10.9462C4.16039 11.9293 2.54492 12.4624 0.882015 12.4598C0.587267 12.4602 0.292751 12.444 -6.90513e-07 12.4112C1.68864 13.4502 3.65401 14.0017 5.66125 13.9998C8.45379 14.0181 11.1375 12.964 13.1121 11.0731C15.0867 9.18229 16.1874 6.6125 16.168 3.93861C16.168 3.78535 16.1643 3.63293 16.1568 3.48132C16.88 2.98086 17.5042 2.36088 18 1.65052C17.3262 1.93648 16.6116 2.12422 15.8797 2.20751Z" fill="#98DFB4"/>
</svg>
