<svg width="509" height="475" viewBox="0 0 509 475" fill="none" xmlns="http://www.w3.org/2000/svg">
<path fill-rule="evenodd" clip-rule="evenodd" d="M387.151 18.5985C402.262 22.0776 408.884 39.3687 409.475 40.9798C416.386 59.8325 403.126 69.4942 403.866 91.399C404.887 121.754 431.037 123.419 433.199 150.732C435.846 184.142 397.949 197.159 403.161 229.875C405.962 247.446 417.511 247.561 422.832 269.74C427.391 288.737 425.814 317.388 410.87 328.92C380.386 352.442 294.5 304.563 294.478 265.609C294.469 248.675 310.689 244.506 313.061 219.563C315.613 192.704 297.8 187.028 299.622 162.766C301.828 133.385 328.566 133.502 339.332 95.8311C347.239 68.1606 336.251 56.0672 349.662 37.659C356.069 28.863 368.502 17.9985 381.827 18C383.59 18 385.37 18.1903 387.151 18.6V18.5985Z" fill="#9EE9BC"/>
<path d="M367.097 331.593C361.802 326.83 356.987 321.568 352.682 315.833C343.419 303.496 333.844 290.741 333.896 274.428C333.935 262.095 339.429 255.221 346.385 246.518C353.164 238.036 361.601 227.478 367.028 208.317C370.127 197.375 373.984 183.76 369.901 167.738C367.522 158.403 363.639 153.245 360.213 148.695C356.633 143.938 353.805 140.181 354.049 133.295C354.449 122.053 360.186 114.569 366.83 105.904C370.937 100.548 375.184 95.0088 378.831 87.8646C388.143 69.6147 388.367 46.1803 379.52 18.1089C379.301 18.1293 379.08 18.1525 378.861 18.1772C387.696 46.1353 387.499 69.4491 378.253 87.5683C374.635 94.6602 370.406 100.175 366.316 105.507C359.603 114.261 353.807 121.822 353.401 133.272C353.148 140.387 356.181 144.418 359.695 149.084C363.083 153.586 366.925 158.689 369.271 167.898C373.311 183.751 369.482 197.274 366.404 208.14C361.014 227.175 352.622 237.675 345.879 246.112C338.845 254.916 333.289 261.868 333.248 274.426C333.196 290.959 342.838 303.802 352.163 316.223C356.223 321.631 360.734 326.619 365.669 331.169C366.148 331.316 366.623 331.454 367.099 331.593H367.097Z" fill="white"/>
<path d="M370.979 175.784C371.06 175.784 371.141 175.754 371.205 175.693C394.935 152.609 405.663 131.639 410.484 118.112C410.923 116.88 411.322 115.689 411.684 114.534C411.526 114.315 411.368 114.095 411.212 113.873C410.809 115.176 410.359 116.53 409.859 117.935C405.059 131.387 394.377 152.245 370.756 175.225C370.628 175.35 370.624 175.555 370.749 175.684C370.812 175.75 370.896 175.783 370.98 175.783L370.979 175.784Z" fill="white"/>
<path d="M361.154 223.682C361.253 223.682 361.35 223.637 361.412 223.552C361.519 223.409 361.49 223.205 361.348 223.098C329.591 199.217 320.391 171.509 318.264 152.472C317.306 143.895 317.658 136.262 318.399 130.255C318.151 130.506 317.905 130.756 317.658 131.006C316.982 136.917 316.7 144.286 317.616 152.514C319.752 171.688 329.005 199.588 360.958 223.618C361.016 223.661 361.085 223.683 361.153 223.683L361.154 223.682Z" fill="white"/>
<path d="M342.013 302.936C342.048 302.936 342.083 302.931 342.118 302.919C378.029 290.725 396.201 270.494 405.121 255.67C407.202 252.209 408.891 248.875 410.259 245.77C410.109 245.572 409.961 245.375 409.813 245.177C408.426 248.361 406.698 251.795 404.548 255.366C395.682 270.087 377.618 290.181 341.91 302.305C341.741 302.363 341.649 302.546 341.707 302.716C341.752 302.851 341.878 302.936 342.013 302.936Z" fill="white"/>
<path d="M379.596 84.307C379.679 84.307 379.762 84.2751 379.825 84.2112C379.951 84.0848 379.951 83.8785 379.825 83.7521C361.408 65.3265 356.314 45.6399 355.821 30.5772C355.611 30.7835 355.402 30.9898 355.197 31.1975C355.808 46.3082 361.047 65.8814 379.367 84.2112C379.431 84.2751 379.514 84.3056 379.596 84.3056V84.307Z" fill="white"/>
<path fill-rule="evenodd" clip-rule="evenodd" d="M472.919 99.1518C499.58 118.636 469.874 156.019 482.706 185.205C494.901 212.939 482.402 234.726 452.911 249.661C423.422 264.596 438.194 277.817 445.357 303.968C453.958 335.38 406.202 338.659 384.026 338.287C366.168 337.988 320.494 349.3 316.942 371.059C313.736 370.491 307.258 366.422 306.006 364.665C297.673 352.963 280.651 332.073 282.242 316.961C282.514 314.379 294.166 312.512 295.894 310.211C303.034 307.215 305.697 306.619 311.089 300.426C327.008 282.147 294.352 244.918 334.843 234.246C364.501 226.427 388.727 237.668 387.685 192.038C386.815 153.954 414.418 91.0808 450.581 91.0735C457.744 91.0721 465.237 93.5373 472.919 99.1504V99.1518Z" fill="#8FD6AB"/>
<path d="M294.466 342.138L294.192 341.5C389.969 300.105 451.624 207.405 460.25 92.5742C460.478 92.6453 460.705 92.718 460.934 92.795C456.866 145.96 440.869 196.122 414.459 238.323C385.303 284.913 343.809 320.812 294.465 342.138H294.466Z" fill="#FCFDFE"/>
<path d="M445.984 315.047C418.345 306 375.297 304.213 347.204 311.266L347.036 310.594C375.207 303.52 418.361 305.303 446.116 314.36C446.078 314.593 446.031 314.819 445.984 315.047Z" fill="#FCFDFE"/>
<path d="M313.6 333.607L313.161 333.071C325.434 322.961 332.135 307.023 333.078 285.698C333.712 271.377 331.784 254.978 327.346 236.887C327.559 236.788 327.767 236.688 327.986 236.592C332.464 254.799 334.409 271.309 333.77 285.728C332.818 307.258 326.031 323.367 313.6 333.607Z" fill="#FCFDFE"/>
<path d="M418.153 231.879L417.687 231.366C437.893 212.9 465.658 207.749 487.313 206.991C487.304 207.223 487.29 207.456 487.277 207.686C465.753 208.448 438.187 213.568 418.153 231.879Z" fill="#FCFDFE"/>
<path d="M446.36 169.169L445.673 169.086C448.914 141.839 437.707 116.561 427.445 99.8332C427.629 99.6908 427.813 99.5485 427.997 99.409C438.326 116.229 449.628 141.692 446.36 169.168V169.169Z" fill="#FCFDFE"/>
<path fill-rule="evenodd" clip-rule="evenodd" d="M475.647 441.135V447.828C475.647 449.646 474.516 451.19 472.986 451.466L399.69 464.648C398.82 464.804 397.937 464.845 397.06 464.771L219.255 449.742C217.668 449.608 216.439 448.058 216.439 446.191V443.396L475.65 441.135H475.647Z" fill="#FAFAFA"/>
<g filter="url(#filter0_d_10_2)">
<path fill-rule="evenodd" clip-rule="evenodd" d="M295.269 427.158V315.171C295.269 312.376 297.33 310.11 299.88 310.11H472.794C475.889 310.11 478.404 312.616 478.404 315.708V439.59C478.404 442.682 475.888 445.01 472.794 444.792L299.88 432.546C297.33 432.366 295.269 429.953 295.269 427.158Z" fill="#FAFAFA"/>
</g>
<path fill-rule="evenodd" clip-rule="evenodd" d="M297.122 310.11H470.036C473.131 310.11 475.646 312.616 475.646 315.708V439.59C475.646 442.682 473.131 445.01 470.036 444.792L297.122 432.546C294.572 432.366 292.512 429.953 292.512 427.158V315.171C292.512 312.376 294.574 310.11 297.122 310.11Z" fill="white"/>
<path d="M302.51 424.65L463.561 435.288C466.079 435.455 468.126 433.543 468.126 431.018V322.559C468.126 320.034 466.079 317.98 463.561 317.969L302.51 317.3C300.406 317.292 298.706 319.148 298.706 321.448V420.235C298.706 422.535 300.406 424.51 302.51 424.65Z" fill="#7B7B7B"/>
<path d="M377.473 313.499C377.473 314.649 378.363 315.586 379.462 315.589C380.562 315.592 381.455 314.66 381.455 313.506C381.455 312.353 380.562 311.416 379.462 311.416C378.363 311.414 377.473 312.347 377.473 313.499Z" fill="#7C7C7C"/>
<path fill-rule="evenodd" clip-rule="evenodd" d="M300.466 431.954H300.48C300.799 431.954 301.118 431.967 301.437 431.99L475.647 444.881L399.688 458.542C398.818 458.699 397.936 458.739 397.059 458.665L216.436 443.398L298.665 432.079C299.263 431.996 299.864 431.955 300.466 431.955V431.954Z" fill="white"/>
<path fill-rule="evenodd" clip-rule="evenodd" d="M450.227 445.205L305.193 434.313L260.306 440.443L404.09 452.085L450.227 445.205Z" fill="#C4C4C4"/>
<path fill-rule="evenodd" clip-rule="evenodd" d="M457.714 399.561V427.304L307.392 418.333V392.852L457.714 399.561Z" fill="#C4C4C4"/>
<path d="M455.995 328.024C455.995 329.209 457.044 330.178 458.34 330.187C459.637 330.196 460.691 329.24 460.691 328.052C460.691 326.863 459.637 325.894 458.34 325.889C457.044 325.883 455.995 326.839 455.995 328.024Z" fill="#9DE8BB"/>
<path d="M447.513 327.975C447.513 329.156 448.553 330.119 449.837 330.129C451.123 330.138 452.166 329.186 452.166 328.002C452.166 326.818 451.123 325.855 449.837 325.849C448.553 325.844 447.513 326.795 447.513 327.976V327.975Z" fill="#9DE8BB"/>
<path d="M439.109 327.925C439.109 329.1 440.14 330.059 441.411 330.069C442.685 330.078 443.72 329.131 443.72 327.953C443.72 326.775 442.685 325.816 441.411 325.809C440.138 325.803 439.109 326.75 439.109 327.925Z" fill="#9DE8BB"/>
<path d="M111.105 440.922C115.113 439.59 118.109 436.181 118.955 431.99L124.789 403.053L174.694 404.829L180.836 434.975C181.697 439.197 178.253 443.433 174.287 444.988L153.408 453.176C149.525 454.698 145.35 455.305 141.202 454.949L97.0755 451.167C95.7855 451.056 94.7505 450.039 94.6012 448.736C94.4519 447.433 93.5474 445.969 94.778 445.561L111.107 440.924L111.105 440.922Z" fill="#838383"/>
<path fill-rule="evenodd" clip-rule="evenodd" d="M172.969 403.525L179.105 433.292C179.965 437.461 177.69 441.642 173.729 443.177L152.87 451.261C148.991 452.765 144.821 453.363 140.676 453.013L96.5943 449.277C95.3057 449.168 94.2722 448.164 94.1229 446.877C93.9721 445.59 94.7476 444.374 95.9768 443.97L110.611 439.162C114.616 437.846 117.608 434.48 118.453 430.343L124.282 401.769L172.971 403.525H172.969Z" fill="#C4C4C4"/>
<g filter="url(#filter1_d_10_2)">
<path fill-rule="evenodd" clip-rule="evenodd" d="M30.9167 407.158V382.101L264.382 387.791V416.429C264.382 419.43 261.604 421.769 258.22 421.625L35.7871 412.202C33.1055 412.088 30.9182 409.818 30.9182 407.158H30.9167Z" fill="#189599"/>
</g>
<g filter="url(#filter2_d_10_2)">
<path fill-rule="evenodd" clip-rule="evenodd" d="M30.9167 382.933V253.181C30.9167 250.52 33.1055 248.255 35.7856 248.148L258.218 239.188C258.308 239.183 258.396 239.182 258.486 239.182H258.491H258.495H258.499C261.755 239.182 264.382 241.478 264.382 244.397V387.793L30.9167 382.933Z" fill="#FAFAFA"/>
</g>
<path d="M257.501 264.354V376.366C257.501 379.162 254.922 381.376 251.779 381.286L40.6763 375.269C38.1571 375.197 36.1002 373.099 36.1002 370.605V270.702L257.501 264.352V264.354Z" fill="#7B7B7B"/>
<path fill-rule="evenodd" clip-rule="evenodd" d="M257.501 251.499V264.354L36.1002 270.703V259.239C36.1002 256.797 38.115 254.722 40.5821 254.629L251.895 246.728C251.974 246.725 252.053 246.724 252.132 246.724C255.103 246.724 257.501 248.83 257.501 251.499Z" fill="#9EE9BC"/>
<path d="M242.055 255.632C242.055 256.595 242.93 257.347 244.012 257.312C245.094 257.279 245.974 256.468 245.974 255.502C245.974 254.538 245.094 253.785 244.012 253.822C242.93 253.858 242.055 254.669 242.055 255.632Z" fill="#189599"/>
<path d="M233.621 255.909C233.621 256.867 234.487 257.615 235.555 257.58C236.625 257.546 237.494 256.74 237.494 255.781C237.494 254.821 236.626 254.073 235.555 254.111C234.487 254.147 233.621 254.952 233.621 255.909Z" fill="#189599"/>
<path d="M225.285 256.184C225.285 257.135 226.14 257.879 227.197 257.846C228.255 257.812 229.113 257.012 229.113 256.057C229.113 255.103 228.255 254.359 227.197 254.396C226.14 254.432 225.285 255.232 225.285 256.184Z" fill="#189599"/>
<path fill-rule="evenodd" clip-rule="evenodd" d="M118.639 327.131V278.707L241.292 276.47V327.797L118.639 327.131Z" fill="#C4C4C4"/>
<path fill-rule="evenodd" clip-rule="evenodd" d="M111.442 278.838V327.091L49.3792 326.754V279.97L111.442 278.838Z" fill="#C4C4C4"/>
<path fill-rule="evenodd" clip-rule="evenodd" d="M241.292 334.499V365.895L49.3792 361.482V332.864L241.292 334.499Z" fill="#C4C4C4"/>
<path d="M217.578 26.4691C183.61 28.2529 154.898 58.7154 153.44 94.5135C153.301 97.9258 153.411 101.258 153.766 104.498C147.875 102.184 141.358 101.075 134.454 101.437C106.421 102.91 82.721 128.054 81.5179 157.598C80.3757 185.673 99.9543 207.615 125.957 208.472C127.323 208.512 128.705 208.5 130.1 208.427L362.436 195.438C375.522 192.239 385.838 179.731 386.425 165.321C387.086 149.084 375.13 136.57 359.719 137.379C356.453 137.55 353.292 138.306 350.334 139.546C351.682 134.468 352.498 129.197 352.717 123.812C354.223 86.8027 326.982 58.3014 291.875 60.1448C285.352 60.4876 279.007 61.8604 272.999 64.0946C264.873 40.7546 243.435 25.1094 217.578 26.4676V26.4691Z" fill="#189599"/>
<path fill-rule="evenodd" clip-rule="evenodd" d="M211.351 20.9228H211.399C235.854 20.9228 255.912 36.2339 263.709 58.6311C269.717 56.3969 276.06 55.0242 282.585 54.6813C317.69 52.8379 344.933 81.3393 343.427 118.349C343.208 123.734 342.392 129.003 341.044 134.083C344.002 132.841 347.162 132.087 350.429 131.915C365.84 131.106 377.796 143.621 377.135 159.857C376.548 174.268 366.232 186.775 353.146 189.974L120.81 202.964C119.415 203.037 118.033 203.05 116.667 203.009C90.6643 202.152 71.0857 180.209 72.2279 152.135C73.4296 122.591 97.1306 97.4464 125.164 95.9734C132.068 95.6103 138.585 96.7201 144.476 99.0342C144.121 95.7947 144.011 92.4623 144.15 89.05C145.607 53.2505 174.319 22.7895 208.288 21.0056C209.316 20.9518 210.336 20.9242 211.35 20.9242L211.351 20.9228Z" fill="#9EE9BC"/>
<path d="M361.956 210.882C349.275 211.548 338.552 222.925 338.008 236.288C337.956 237.559 337.997 238.806 338.131 240.016C335.933 239.151 333.499 238.736 330.922 238.872C320.456 239.421 311.61 248.807 311.16 259.837C310.734 270.323 318.041 278.514 327.749 278.831C328.259 278.845 328.773 278.844 329.295 278.816L416.031 273.966C420.919 272.77 424.772 268.103 424.992 262.722C425.239 256.66 420.774 251.989 415.017 252.291C413.801 252.355 412.619 252.635 411.518 253.098C412.018 251.2 412.325 249.236 412.406 247.227C412.969 233.41 402.8 222.767 389.691 223.455C387.254 223.583 384.889 224.099 382.645 224.931C379.609 216.215 371.609 210.374 361.954 210.881L361.956 210.882Z" fill="#189599"/>
<path d="M356.171 206.482C343.49 207.148 332.767 218.525 332.223 231.888C332.171 233.159 332.213 234.405 332.346 235.615C330.148 234.751 327.714 234.337 325.137 234.472C314.671 235.021 305.825 244.407 305.375 255.437C304.949 265.923 312.256 274.114 321.964 274.431C322.474 274.445 322.988 274.444 323.51 274.416L410.246 269.567C415.134 268.372 418.988 263.704 419.207 258.324C419.454 252.262 414.989 247.59 409.232 247.892C408.016 247.956 406.834 248.236 405.733 248.7C406.234 246.801 406.54 244.837 406.621 242.828C407.184 229.012 397.015 218.368 383.906 219.057C381.469 219.184 379.104 219.699 376.86 220.532C373.824 211.816 365.824 205.975 356.169 206.482H356.171Z" fill="#F8F8F8"/>
<path d="M96.8567 152.925C84.1763 153.591 73.4528 164.968 72.9092 178.331C72.857 179.602 72.9034 180.848 73.0324 182.059C70.8335 181.194 68.3998 180.78 65.824 180.915C55.3585 181.464 46.5121 190.85 46.0627 201.88C45.6366 212.36 52.9436 220.551 62.651 220.874C63.1612 220.888 63.6758 220.887 64.1976 220.859L150.938 216.009C155.822 214.813 159.674 210.146 159.893 204.767C160.14 198.705 155.674 194.033 149.923 194.335C148.703 194.399 147.522 194.679 146.419 195.144C146.92 193.246 147.226 191.28 147.307 189.272C147.869 175.456 137.701 164.812 124.592 165.501C122.155 165.629 119.789 166.143 117.546 166.977C114.51 158.261 106.51 152.42 96.8567 152.927V152.925Z" fill="#189599"/>
<path fill-rule="evenodd" clip-rule="evenodd" d="M112.046 162.458C114.29 161.624 116.656 161.11 119.092 160.982C132.202 160.293 142.37 170.938 141.808 184.755C141.726 186.764 141.419 188.728 140.919 190.626C142.021 190.163 143.203 189.883 144.424 189.819C150.176 189.516 154.642 194.188 154.394 200.25C154.175 205.629 150.321 210.298 145.439 211.492L58.6981 216.343C58.1763 216.371 57.6617 216.372 57.1515 216.357C47.4441 216.035 40.1371 207.843 40.5633 197.364C41.0126 186.334 49.859 176.949 60.3245 176.399C62.9003 176.264 65.334 176.679 67.5329 177.542C67.4039 176.331 67.359 175.086 67.4097 173.815C67.9533 160.452 78.6768 149.074 91.3572 148.409C91.7471 148.389 92.1341 148.378 92.5183 148.378C101.649 148.378 109.134 154.096 112.046 162.459V162.458Z" fill="#F2F2F2"/>
<path d="M283.243 192.226C284.521 192.226 285.559 191.187 285.559 189.904V182.651C285.559 181.37 284.523 180.33 283.243 180.33C281.964 180.33 280.926 181.368 280.926 182.651V189.904C280.926 191.186 281.963 192.226 283.243 192.226Z" fill="#189599"/>
<path d="M283.243 222.145C284.521 222.145 285.559 221.106 285.559 219.824V204.864C285.559 203.583 284.523 202.543 283.243 202.543C281.964 202.543 280.926 203.581 280.926 204.864V219.824C280.926 221.105 281.963 222.145 283.243 222.145ZM283.243 252.064C284.521 252.064 285.559 251.025 285.559 249.743V234.783C285.559 233.502 284.523 232.462 283.243 232.462C281.964 232.462 280.926 233.5 280.926 234.783V249.743C280.926 251.024 281.963 252.064 283.243 252.064ZM283.243 281.983C284.521 281.983 285.559 280.945 285.559 279.662V264.702C285.559 263.421 284.523 262.381 283.243 262.381C281.964 262.381 280.926 263.42 280.926 264.702V279.662C280.926 280.943 281.963 281.983 283.243 281.983ZM283.243 311.902C284.521 311.902 285.559 310.864 285.559 309.581V294.621C285.559 293.34 284.523 292.3 283.243 292.3C281.964 292.3 280.926 293.339 280.926 294.621V309.581C280.926 310.862 281.963 311.902 283.243 311.902ZM283.243 341.821C284.521 341.821 285.559 340.783 285.559 339.5V324.541C285.559 323.259 284.523 322.219 283.243 322.219C281.964 322.219 280.926 323.258 280.926 324.541V339.5C280.926 340.781 281.963 341.821 283.243 341.821Z" fill="#189599"/>
<path d="M280.928 364.082L295.278 363.796C296.556 363.771 297.573 362.711 297.548 361.43C297.523 360.164 296.491 359.155 295.233 359.155C295.217 359.155 295.201 359.155 295.187 359.155L285.56 359.346V354.46C285.56 353.178 284.524 352.138 283.244 352.138C281.966 352.138 280.928 353.177 280.928 354.46V364.081V364.082Z" fill="#189599"/>
<path d="M177.057 199.19C178.335 199.19 179.373 198.151 179.373 196.868V189.615C179.373 188.334 178.337 187.294 177.057 187.294C175.778 187.294 174.741 188.333 174.741 189.615V196.868C174.741 198.15 175.777 199.19 177.057 199.19Z" fill="#189599"/>
<path d="M177.057 226.519C178.335 226.519 179.373 225.48 179.373 224.197V210.532C179.373 209.251 178.337 208.211 177.057 208.211C175.778 208.211 174.741 209.25 174.741 210.532V224.197C174.741 225.479 175.777 226.519 177.057 226.519Z" fill="#189599"/>
<path d="M177.057 247.437C178.335 247.437 179.373 246.399 179.373 245.116V237.863C179.373 236.582 178.337 235.541 177.057 235.541C175.778 235.541 174.741 236.58 174.741 237.863V245.116C174.741 246.397 175.777 247.437 177.057 247.437Z" fill="#189599"/>
<path d="M111.442 208.474C112.72 208.474 113.758 207.435 113.758 206.152V198.899C113.758 197.618 112.722 196.578 111.442 196.578C110.163 196.578 109.125 197.617 109.125 198.899V206.152C109.125 207.434 110.162 208.474 111.442 208.474Z" fill="#189599"/>
<path d="M111.442 230.774C112.72 230.774 113.758 229.735 113.758 228.452V217.302C113.758 216.02 112.722 214.98 111.442 214.98C110.163 214.98 109.125 216.019 109.125 217.302V228.452C109.125 229.734 110.162 230.774 111.442 230.774Z" fill="#189599"/>
<path d="M111.442 249.178C112.72 249.178 113.758 248.139 113.758 246.856V239.603C113.758 238.322 112.722 237.282 111.442 237.282C110.163 237.282 109.125 238.32 109.125 239.603V246.856C109.125 248.137 110.162 249.178 111.442 249.178Z" fill="#189599"/>
<path d="M356.253 268.749C357.532 268.749 358.57 267.711 358.57 266.428V259.175C358.57 257.894 357.533 256.853 356.253 256.853C354.975 256.853 353.937 257.892 353.937 259.175V266.428C353.937 267.709 354.973 268.749 356.253 268.749Z" fill="#189599"/>
<path d="M356.253 291.051C357.532 291.051 358.57 290.012 358.57 288.729V277.579C358.57 276.297 357.533 275.257 356.253 275.257C354.975 275.257 353.937 276.296 353.937 277.579V288.729C353.937 290.011 354.973 291.051 356.253 291.051Z" fill="#189599"/>
<path d="M356.253 309.453C357.532 309.453 358.57 308.414 358.57 307.132V299.879C358.57 298.597 357.533 297.557 356.253 297.557C354.975 297.557 353.937 298.596 353.937 299.879V307.132C353.937 308.413 354.973 309.453 356.253 309.453Z" fill="#189599"/>
<path d="M193.496 60.7825L235.198 57.3702C239.002 57.0593 242.162 60.2421 242.255 64.481L242.536 77.4708C242.627 81.7097 239.617 85.3878 235.812 85.6871L194.106 88.9701C190.34 89.2664 187.215 86.0924 187.124 81.8796L186.844 68.9683C186.753 64.7556 189.73 61.0905 193.494 60.7825H193.496Z" fill="white"/>
<path d="M200.619 107.943L229.873 105.702C231.852 105.551 233.495 107.208 233.543 109.403L233.862 124.087C233.91 126.283 232.343 128.182 230.364 128.329L201.107 130.498C199.142 130.643 197.511 128.988 197.463 126.801L197.147 112.175C197.099 109.987 198.655 108.093 200.62 107.942L200.619 107.943Z" fill="white"/>
<path d="M158.816 111.145L187.804 108.925C189.765 108.776 191.393 110.426 191.44 112.611L191.756 127.228C191.804 129.414 190.252 131.304 188.291 131.449L159.3 133.599C157.352 133.743 155.736 132.095 155.688 129.918L155.372 115.358C155.324 113.18 156.865 111.295 158.813 111.145H158.816Z" fill="white"/>
<path d="M284.002 101.851L313.256 99.6109C315.235 99.4598 316.879 101.116 316.926 103.312L317.244 117.996C317.292 120.192 315.725 122.091 313.746 122.238L284.489 124.406C282.524 124.552 280.893 122.897 280.845 120.709L280.528 106.084C280.48 103.896 282.035 102.002 284.001 101.851H284.002Z" fill="white"/>
<path d="M242.2 105.053L271.188 102.833C273.15 102.683 274.777 104.334 274.825 106.518L275.141 121.135C275.189 123.321 273.637 125.211 271.676 125.357L242.685 127.505C240.737 127.649 239.121 126.002 239.073 123.824L238.757 109.264C238.709 107.086 240.25 105.201 242.198 105.051L242.2 105.053Z" fill="white"/>
<path d="M117.39 114.318L146.116 112.117C148.059 111.967 149.673 113.612 149.721 115.788L150.035 130.338C150.081 132.514 148.545 134.395 146.601 134.539L117.873 136.668C115.942 136.811 114.341 135.171 114.294 133.003L113.98 118.51C113.933 116.343 115.458 114.466 117.389 114.318H117.39Z" fill="white"/>
<path d="M214.634 104.755L215.943 104.655L215.605 89.066L214.296 89.1691L214.634 104.755Z" fill="white"/>
<path d="M256.564 101.534L257.885 101.432L257.799 97.4667C257.753 95.3327 256.153 93.7174 254.234 93.8655L225.308 96.1128C224.124 96.2043 223.138 95.2049 223.109 93.8859L222.992 88.4863L221.68 88.5895L221.798 93.989C221.844 96.1157 223.431 97.7253 225.339 97.5771L254.264 95.3342C255.455 95.2412 256.448 96.245 256.477 97.5684L256.563 101.533L256.564 101.534Z" fill="white"/>
<path d="M173.085 107.948L174.383 107.848L174.297 103.918C174.268 102.605 175.197 101.463 176.368 101.373L204.985 99.1547C206.884 99.008 208.393 97.1602 208.346 95.0379L208.23 89.647L206.923 89.7502L207.04 95.141C207.069 96.4586 206.133 97.6048 204.953 97.6963L176.337 99.9188C174.449 100.066 172.953 101.905 172.998 104.02L173.084 107.948H173.085Z" fill="white"/>
<path d="M263.002 144.447L264.299 144.347L264.213 140.418C264.184 139.105 265.115 137.963 266.286 137.873L294.903 135.655C296.801 135.508 298.31 133.66 298.264 131.538L298.147 126.147L296.839 126.25L296.957 131.641C296.985 132.958 296.049 134.104 294.869 134.196L266.253 136.419C264.366 136.565 262.87 138.404 262.915 140.519L263 144.449L263.002 144.447Z" fill="white"/>
<path d="M243.597 147.662L272.855 145.557C274.834 145.415 276.478 147.08 276.526 149.276L276.843 163.96C276.891 166.156 275.324 168.048 273.345 168.184L244.087 170.216C242.121 170.353 240.489 168.691 240.443 166.503L240.125 151.878C240.078 149.69 241.633 147.803 243.598 147.661L243.597 147.662Z" fill="white"/>
<path d="M201.79 150.668L230.782 148.583C232.743 148.442 234.372 150.1 234.419 152.286L234.735 166.903C234.782 169.089 233.23 170.972 231.269 171.108L202.276 173.122C200.327 173.257 198.711 171.602 198.663 169.425L198.347 154.865C198.301 152.687 199.84 150.809 201.789 150.668H201.79Z" fill="white"/>
<path d="M160.36 153.647L189.089 151.582C191.033 151.442 192.646 153.092 192.694 155.268L193.009 169.82C193.055 171.996 191.519 173.868 189.575 174.005L160.846 175.999C158.915 176.133 157.313 174.486 157.265 172.317L156.952 157.824C156.904 155.656 158.431 153.787 160.361 153.647H160.36Z" fill="white"/>
<path d="M215.562 147.55L216.871 147.456L216.533 131.869L215.224 131.965L215.562 147.55Z" fill="white"/>
<path d="M257.496 144.526L258.817 144.43L258.731 140.464C258.685 138.33 257.085 136.708 255.165 136.847L226.238 138.959C225.053 139.045 224.068 138.043 224.039 136.722L223.921 131.323L222.609 131.42L222.727 136.82C222.773 138.945 224.36 140.562 226.268 140.424L255.196 138.317C256.387 138.23 257.38 139.238 257.409 140.562L257.495 144.526H257.496Z" fill="white"/>
<path d="M174.007 150.549L175.304 150.456L175.219 146.526C175.19 145.213 176.121 144.076 177.292 143.991L205.911 141.907C207.81 141.769 209.319 139.928 209.272 137.806L209.156 132.415L207.849 132.511L207.966 137.902C207.995 139.219 207.059 140.361 205.879 140.447L177.26 142.536C175.373 142.674 173.875 144.506 173.922 146.621L174.007 150.549Z" fill="white"/>
<path d="M168.693 150.998L167.396 151.085L166.939 147.181C166.786 145.877 165.709 144.879 164.537 144.957L135.905 146.852C134.005 146.978 132.257 145.364 132.01 143.255L131.384 137.899L132.692 137.813L133.318 143.168C133.471 144.477 134.556 145.477 135.736 145.4L164.369 143.511C166.257 143.386 167.992 144.994 168.238 147.094L168.695 150.998H168.693Z" fill="white"/>
<defs>
<filter id="filter0_d_10_2" x="265.269" y="280.11" width="243.135" height="194.697" filterUnits="userSpaceOnUse" color-interpolation-filters="sRGB">
<feFlood flood-opacity="0" result="BackgroundImageFix"/>
<feColorMatrix in="SourceAlpha" type="matrix" values="0 0 0 0 0 0 0 0 0 0 0 0 0 0 0 0 0 0 127 0" result="hardAlpha"/>
<feOffset/>
<feGaussianBlur stdDeviation="15"/>
<feComposite in2="hardAlpha" operator="out"/>
<feColorMatrix type="matrix" values="0 0 0 0 0 0 0 0 0 0 0 0 0 0 0 0 0 0 0.1 0"/>
<feBlend mode="normal" in2="BackgroundImageFix" result="effect1_dropShadow_10_2"/>
<feBlend mode="normal" in="SourceGraphic" in2="effect1_dropShadow_10_2" result="shape"/>
</filter>
<filter id="filter1_d_10_2" x="0.916725" y="352.101" width="293.465" height="99.5305" filterUnits="userSpaceOnUse" color-interpolation-filters="sRGB">
<feFlood flood-opacity="0" result="BackgroundImageFix"/>
<feColorMatrix in="SourceAlpha" type="matrix" values="0 0 0 0 0 0 0 0 0 0 0 0 0 0 0 0 0 0 127 0" result="hardAlpha"/>
<feOffset/>
<feGaussianBlur stdDeviation="15"/>
<feComposite in2="hardAlpha" operator="out"/>
<feColorMatrix type="matrix" values="0 0 0 0 0 0 0 0 0 0 0 0 0 0 0 0 0 0 0.1 0"/>
<feBlend mode="normal" in2="BackgroundImageFix" result="effect1_dropShadow_10_2"/>
<feBlend mode="normal" in="SourceGraphic" in2="effect1_dropShadow_10_2" result="shape"/>
</filter>
<filter id="filter2_d_10_2" x="0.916726" y="209.182" width="293.465" height="208.611" filterUnits="userSpaceOnUse" color-interpolation-filters="sRGB">
<feFlood flood-opacity="0" result="BackgroundImageFix"/>
<feColorMatrix in="SourceAlpha" type="matrix" values="0 0 0 0 0 0 0 0 0 0 0 0 0 0 0 0 0 0 127 0" result="hardAlpha"/>
<feOffset/>
<feGaussianBlur stdDeviation="15"/>
<feComposite in2="hardAlpha" operator="out"/>
<feColorMatrix type="matrix" values="0 0 0 0 0 0 0 0 0 0 0 0 0 0 0 0 0 0 0.1 0"/>
<feBlend mode="normal" in2="BackgroundImageFix" result="effect1_dropShadow_10_2"/>
<feBlend mode="normal" in="SourceGraphic" in2="effect1_dropShadow_10_2" result="shape"/>
</filter>
</defs>
</svg>
